SplineFontDB: 3.0
FontName: Asap-BoldItalic
FullName: Asap BoldItalic
FamilyName: Asap
Weight: Bold
Copyright: Copyright (c) 2011-2014, Omnibus-Type (www.omnibus-type.com omnibus.type@gmail.com) with Reserved Font Name 'Asap'
Version: 001.006
ItalicAngle: -6
UnderlinePosition: -50
UnderlineWidth: 50
Ascent: 800
Descent: 200
sfntRevision: 0x00010189
LayerCount: 2
Layer: 0 0 "Back"  1
Layer: 1 0 "Fore"  0
XUID: [1021 191 1600663927 12856651]
FSType: 8
OS2Version: 3
OS2_WeightWidthSlopeOnly: 0
OS2_UseTypoMetrics: 1
CreationTime: 1410960463
ModificationTime: 1410986490
PfmFamily: 17
TTFWeight: 700
TTFWidth: 5
LineGap: 0
VLineGap: 0
Panose: 2 15 8 4 3 1 2 13 2 3
OS2TypoAscent: 1015
OS2TypoAOffset: 0
OS2TypoDescent: -240
OS2TypoDOffset: 0
OS2TypoLinegap: 0
OS2WinAscent: 1015
OS2WinAOffset: 0
OS2WinDescent: 240
OS2WinDOffset: 0
HheadAscent: 1015
HheadAOffset: 0
HheadDescent: -240
HheadDOffset: 0
OS2SubXSize: 650
OS2SubYSize: 600
OS2SubXOff: -8
OS2SubYOff: 75
OS2SupXSize: 650
OS2SupYSize: 600
OS2SupXOff: 37
OS2SupYOff: 350
OS2StrikeYSize: 50
OS2StrikeYPos: 313
OS2Vendor: 'OMNI'
OS2CodePages: 20000193.00000000
OS2UnicodeRanges: 20000007.00000000.00000000.00000000
Lookup: 1 0 0 "'aalt' Access All Alternates lookup 0"  {"'aalt' Access All Alternates lookup 0 subtable"  } ['aalt' ('DFLT' <'dflt' > 'grek' <'dflt' > 'latn' <'AZE ' 'CAT ' 'CRT ' 'ESP ' 'KAZ ' 'MOL ' 'NLD ' 'PLK ' 'ROM ' 'TAT ' 'TRK ' 'dflt' > ) ]
Lookup: 6 0 0 "'locl' Localized Forms in Latin lookup 1"  {"'locl' Localized Forms in Latin lookup 1 contextual 0"  "'locl' Localized Forms in Latin lookup 1 contextual 1"  } ['locl' ('latn' <'AZE ' 'CAT ' 'CRT ' 'ESP ' 'KAZ ' 'MOL ' 'PLK ' 'ROM ' 'TAT ' 'TRK ' 'dflt' > ) ]
Lookup: 1 0 0 "'locl' Localized Forms in Latin lookup 2"  {"'locl' Localized Forms in Latin lookup 2 subtable"  } ['locl' ('latn' <'TRK ' > ) ]
Lookup: 1 0 0 "'locl' Localized Forms in Latin lookup 3"  {"'locl' Localized Forms in Latin lookup 3 subtable"  } ['locl' ('latn' <'AZE ' > ) ]

StartChar: .notdef
Encoding: 65536 -1 0
Width: 515
Flags: MW
HStem: 0 50<65 405 65 480> 650 50<128 468 128 128>
VStem: -20 574
LayerCount: 2
Fore
SplineSet
54 700 m 1
 554 700 l 1
 480 0 l 1
 -20 0 l 1
 54 700 l 1
468 650 m 1
 128 650 l 1
 272 395 l 1
 468 650 l 1
39 95 m 1
 237 350 l 1
 93 605 l 1
 39 95 l 1
439 95 m 1
 493 605 l 1
 297 350 l 1
 439 95 l 1
405 50 m 1
 261 305 l 1
 65 50 l 1
 405 50 l 1
EndSplineSet
EndChar

StartChar: A
Encoding: 65 65 1
Width: 613
GlyphClass: 2
Flags: MW
HStem: 141 132<221 375 221 406 164 375> 682 20G<319 371 371 385.5>
VStem: -37 624<14 21>
AnchorPoint: "Anchor-1" 345 700 basechar 0
AnchorPoint: "Anchor-0" 301 0 basechar 0
LayerCount: 2
Fore
SplineSet
319 702 m 2
 371 702 l 2
 400 702 422 697 426 681 c 2
 584 38 l 2
 585 35 587 24 587 21 c 0
 587 7 568 -2 533 -2 c 2
 489 -2 l 2
 459 -2 439 3 435 19 c 2
 406 141 l 1
 164 141 l 1
 109 19 l 2
 102 4 85 -2 61 -2 c 2
 21 -2 l 2
 -18 -2 -37 5 -37 18 c 0
 -37 24 -35 30 -31 38 c 2
 260 681 l 2
 267 697 290 702 319 702 c 2
327 515 m 1
 323 515 l 1
 317 494 310 471 301 451 c 2
 221 273 l 1
 375 273 l 1
 335 451 l 2
 330 472 328 494 327 515 c 1
EndSplineSet
Substitution2: "Single Substitution lookup 20 subtable" ordfeminine
Substitution2: "'aalt' Access All Alternates lookup 0 subtable" ordfeminine
Position2: "'cpsp' Capital Spacing lookup 0 subtable" dx=5 dy=0 dh=10 dv=0
EndChar

StartChar: Aacute
Encoding: 193 193 2
Width: 613
GlyphClass: 2
Flags: MW
HStem: 141 132<221 375 221 406 164 375> 682 20G<319 371 371 385.5> 752 159<306 472>
VStem: -37 624<14 21>
AnchorPoint: "Anchor-1" 381 877 basechar 0
AnchorPoint: "Anchor-0" 301 0 basechar 0
LayerCount: 2
Fore
SplineSet
453 911 m 0
 491 911 511 908 511 898 c 0
 511 885 507 887 395 777 c 0
 383 765 364 752 317 752 c 0
 295 752 288 755 288 765 c 0
 288 776 307 796 365 884 c 0
 379 905 413 911 453 911 c 0
319 702 m 2
 371 702 l 2
 400 702 422 697 426 681 c 2
 584 38 l 2
 585 35 587 24 587 21 c 0
 587 7 568 -2 533 -2 c 2
 489 -2 l 2
 459 -2 439 3 435 19 c 2
 406 141 l 1
 164 141 l 1
 109 19 l 2
 102 4 85 -2 61 -2 c 2
 21 -2 l 2
 -18 -2 -37 5 -37 18 c 0
 -37 24 -35 30 -31 38 c 2
 260 681 l 2
 267 697 290 702 319 702 c 2
327 515 m 1
 323 515 l 1
 317 494 310 471 301 451 c 2
 221 273 l 1
 375 273 l 1
 335 451 l 2
 330 472 328 494 327 515 c 1
EndSplineSet
Position2: "'cpsp' Capital Spacing lookup 0 subtable" dx=5 dy=0 dh=10 dv=0
EndChar

StartChar: Abreve
Encoding: 258 258 3
Width: 613
GlyphClass: 2
Flags: MW
HStem: 141 132<221 375 221 406 164 375> 682 20G<319 371 371 385.5> 752 91<332.5 387 332.5 391>
VStem: -37 624<14 21>
AnchorPoint: "Anchor-1" 364 863 basechar 0
AnchorPoint: "Anchor-0" 301 0 basechar 0
LayerCount: 2
Fore
SplineSet
475 892 m 0
 495 892 507 883 507 868 c 0
 507 809 434 752 348 752 c 0
 265 752 212 801 212 855 c 0
 212 879 224 892 251 892 c 0
 268 892 274 884 282 874 c 0
 293 860 307 843 358 843 c 0
 416 843 430 865 446 879 c 0
 453 886 461 892 475 892 c 0
319 702 m 2
 371 702 l 2
 400 702 422 697 426 681 c 2
 584 38 l 2
 585 35 587 24 587 21 c 0
 587 7 568 -2 533 -2 c 2
 489 -2 l 2
 459 -2 439 3 435 19 c 2
 406 141 l 1
 164 141 l 1
 109 19 l 2
 102 4 85 -2 61 -2 c 2
 21 -2 l 2
 -18 -2 -37 5 -37 18 c 0
 -37 24 -35 30 -31 38 c 2
 260 681 l 2
 267 697 290 702 319 702 c 2
327 515 m 1
 323 515 l 1
 317 494 310 471 301 451 c 2
 221 273 l 1
 375 273 l 1
 335 451 l 2
 330 472 328 494 327 515 c 1
EndSplineSet
Position2: "'cpsp' Capital Spacing lookup 0 subtable" dx=5 dy=0 dh=10 dv=0
EndChar

StartChar: Abreveacute
Encoding: 7854 7854 4
Width: 613
GlyphClass: 2
Flags: MW
HStem: 141 132<221 375 221 406 164 375> 682 20G<319 371 371 385.5> 751 83<334.5 389 334.5 393>
VStem: -37 624<14 21>
AnchorPoint: "Anchor-1" 365 872 basechar 0
AnchorPoint: "Anchor-0" 301 0 basechar 0
LayerCount: 2
Fore
SplineSet
444 1006 m 0
 469 1006 482 1001 482 983 c 0
 482 974 473 958 396 882 c 0
 387 874 373 867 338 867 c 0
 324 867 319 870 319 880 c 0
 319 889 329 906 366 979 c 0
 377 1000 409 1006 444 1006 c 0
477 883 m 0
 497 883 509 874 509 859 c 0
 509 806 436 751 350 751 c 0
 267 751 214 799 214 846 c 0
 214 870 226 883 253 883 c 0
 270 883 276 875 284 865 c 0
 295 850 309 834 360 834 c 0
 418 834 432 852 448 870 c 0
 455 877 463 883 477 883 c 0
319 702 m 2
 371 702 l 2
 400 702 422 697 426 681 c 2
 584 38 l 2
 585 35 587 24 587 21 c 0
 587 7 568 -2 533 -2 c 2
 489 -2 l 2
 459 -2 439 3 435 19 c 2
 406 141 l 1
 164 141 l 1
 109 19 l 2
 102 4 85 -2 61 -2 c 2
 21 -2 l 2
 -18 -2 -37 5 -37 18 c 0
 -37 24 -35 30 -31 38 c 2
 260 681 l 2
 267 697 290 702 319 702 c 2
327 515 m 1
 323 515 l 1
 317 494 310 471 301 451 c 2
 221 273 l 1
 375 273 l 1
 335 451 l 2
 330 472 328 494 327 515 c 1
EndSplineSet
Position2: "'cpsp' Capital Spacing lookup 0 subtable" dx=5 dy=0 dh=10 dv=0
EndChar

StartChar: Abrevedotbelow
Encoding: 7862 7862 5
Width: 613
GlyphClass: 2
Flags: MW
HStem: -204 124<269 297> 141 132<221 375 221 406 164 375> 682 20G<319 371 371 385.5> 752 91<332.5 387 332.5 391>
VStem: -37 624<14 21> 220 127<-182.5 -101.5>
AnchorPoint: "Anchor-1" 310 -82 basechar 0
AnchorPoint: "Anchor-0" 280 -203 basechar 0
LayerCount: 2
Fore
SplineSet
475 892 m 0xf8
 495 892 507 883 507 868 c 0
 507 809 434 752 348 752 c 0
 265 752 212 801 212 855 c 0
 212 879 224 892 251 892 c 0
 268 892 274 884 282 874 c 0
 293 860 307 843 358 843 c 0
 416 843 430 865 446 879 c 0
 453 886 461 892 475 892 c 0xf8
319 702 m 2
 371 702 l 2
 400 702 422 697 426 681 c 2
 584 38 l 2
 585 35 587 24 587 21 c 0
 587 7 568 -2 533 -2 c 2
 489 -2 l 2
 459 -2 439 3 435 19 c 2
 406 141 l 1
 164 141 l 1
 109 19 l 2
 102 4 85 -2 61 -2 c 2
 21 -2 l 2
 -18 -2 -37 5 -37 18 c 0
 -37 24 -35 30 -31 38 c 2
 260 681 l 2
 267 697 290 702 319 702 c 2
327 515 m 1
 323 515 l 1
 317 494 310 471 301 451 c 2
 221 273 l 1
 375 273 l 1
 335 451 l 2
 330 472 328 494 327 515 c 1
290 -80 m 0xf4
 333 -80 347 -91 347 -112 c 2
 340 -172 l 2
 337 -193 317 -204 277 -204 c 0
 234 -204 220 -193 220 -172 c 2
 227 -112 l 2
 229 -91 248 -80 290 -80 c 0xf4
EndSplineSet
Position2: "'cpsp' Capital Spacing lookup 0 subtable" dx=5 dy=0 dh=10 dv=0
EndChar

StartChar: Abrevegrave
Encoding: 7856 7856 6
Width: 613
GlyphClass: 2
Flags: MW
HStem: 141 132<221 375 221 406 164 375> 682 20G<319 371 371 385.5> 751 83<334.5 389 334.5 393> 868 139<282 387>
VStem: -37 624<14 21>
AnchorPoint: "Anchor-1" 365 872 basechar 0
AnchorPoint: "Anchor-0" 301 0 basechar 0
LayerCount: 2
Fore
SplineSet
298 1007 m 0
 338 1007 373 1001 380 980 c 0
 400 915 408 893 408 884 c 0
 408 872 399 868 375 868 c 0
 338 868 325 881 316 893 c 0
 256 976 249 983 249 991 c 0
 249 1004 266 1007 298 1007 c 0
477 883 m 0
 497 883 509 874 509 859 c 0
 509 806 436 751 350 751 c 0
 267 751 214 799 214 846 c 0
 214 870 226 883 253 883 c 0
 270 883 276 875 284 865 c 0
 295 850 309 834 360 834 c 0
 418 834 432 852 448 870 c 0
 455 877 463 883 477 883 c 0
319 702 m 2
 371 702 l 2
 400 702 422 697 426 681 c 2
 584 38 l 2
 585 35 587 24 587 21 c 0
 587 7 568 -2 533 -2 c 2
 489 -2 l 2
 459 -2 439 3 435 19 c 2
 406 141 l 1
 164 141 l 1
 109 19 l 2
 102 4 85 -2 61 -2 c 2
 21 -2 l 2
 -18 -2 -37 5 -37 18 c 0
 -37 24 -35 30 -31 38 c 2
 260 681 l 2
 267 697 290 702 319 702 c 2
327 515 m 1
 323 515 l 1
 317 494 310 471 301 451 c 2
 221 273 l 1
 375 273 l 1
 335 451 l 2
 330 472 328 494 327 515 c 1
EndSplineSet
Position2: "'cpsp' Capital Spacing lookup 0 subtable" dx=5 dy=0 dh=10 dv=0
EndChar

StartChar: Abrevehookabove
Encoding: 7858 7858 7
Width: 613
GlyphClass: 2
Flags: MW
HStem: 141 132<221 375 221 406 164 375> 682 20G<319 371 371 385.5> 751 83<334.5 389 334.5 393> 939 70<302 393>
VStem: 379 70<932 944.5>
AnchorPoint: "Anchor-1" 365 872 basechar 0
AnchorPoint: "Anchor-0" 301 0 basechar 0
LayerCount: 2
Fore
SplineSet
379 939 m 0
 379 950 369 956 358 956 c 0
 328 956 315 939 306 939 c 0
 298 939 281 966 281 981 c 0
 281 994 329 1009 364 1009 c 0
 422 1009 449 983 449 943 c 0
 449 919 430 903 409 890 c 0
 396 882 372 869 365 869 c 0
 338 869 324 879 324 890 c 0
 324 898 335 906 345 910 c 0
 368 920 379 925 379 939 c 0
477 883 m 0
 497 883 509 874 509 859 c 0
 509 806 436 751 350 751 c 0
 267 751 214 799 214 846 c 0
 214 870 226 883 253 883 c 0
 270 883 276 875 284 865 c 0
 295 850 309 834 360 834 c 0
 418 834 432 852 448 870 c 0
 455 877 463 883 477 883 c 0
319 702 m 2
 371 702 l 2
 400 702 422 697 426 681 c 2
 584 38 l 2
 585 35 587 24 587 21 c 0
 587 7 568 -2 533 -2 c 2
 489 -2 l 2
 459 -2 439 3 435 19 c 2
 406 141 l 1
 164 141 l 1
 109 19 l 2
 102 4 85 -2 61 -2 c 2
 21 -2 l 2
 -18 -2 -37 5 -37 18 c 0
 -37 24 -35 30 -31 38 c 2
 260 681 l 2
 267 697 290 702 319 702 c 2
327 515 m 1
 323 515 l 1
 317 494 310 471 301 451 c 2
 221 273 l 1
 375 273 l 1
 335 451 l 2
 330 472 328 494 327 515 c 1
EndSplineSet
Position2: "'cpsp' Capital Spacing lookup 0 subtable" dx=5 dy=0 dh=10 dv=0
EndChar

StartChar: Abrevetilde
Encoding: 7860 7860 8
Width: 613
GlyphClass: 2
Flags: MW
HStem: 141 132<221 375 221 406 164 375> 682 20G<319 371 371 385.5> 751 83<334.5 389 334.5 393> 903 86<425.5 438.5> 915 100
VStem: -37 624<14 21>
AnchorPoint: "Anchor-1" 365 872 basechar 0
AnchorPoint: "Anchor-0" 301 0 basechar 0
LayerCount: 2
Fore
SplineSet
483 1004 m 0xf4
 495 1012 511 1013 523 996 c 0
 534 980 535 969 516 944 c 0
 493 919 457 903 420 903 c 0xf4
 391 903 373 908 355 915 c 0
 339 921 325 929 308 929 c 0
 288 929 275 922 262 915 c 0
 250 907 237 913 228 928 c 0
 218 944 217 961 229 974 c 0
 255 997 285 1015 322 1015 c 0xec
 350 1015 366 1010 385 1002 c 0
 401 995 417 989 434 989 c 0
 454 989 468 994 483 1004 c 0xf4
477 883 m 0xec
 497 883 509 874 509 859 c 0
 509 806 436 751 350 751 c 0
 267 751 214 799 214 846 c 0
 214 870 226 883 253 883 c 0
 270 883 276 875 284 865 c 0
 295 850 309 834 360 834 c 0
 418 834 432 852 448 870 c 0
 455 877 463 883 477 883 c 0xec
319 702 m 2
 371 702 l 2
 400 702 422 697 426 681 c 2
 584 38 l 2
 585 35 587 24 587 21 c 0
 587 7 568 -2 533 -2 c 2
 489 -2 l 2
 459 -2 439 3 435 19 c 2
 406 141 l 1
 164 141 l 1
 109 19 l 2
 102 4 85 -2 61 -2 c 2
 21 -2 l 2
 -18 -2 -37 5 -37 18 c 0
 -37 24 -35 30 -31 38 c 2
 260 681 l 2
 267 697 290 702 319 702 c 2
327 515 m 1
 323 515 l 1
 317 494 310 471 301 451 c 2
 221 273 l 1
 375 273 l 1
 335 451 l 2
 330 472 328 494 327 515 c 1
EndSplineSet
Position2: "'cpsp' Capital Spacing lookup 0 subtable" dx=5 dy=0 dh=10 dv=0
EndChar

StartChar: Acircumflex
Encoding: 194 194 9
Width: 613
GlyphClass: 2
Flags: MW
HStem: 141 132<221 375 221 406 164 375> 682 20G<319 371 371 385.5> 749 146<222 366 228 366 355 441 355 463>
VStem: -37 624<14 21>
AnchorPoint: "Anchor-1" 540 774 basechar 0
AnchorPoint: "Anchor-0" 301 0 basechar 0
LayerCount: 2
Fore
SplineSet
355 895 m 2
 366 895 l 2
 395 895 415 894 425 876 c 2
 479 774 l 2
 481 769 482 766 482 762 c 0
 482 754 476 749 463 749 c 2
 441 749 l 2
 411 749 389 754 377 773 c 2
 352 813 l 1
 321 774 l 2
 304 752 280 749 252 749 c 2
 228 749 l 2
 216 749 209 753 209 759 c 0
 209 763 211 768 216 774 c 2
 292 876 l 2
 305 894 326 895 355 895 c 2
319 702 m 2
 371 702 l 2
 400 702 422 697 426 681 c 2
 584 38 l 2
 585 35 587 24 587 21 c 0
 587 7 568 -2 533 -2 c 2
 489 -2 l 2
 459 -2 439 3 435 19 c 2
 406 141 l 1
 164 141 l 1
 109 19 l 2
 102 4 85 -2 61 -2 c 2
 21 -2 l 2
 -18 -2 -37 5 -37 18 c 0
 -37 24 -35 30 -31 38 c 2
 260 681 l 2
 267 697 290 702 319 702 c 2
327 515 m 1
 323 515 l 1
 317 494 310 471 301 451 c 2
 221 273 l 1
 375 273 l 1
 335 451 l 2
 330 472 328 494 327 515 c 1
EndSplineSet
Position2: "'cpsp' Capital Spacing lookup 0 subtable" dx=5 dy=0 dh=10 dv=0
EndChar

StartChar: Acircumflexacute
Encoding: 7844 7844 10
Width: 613
GlyphClass: 2
Flags: MW
HStem: 141 132<221 375 221 406 164 375> 682 20G<319 371 371 385.5> 749 146<219 363 225 363 352 423 352 445>
VStem: -37 646
AnchorPoint: "Anchor-1" 492 829 basechar 0
AnchorPoint: "Anchor-0" 301 0 basechar 0
LayerCount: 2
Fore
SplineSet
571 963 m 0
 596 963 609 958 609 940 c 0
 609 931 600 915 523 839 c 0
 514 831 500 824 465 824 c 0
 451 824 446 827 446 837 c 0
 446 846 456 863 493 936 c 0
 504 957 536 963 571 963 c 0
352 895 m 2
 363 895 l 2
 387 895 404 893 412 876 c 2
 461 774 l 2
 463 769 464 766 464 762 c 0
 464 754 458 749 445 749 c 2
 423 749 l 2
 393 749 364 751 359 773 c 2
 349 813 l 1
 318 774 l 2
 301 752 277 749 249 749 c 2
 225 749 l 2
 213 749 206 753 206 759 c 0
 206 763 208 768 213 774 c 2
 289 876 l 2
 302 894 323 895 352 895 c 2
319 702 m 2
 371 702 l 2
 400 702 422 697 426 681 c 2
 584 38 l 2
 585 35 587 24 587 21 c 0
 587 7 568 -2 533 -2 c 2
 489 -2 l 2
 459 -2 439 3 435 19 c 2
 406 141 l 1
 164 141 l 1
 109 19 l 2
 102 4 85 -2 61 -2 c 2
 21 -2 l 2
 -18 -2 -37 5 -37 18 c 0
 -37 24 -35 30 -31 38 c 2
 260 681 l 2
 267 697 290 702 319 702 c 2
327 515 m 1
 323 515 l 1
 317 494 310 471 301 451 c 2
 221 273 l 1
 375 273 l 1
 335 451 l 2
 330 472 328 494 327 515 c 1
EndSplineSet
Position2: "'cpsp' Capital Spacing lookup 0 subtable" dx=5 dy=0 dh=10 dv=0
EndChar

StartChar: Acircumflexdotbelow
Encoding: 7852 7852 11
Width: 613
GlyphClass: 2
Flags: MW
HStem: -204 124<269 297> 141 132<221 375 221 406 164 375> 682 20G<319 371 371 385.5> 749 146<222 366 228 366 355 441 355 463>
VStem: -37 624<14 21> 220 127<-182.5 -101.5>
AnchorPoint: "Anchor-1" 310 -82 basechar 0
AnchorPoint: "Anchor-0" 280 -203 basechar 0
LayerCount: 2
Fore
SplineSet
355 895 m 2x78
 366 895 l 2
 395 895 415 894 425 876 c 2
 479 774 l 2
 481 769 482 766 482 762 c 0
 482 754 476 749 463 749 c 2
 441 749 l 2
 411 749 389 754 377 773 c 2
 352 813 l 1
 321 774 l 2
 304 752 280 749 252 749 c 2
 228 749 l 2
 216 749 209 753 209 759 c 0
 209 763 211 768 216 774 c 2
 292 876 l 2
 305 894 326 895 355 895 c 2x78
319 702 m 2
 371 702 l 2
 400 702 422 697 426 681 c 2
 584 38 l 2
 585 35 587 24 587 21 c 0
 587 7 568 -2 533 -2 c 2
 489 -2 l 2
 459 -2 439 3 435 19 c 2
 406 141 l 1
 164 141 l 1
 109 19 l 2
 102 4 85 -2 61 -2 c 2
 21 -2 l 2
 -18 -2 -37 5 -37 18 c 0
 -37 24 -35 30 -31 38 c 2
 260 681 l 2
 267 697 290 702 319 702 c 2
327 515 m 1
 323 515 l 1
 317 494 310 471 301 451 c 2
 221 273 l 1
 375 273 l 1
 335 451 l 2
 330 472 328 494 327 515 c 1
290 -80 m 0xf4
 333 -80 347 -91 347 -112 c 2
 340 -172 l 2
 337 -193 317 -204 277 -204 c 0
 234 -204 220 -193 220 -172 c 2
 227 -112 l 2
 229 -91 248 -80 290 -80 c 0xf4
EndSplineSet
Position2: "'cpsp' Capital Spacing lookup 0 subtable" dx=5 dy=0 dh=10 dv=0
EndChar

StartChar: Acircumflexgrave
Encoding: 7846 7846 12
Width: 613
GlyphClass: 2
Flags: MW
HStem: 141 132<221 375 221 406 164 375> 682 20G<319 371 371 385.5> 749 146<219 363 225 363 352 423 352 445> 825 139<409 514>
VStem: -37 624<14 21>
AnchorPoint: "Anchor-1" 492 829 basechar 0
AnchorPoint: "Anchor-0" 301 0 basechar 0
LayerCount: 2
Fore
SplineSet
425 964 m 0xd8
 465 964 500 958 507 937 c 0
 527 872 535 850 535 841 c 0
 535 829 526 825 502 825 c 0
 465 825 452 838 443 850 c 0
 383 933 376 940 376 948 c 0
 376 961 393 964 425 964 c 0xd8
352 895 m 2xe8
 363 895 l 2
 387 895 404 893 412 876 c 2
 461 774 l 2
 463 769 464 766 464 762 c 0
 464 754 458 749 445 749 c 2
 423 749 l 2
 393 749 364 751 359 773 c 2
 349 813 l 1
 318 774 l 2
 301 752 277 749 249 749 c 2
 225 749 l 2
 213 749 206 753 206 759 c 0
 206 763 208 768 213 774 c 2
 289 876 l 2
 302 894 323 895 352 895 c 2xe8
319 702 m 2
 371 702 l 2
 400 702 422 697 426 681 c 2
 584 38 l 2
 585 35 587 24 587 21 c 0
 587 7 568 -2 533 -2 c 2
 489 -2 l 2
 459 -2 439 3 435 19 c 2
 406 141 l 1
 164 141 l 1
 109 19 l 2
 102 4 85 -2 61 -2 c 2
 21 -2 l 2
 -18 -2 -37 5 -37 18 c 0
 -37 24 -35 30 -31 38 c 2
 260 681 l 2
 267 697 290 702 319 702 c 2
327 515 m 1
 323 515 l 1
 317 494 310 471 301 451 c 2
 221 273 l 1
 375 273 l 1
 335 451 l 2
 330 472 328 494 327 515 c 1
EndSplineSet
Position2: "'cpsp' Capital Spacing lookup 0 subtable" dx=5 dy=0 dh=10 dv=0
EndChar

StartChar: Acircumflexhookabove
Encoding: 7848 7848 13
Width: 613
GlyphClass: 2
Flags: MW
HStem: 141 132<221 375 221 406 164 375> 682 20G<319 371 371 385.5> 749 146<219 363 225 363 352 423 352 445> 896 70<429 520>
VStem: 506 70<889 901.5>
AnchorPoint: "Anchor-1" 492 829 basechar 0
AnchorPoint: "Anchor-0" 301 0 basechar 0
LayerCount: 2
Fore
SplineSet
506 896 m 0
 506 907 496 913 485 913 c 0
 455 913 442 896 433 896 c 0
 425 896 408 923 408 938 c 0
 408 951 456 966 491 966 c 0
 549 966 576 940 576 900 c 0
 576 876 557 860 536 847 c 0
 523 839 499 826 492 826 c 0
 465 826 451 836 451 847 c 0
 451 855 462 863 472 867 c 0
 495 877 506 882 506 896 c 0
352 895 m 2xe8
 363 895 l 2
 387 895 404 893 412 876 c 2
 461 774 l 2
 463 769 464 766 464 762 c 0
 464 754 458 749 445 749 c 2
 423 749 l 2
 393 749 364 751 359 773 c 2
 349 813 l 1
 318 774 l 2
 301 752 277 749 249 749 c 2
 225 749 l 2
 213 749 206 753 206 759 c 0
 206 763 208 768 213 774 c 2
 289 876 l 2
 302 894 323 895 352 895 c 2xe8
319 702 m 2
 371 702 l 2
 400 702 422 697 426 681 c 2
 584 38 l 2
 585 35 587 24 587 21 c 0
 587 7 568 -2 533 -2 c 2
 489 -2 l 2
 459 -2 439 3 435 19 c 2
 406 141 l 1
 164 141 l 1
 109 19 l 2
 102 4 85 -2 61 -2 c 2
 21 -2 l 2
 -18 -2 -37 5 -37 18 c 0
 -37 24 -35 30 -31 38 c 2
 260 681 l 2
 267 697 290 702 319 702 c 2
327 515 m 1
 323 515 l 1
 317 494 310 471 301 451 c 2
 221 273 l 1
 375 273 l 1
 335 451 l 2
 330 472 328 494 327 515 c 1
EndSplineSet
Position2: "'cpsp' Capital Spacing lookup 0 subtable" dx=5 dy=0 dh=10 dv=0
EndChar

StartChar: Acircumflextilde
Encoding: 7850 7850 14
Width: 613
GlyphClass: 2
Flags: MW
HStem: 141 132<221 375 221 406 164 375> 682 20G<319 371 371 385.5> 749 122<232 370 359 445 359 467> 903 86<425.5 438.5> 915 100
VStem: -37 624<14 21>
AnchorPoint: "Anchor-1" 367 877 basechar 0
AnchorPoint: "Anchor-0" 301 0 basechar 0
LayerCount: 2
Fore
SplineSet
483 1004 m 0xf4
 495 1012 511 1013 523 996 c 0
 534 980 535 969 516 944 c 0
 493 919 457 903 420 903 c 0xf4
 391 903 373 908 355 915 c 0
 339 921 325 929 308 929 c 0
 288 929 275 922 262 915 c 0
 250 907 237 913 228 928 c 0
 218 944 217 961 229 974 c 0
 255 997 285 1015 322 1015 c 0xec
 350 1015 366 1010 385 1002 c 0
 401 995 417 989 434 989 c 0
 454 989 468 994 483 1004 c 0xf4
359 871 m 2xec
 370 871 l 2
 399 871 416 869 429 852 c 2
 483 774 l 2
 485 769 486 766 486 762 c 0
 486 754 480 749 467 749 c 2
 445 749 l 2
 415 749 401 760 381 773 c 1
 356 799 l 1
 325 774 l 1
 299 762 284 749 256 749 c 2
 232 749 l 2
 220 749 213 753 213 759 c 0
 213 763 215 768 220 774 c 2
 296 852 l 2
 313 868 330 871 359 871 c 2xec
319 702 m 2
 371 702 l 2
 400 702 422 697 426 681 c 2
 584 38 l 2
 585 35 587 24 587 21 c 0
 587 7 568 -2 533 -2 c 2
 489 -2 l 2
 459 -2 439 3 435 19 c 2
 406 141 l 1
 164 141 l 1
 109 19 l 2
 102 4 85 -2 61 -2 c 2
 21 -2 l 2
 -18 -2 -37 5 -37 18 c 0
 -37 24 -35 30 -31 38 c 2
 260 681 l 2
 267 697 290 702 319 702 c 2
327 515 m 1
 323 515 l 1
 317 494 310 471 301 451 c 2
 221 273 l 1
 375 273 l 1
 335 451 l 2
 330 472 328 494 327 515 c 1
EndSplineSet
Position2: "'cpsp' Capital Spacing lookup 0 subtable" dx=5 dy=0 dh=10 dv=0
EndChar

StartChar: Adieresis
Encoding: 196 196 15
Width: 613
GlyphClass: 2
Flags: MW
HStem: 141 132<221 375 221 406 164 375> 682 20G<319 371 371 385.5> 755 124<254 282 434 462>
VStem: 205 127<776.5 857.5> 385 127<776.5 857.5>
AnchorPoint: "Anchor-1" 368 877 basechar 0
AnchorPoint: "Anchor-0" 301 0 basechar 0
LayerCount: 2
Fore
SplineSet
275 879 m 0
 318 879 332 868 332 847 c 2
 325 787 l 2
 322 766 302 755 262 755 c 0
 219 755 205 766 205 787 c 2
 212 847 l 2
 214 868 233 879 275 879 c 0
455 879 m 0
 498 879 512 868 512 847 c 2
 505 787 l 2
 502 766 482 755 442 755 c 0
 399 755 385 766 385 787 c 2
 392 847 l 2
 394 868 413 879 455 879 c 0
319 702 m 2
 371 702 l 2
 400 702 422 697 426 681 c 2
 584 38 l 2
 585 35 587 24 587 21 c 0
 587 7 568 -2 533 -2 c 2
 489 -2 l 2
 459 -2 439 3 435 19 c 2
 406 141 l 1
 164 141 l 1
 109 19 l 2
 102 4 85 -2 61 -2 c 2
 21 -2 l 2
 -18 -2 -37 5 -37 18 c 0
 -37 24 -35 30 -31 38 c 2
 260 681 l 2
 267 697 290 702 319 702 c 2
327 515 m 1
 323 515 l 1
 317 494 310 471 301 451 c 2
 221 273 l 1
 375 273 l 1
 335 451 l 2
 330 472 328 494 327 515 c 1
EndSplineSet
Position2: "'cpsp' Capital Spacing lookup 0 subtable" dx=5 dy=0 dh=10 dv=0
EndChar

StartChar: Adotbelow
Encoding: 7840 7840 16
Width: 613
GlyphClass: 2
Flags: MW
HStem: -204 124<269 297> 141 132<221 375 221 406 164 375> 682 20G<319 371 371 385.5>
VStem: -37 624<14 21> 220 127<-182.5 -101.5>
AnchorPoint: "Anchor-1" 310 -82 basechar 0
AnchorPoint: "Anchor-0" 280 -203 basechar 0
LayerCount: 2
Fore
SplineSet
319 702 m 2x70
 371 702 l 2
 400 702 422 697 426 681 c 2
 584 38 l 2
 585 35 587 24 587 21 c 0
 587 7 568 -2 533 -2 c 2
 489 -2 l 2
 459 -2 439 3 435 19 c 2
 406 141 l 1
 164 141 l 1
 109 19 l 2
 102 4 85 -2 61 -2 c 2
 21 -2 l 2
 -18 -2 -37 5 -37 18 c 0
 -37 24 -35 30 -31 38 c 2
 260 681 l 2
 267 697 290 702 319 702 c 2x70
327 515 m 1
 323 515 l 1
 317 494 310 471 301 451 c 2
 221 273 l 1
 375 273 l 1
 335 451 l 2
 330 472 328 494 327 515 c 1
290 -80 m 0xe8
 333 -80 347 -91 347 -112 c 2
 340 -172 l 2
 337 -193 317 -204 277 -204 c 0
 234 -204 220 -193 220 -172 c 2
 227 -112 l 2
 229 -91 248 -80 290 -80 c 0xe8
EndSplineSet
Position2: "'cpsp' Capital Spacing lookup 0 subtable" dx=5 dy=0 dh=10 dv=0
EndChar

StartChar: Agrave
Encoding: 192 192 17
Width: 613
GlyphClass: 2
Flags: MW
HStem: 141 132<221 375 221 406 164 375> 682 20G<319 371 371 385.5> 752 159<254 389>
VStem: -37 624<14 21>
AnchorPoint: "Anchor-1" 363 877 basechar 0
AnchorPoint: "Anchor-0" 301 0 basechar 0
LayerCount: 2
Fore
SplineSet
275 911 m 0
 315 911 347 905 357 884 c 0
 394 805 410 779 410 768 c 0
 410 756 401 752 377 752 c 0
 330 752 315 765 305 777 c 0
 223 877 213 885 213 895 c 0
 213 908 233 911 275 911 c 0
319 702 m 2
 371 702 l 2
 400 702 422 697 426 681 c 2
 584 38 l 2
 585 35 587 24 587 21 c 0
 587 7 568 -2 533 -2 c 2
 489 -2 l 2
 459 -2 439 3 435 19 c 2
 406 141 l 1
 164 141 l 1
 109 19 l 2
 102 4 85 -2 61 -2 c 2
 21 -2 l 2
 -18 -2 -37 5 -37 18 c 0
 -37 24 -35 30 -31 38 c 2
 260 681 l 2
 267 697 290 702 319 702 c 2
327 515 m 1
 323 515 l 1
 317 494 310 471 301 451 c 2
 221 273 l 1
 375 273 l 1
 335 451 l 2
 330 472 328 494 327 515 c 1
EndSplineSet
Position2: "'cpsp' Capital Spacing lookup 0 subtable" dx=5 dy=0 dh=10 dv=0
EndChar

StartChar: Ahookabove
Encoding: 7842 7842 18
Width: 613
GlyphClass: 2
Flags: MW
HStem: 141 132<221 375 221 406 164 375> 682 20G<319 371 371 385.5> 867 61<352.5 365.5>
VStem: 388 87<828 852>
AnchorPoint: "Anchor-1" 363 877 basechar 0
AnchorPoint: "Anchor-0" 301 0 basechar 0
LayerCount: 2
Fore
SplineSet
388 845 m 0
 388 859 375 867 356 867 c 0
 334 867 321 855 312 855 c 0
 304 855 287 882 287 897 c 0
 287 910 335 928 370 928 c 0
 438 928 475 894 475 851 c 0
 475 799 389 747 373 747 c 0
 335 747 316 758 316 768 c 0
 316 790 388 811 388 845 c 0
319 702 m 2
 371 702 l 2
 400 702 422 697 426 681 c 2
 584 38 l 2
 585 35 587 24 587 21 c 0
 587 7 568 -2 533 -2 c 2
 489 -2 l 2
 459 -2 439 3 435 19 c 2
 406 141 l 1
 164 141 l 1
 109 19 l 2
 102 4 85 -2 61 -2 c 2
 21 -2 l 2
 -18 -2 -37 5 -37 18 c 0
 -37 24 -35 30 -31 38 c 2
 260 681 l 2
 267 697 290 702 319 702 c 2
327 515 m 1
 323 515 l 1
 317 494 310 471 301 451 c 2
 221 273 l 1
 375 273 l 1
 335 451 l 2
 330 472 328 494 327 515 c 1
EndSplineSet
Position2: "'cpsp' Capital Spacing lookup 0 subtable" dx=5 dy=0 dh=10 dv=0
EndChar

StartChar: Amacron
Encoding: 256 256 19
Width: 613
GlyphClass: 2
Flags: MW
HStem: 141 132<221 375 221 406 164 375> 682 20G<319 371 371 385.5> 774 95<239 475 259 464>
VStem: -37 624<14 21>
AnchorPoint: "Anchor-1" 374 877 basechar 0
AnchorPoint: "Anchor-0" 301 0 basechar 0
LayerCount: 2
Fore
SplineSet
259 869 m 2
 475 869 l 2
 492 869 501 859 501 839 c 0
 501 818 497 774 464 774 c 2
 248 774 l 2
 230 774 222 783 222 804 c 0
 222 825 225 869 259 869 c 2
319 702 m 2
 371 702 l 2
 400 702 422 697 426 681 c 2
 584 38 l 2
 585 35 587 24 587 21 c 0
 587 7 568 -2 533 -2 c 2
 489 -2 l 2
 459 -2 439 3 435 19 c 2
 406 141 l 1
 164 141 l 1
 109 19 l 2
 102 4 85 -2 61 -2 c 2
 21 -2 l 2
 -18 -2 -37 5 -37 18 c 0
 -37 24 -35 30 -31 38 c 2
 260 681 l 2
 267 697 290 702 319 702 c 2
327 515 m 1
 323 515 l 1
 317 494 310 471 301 451 c 2
 221 273 l 1
 375 273 l 1
 335 451 l 2
 330 472 328 494 327 515 c 1
EndSplineSet
Position2: "'cpsp' Capital Spacing lookup 0 subtable" dx=5 dy=0 dh=10 dv=0
EndChar

StartChar: Aogonek
Encoding: 260 260 20
Width: 613
GlyphClass: 2
Flags: MW
HStem: -183 70<581 593> 141 132<221 375 221 406 164 375> 682 20G<319 371 371 385.5>
VStem: 465 69<-90 -81.5>
AnchorPoint: "Anchor-1" 345 700 basechar 0
AnchorPoint: "Anchor-0" 508 -203 basechar 0
LayerCount: 2
Fore
SplineSet
650 -99 m 0
 659 -99 661 -107 661 -129 c 0
 661 -171 613 -183 573 -183 c 0
 479 -183 465 -127 465 -94 c 0
 465 -69 474 -25 497 -2 c 1
 489 -2 l 2
 459 -2 439 3 435 19 c 2
 406 141 l 1
 164 141 l 1
 109 19 l 2
 102 4 85 -2 61 -2 c 2
 21 -2 l 2
 -18 -2 -37 5 -37 18 c 0
 -37 24 -35 30 -31 38 c 2
 260 681 l 2
 267 697 290 702 319 702 c 2
 371 702 l 2
 400 702 422 697 426 681 c 2
 584 38 l 2
 585 35 587 24 587 21 c 0
 587 10 575 2 552 -1 c 1
 552 -3 l 2
 552 -20 534 -34 534 -70 c 0
 534 -110 570 -113 592 -113 c 0
 622 -113 641 -99 650 -99 c 0
375 273 m 1
 335 451 l 2
 330 472 328 494 327 515 c 1
 323 515 l 1
 317 494 310 471 301 451 c 2
 221 273 l 1
 375 273 l 1
EndSplineSet
Position2: "'cpsp' Capital Spacing lookup 0 subtable" dx=5 dy=0 dh=10 dv=0
EndChar

StartChar: Aring
Encoding: 197 197 21
Width: 613
GlyphClass: 2
Flags: MW
HStem: 141 132<221 375 221 406 164 375> 682 20G<319 371 371 385.5> 727 62<345.5 365.5 345.5 383> 862 64<351.5 371.5>
VStem: 258 64<812 832 812 846.5> 395 63<817.5 837.5>
AnchorPoint: "Anchor-1" 369 877 basechar 0
AnchorPoint: "Anchor-0" 301 0 basechar 0
LayerCount: 2
Fore
SplineSet
369 926 m 0
 421 926 458 888 458 837 c 0
 458 776 418 727 348 727 c 0xfc
 295 727 258 765 258 816 c 0
 258 877 301 926 369 926 c 0
362 862 m 0
 341 862 322 843 322 821 c 0
 322 803 336 789 355 789 c 0xfc
 376 789 395 807 395 828 c 0
 395 847 381 862 362 862 c 0
319 702 m 2
 371 702 l 2
 400 702 422 697 426 681 c 2
 584 38 l 2
 585 35 587 24 587 21 c 0
 587 7 568 -2 533 -2 c 2
 489 -2 l 2
 459 -2 439 3 435 19 c 2
 406 141 l 1
 164 141 l 1
 109 19 l 2
 102 4 85 -2 61 -2 c 2
 21 -2 l 2
 -18 -2 -37 5 -37 18 c 0
 -37 24 -35 30 -31 38 c 2
 260 681 l 2
 267 697 290 702 319 702 c 2
327 515 m 1
 323 515 l 1
 317 494 310 471 301 451 c 2
 221 273 l 1
 375 273 l 1
 335 451 l 2
 330 472 328 494 327 515 c 1
EndSplineSet
Position2: "'cpsp' Capital Spacing lookup 0 subtable" dx=5 dy=0 dh=10 dv=0
EndChar

StartChar: Aringacute
Encoding: 506 506 22
Width: 613
GlyphClass: 2
Flags: MW
HStem: 141 132<221 375 221 406 164 375> 732 64<338.5 358.5> 812 119<330 469>
VStem: 245 64<682 702 682 716.5> 382 63<697 707.5>
AnchorPoint: "Anchor-1" 356 747 basechar 0
AnchorPoint: "Anchor-0" 0 0 basechar 0
LayerCount: 2
Fore
SplineSet
342 812 m 0
 318 812 311 816 312 827 c 1
 332 864 344 881 361 904 c 0
 376 925 409 931 449 931 c 0
 489 931 509 928 508 917 c 0
 507 909 502 907 419 837 c 0
 407 825 389 812 342 812 c 0
433 653 m 1
 584 38 l 2
 585 35 587 24 587 21 c 0
 587 7 568 -2 533 -2 c 2
 489 -2 l 2
 459 -2 439 3 435 19 c 2
 406 141 l 1
 164 141 l 1
 109 19 l 2
 102 4 85 -2 61 -2 c 2
 21 -2 l 2
 -18 -2 -37 5 -37 18 c 0
 -37 24 -35 30 -31 38 c 2
 249 657 l 1
 246 666 245 676 245 686 c 0
 245 747 288 796 356 796 c 0
 408 796 445 758 445 707 c 0xf8
 445 687 441 669 433 653 c 1
349 732 m 0
 328 732 309 713 309 691 c 0
 309 673 323 659 342 659 c 0
 363 659 382 677 382 698 c 0
 382 717 368 732 349 732 c 0
375 273 m 1
 335 451 l 2
 330 472 328 494 327 515 c 1
 323 515 l 1
 317 494 310 471 301 451 c 2
 221 273 l 1
 375 273 l 1
EndSplineSet
Position2: "'cpsp' Capital Spacing lookup 0 subtable" dx=5 dy=0 dh=10 dv=0
EndChar

StartChar: Atilde
Encoding: 195 195 23
Width: 613
GlyphClass: 2
Flags: MW
HStem: 141 132<221 375 221 406 164 375> 682 20G<319 371 371 385.5> 758 86<412.5 426.5> 770 100
VStem: -37 624<14 21>
AnchorPoint: "Anchor-1" 369 877 basechar 0
AnchorPoint: "Anchor-0" 301 0 basechar 0
LayerCount: 2
Fore
SplineSet
476 859 m 0xe8
 489 867 507 868 520 851 c 0
 532 835 533 824 512 799 c 0
 487 774 447 758 406 758 c 0xe8
 375 758 355 763 335 770 c 0
 317 776 302 784 283 784 c 0
 261 784 247 777 233 770 c 0
 219 762 205 768 195 783 c 0
 184 799 183 816 196 829 c 0
 225 852 258 870 299 870 c 0xd8
 329 870 347 865 368 857 c 0
 386 850 403 844 422 844 c 0
 444 844 459 849 476 859 c 0xe8
319 702 m 2xd8
 371 702 l 2
 400 702 422 697 426 681 c 2
 584 38 l 2
 585 35 587 24 587 21 c 0
 587 7 568 -2 533 -2 c 2
 489 -2 l 2
 459 -2 439 3 435 19 c 2
 406 141 l 1
 164 141 l 1
 109 19 l 2
 102 4 85 -2 61 -2 c 2
 21 -2 l 2
 -18 -2 -37 5 -37 18 c 0
 -37 24 -35 30 -31 38 c 2
 260 681 l 2
 267 697 290 702 319 702 c 2xd8
327 515 m 1
 323 515 l 1
 317 494 310 471 301 451 c 2
 221 273 l 1
 375 273 l 1
 335 451 l 2
 330 472 328 494 327 515 c 1
EndSplineSet
Position2: "'cpsp' Capital Spacing lookup 0 subtable" dx=5 dy=0 dh=10 dv=0
EndChar

StartChar: AE
Encoding: 198 198 24
Width: 915
GlyphClass: 2
Flags: MW
HStem: 0 131<456 813 579 801> 141 132<262 416 262 426 183 416> 293 131<565 804 565 565> 569 131<540 860 540 540>
VStem: 406 140
AnchorPoint: "Anchor-1" 458 700 basechar 0
AnchorPoint: "Anchor-0" 0 0 basechar 0
LayerCount: 2
Fore
SplineSet
406 700 m 2
 872 700 l 2
 890 700 898 688 898 660 c 0
 898 608 889 569 860 569 c 2
 540 569 l 1
 552 424 l 1
 816 424 l 2
 834 424 842 412 842 384 c 0
 842 332 833 293 804 293 c 2
 565 293 l 1
 579 131 l 1
 813 131 l 2
 831 131 839 119 839 91 c 0
 839 39 830 0 801 0 c 2
 467 0 l 2
 445 0 437 9 435 30 c 2xb8
 426 141 l 1
 183 141 l 1xf8
 110 19 l 2
 101 5 86 -2 62 -2 c 2
 25 -2 l 2
 1 -2 -35 0 -35 20 c 0
 -35 25 -32 31 -27 38 c 2
 360 673 l 2
 372 692 385 700 406 700 c 2
406 537 m 1
 370 455 l 1
 262 273 l 1
 416 273 l 1xf8
 402 454 l 1
 410 537 l 1
 406 537 l 1
EndSplineSet
Position2: "'cpsp' Capital Spacing lookup 0 subtable" dx=5 dy=0 dh=10 dv=0
EndChar

StartChar: AEacute
Encoding: 508 508 25
Width: 915
GlyphClass: 2
Flags: MW
HStem: 0 131<456 813 579 801> 141 132<262 416 262 426 183 416> 293 131<565 804 565 565> 569 131<540 860 540 540> 752 159<419 585>
VStem: 406 140
AnchorPoint: "Anchor-1" 494 877 basechar 0
AnchorPoint: "Anchor-0" 0 0 basechar 0
LayerCount: 2
Fore
SplineSet
566 911 m 0
 604 911 624 908 624 898 c 0
 624 885 620 887 508 777 c 0
 496 765 477 752 430 752 c 0
 408 752 401 755 401 765 c 0
 401 776 420 796 478 884 c 0
 492 905 526 911 566 911 c 0
406 700 m 2
 872 700 l 2
 890 700 898 688 898 660 c 0
 898 608 889 569 860 569 c 2
 540 569 l 1
 552 424 l 1
 816 424 l 2
 834 424 842 412 842 384 c 0
 842 332 833 293 804 293 c 2
 565 293 l 1
 579 131 l 1
 813 131 l 2
 831 131 839 119 839 91 c 0
 839 39 830 0 801 0 c 2
 467 0 l 2
 445 0 437 9 435 30 c 2xbc
 426 141 l 1
 183 141 l 1xfc
 110 19 l 2
 101 5 86 -2 62 -2 c 2
 25 -2 l 2
 1 -2 -35 0 -35 20 c 0
 -35 25 -32 31 -27 38 c 2
 360 673 l 2
 372 692 385 700 406 700 c 2
406 537 m 1
 370 455 l 1
 262 273 l 1
 416 273 l 1xfc
 402 454 l 1
 410 537 l 1
 406 537 l 1
EndSplineSet
Position2: "'cpsp' Capital Spacing lookup 0 subtable" dx=5 dy=0 dh=10 dv=0
EndChar

StartChar: B
Encoding: 66 66 26
Width: 593
GlyphClass: 2
Flags: MW
HStem: 0 131<62.5 301 203 288> 290 131<220 303 234 302> 570 130<250 250 250 321>
VStem: 402 158<192 244> 404 162<506.5 528>
LayerCount: 2
Fore
SplineSet
149 700 m 2xf0
 347 700 l 2
 503 700 566 638 566 546 c 0xe8
 566 467 512 400 441 371 c 1
 441 367 l 1
 514 352 560 290 560 220 c 0
 560 80 458 0 288 0 c 2
 76 0 l 2
 49 0 40 8 40 32 c 0
 40 41 44 69 105 660 c 0
 108 688 121 700 149 700 c 2xf0
250 570 m 1
 234 421 l 1
 303 421 l 2
 368 421 404 460 404 507 c 0
 404 549 377 570 321 570 c 2
 250 570 l 1
220 290 m 1
 203 131 l 1
 301 131 l 2
 361 131 402 163 402 221 c 0
 402 267 367 290 302 290 c 2xf0
 220 290 l 1
EndSplineSet
Position2: "'cpsp' Capital Spacing lookup 0 subtable" dx=5 dy=0 dh=10 dv=0
EndChar

StartChar: C
Encoding: 67 67 27
Width: 619
GlyphClass: 2
Flags: MW
HStem: -8 131<300.5 361.5> 576 132<336 447.5>
VStem: 42 159<240.5 390.5 240.5 391>
AnchorPoint: "Anchor-1" 399 700 basechar 0
AnchorPoint: "Anchor-0" 310 0 basechar 0
LayerCount: 2
Fore
SplineSet
417 708 m 0
 503 708 619 681 619 640 c 0
 619 613 569 544 544 544 c 0
 532 544 495 576 400 576 c 0
 272 576 201 483 201 298 c 0
 201 183 250 123 351 123 c 0
 464 123 538 178 552 178 c 0
 558 178 564 176 564 163 c 0
 564 156 563 116 554 68 c 0
 542 6 386 -8 337 -8 c 0
 137 -8 42 82 42 276 c 0
 42 506 133 708 417 708 c 0
EndSplineSet
Position2: "'cpsp' Capital Spacing lookup 0 subtable" dx=5 dy=0 dh=10 dv=0
EndChar

StartChar: Cacute
Encoding: 262 262 28
Width: 619
GlyphClass: 2
Flags: MW
HStem: -8 131<300.5 361.5> 576 132<336 447.5> 752 159<360 526>
VStem: 42 159<240.5 390.5 240.5 391>
AnchorPoint: "Anchor-1" 435 877 basechar 0
AnchorPoint: "Anchor-0" 310 0 basechar 0
LayerCount: 2
Fore
SplineSet
507 911 m 0
 545 911 565 908 565 898 c 0
 565 885 561 887 449 777 c 0
 437 765 418 752 371 752 c 0
 349 752 342 755 342 765 c 0
 342 776 361 796 419 884 c 0
 433 905 467 911 507 911 c 0
417 708 m 0
 503 708 619 681 619 640 c 0
 619 613 569 544 544 544 c 0
 532 544 495 576 400 576 c 0
 272 576 201 483 201 298 c 0
 201 183 250 123 351 123 c 0
 464 123 538 178 552 178 c 0
 558 178 564 176 564 163 c 0
 564 156 563 116 554 68 c 0
 542 6 386 -8 337 -8 c 0
 137 -8 42 82 42 276 c 0
 42 506 133 708 417 708 c 0
EndSplineSet
Substitution2: "'locl' Localized Forms in Latin lookup 11 subtable" Cacute.loclPLK
Substitution2: "'aalt' Access All Alternates lookup 0 subtable" Cacute.loclPLK
Position2: "'cpsp' Capital Spacing lookup 0 subtable" dx=5 dy=0 dh=10 dv=0
EndChar

StartChar: Ccaron
Encoding: 268 268 29
Width: 619
GlyphClass: 2
Flags: MW
HStem: -8 131<300.5 361.5> 576 132<336 447.5> 749 146<298 395 298 406>
VStem: 42 159<240.5 390.5 240.5 391>
AnchorPoint: "Anchor-1" 420 877 basechar 0
AnchorPoint: "Anchor-0" 310 0 basechar 0
LayerCount: 2
Fore
SplineSet
509 895 m 2
 533 895 l 2
 545 895 552 891 552 885 c 0
 552 881 550 876 545 870 c 2
 469 768 l 2
 456 750 435 749 406 749 c 2
 395 749 l 2
 366 749 346 750 336 768 c 2
 282 870 l 2
 280 875 279 878 279 882 c 0
 279 890 285 895 298 895 c 2
 320 895 l 2
 349 895 372 889 384 871 c 2
 409 831 l 1
 440 870 l 2
 457 892 481 894 509 895 c 2
417 708 m 0
 503 708 619 681 619 640 c 0
 619 613 569 544 544 544 c 0
 532 544 495 576 400 576 c 0
 272 576 201 483 201 298 c 0
 201 183 250 123 351 123 c 0
 464 123 538 178 552 178 c 0
 558 178 564 176 564 163 c 0
 564 156 563 116 554 68 c 0
 542 6 386 -8 337 -8 c 0
 137 -8 42 82 42 276 c 0
 42 506 133 708 417 708 c 0
EndSplineSet
Position2: "'cpsp' Capital Spacing lookup 0 subtable" dx=5 dy=0 dh=10 dv=0
EndChar

StartChar: Ccedilla
Encoding: 199 199 30
Width: 619
GlyphClass: 2
Flags: MW
HStem: -212 73<256.5 280 248 311> -8 131<341 341> 576 132<336 447.5>
VStem: 42 159<240.5 390.5 240.5 391> 296 104
AnchorPoint: "Anchor-1" 399 700 basechar 0
AnchorPoint: "Anchor-0" 269 -203 basechar 0
LayerCount: 2
Fore
SplineSet
400 576 m 0
 272 576 201 483 201 298 c 0
 201 183 250 123 351 123 c 0
 464 123 538 178 552 178 c 0
 558 178 564 176 564 163 c 0
 564 156 563 116 554 68 c 0
 542 8 394 -7 341 -8 c 1
 330 -35 l 1
 362 -41 400 -63 400 -110 c 0
 400 -177 351 -212 271 -212 c 0
 242 -212 168 -207 168 -160 c 0
 168 -120 176 -112 182 -112 c 0
 194 -112 225 -139 271 -139 c 0
 289 -139 295 -133 296 -122 c 0
 295 -98 248 -98 248 -74 c 0
 248 -70 249 -65 275 -5 c 1
 117 13 42 103 42 276 c 0
 42 506 133 708 417 708 c 0
 503 708 619 681 619 640 c 0
 619 613 569 544 544 544 c 0
 532 544 495 576 400 576 c 0
EndSplineSet
Position2: "'cpsp' Capital Spacing lookup 0 subtable" dx=5 dy=0 dh=10 dv=0
EndChar

StartChar: Ccircumflex
Encoding: 264 264 31
Width: 619
GlyphClass: 2
Flags: MW
HStem: -8 131<300.5 361.5> 576 132<336 447.5> 749 146<276 420 282 420 409 495 409 517>
VStem: 42 159<240.5 390.5 240.5 391>
AnchorPoint: "Anchor-1" 594 774 basechar 0
AnchorPoint: "Anchor-0" 310 0 basechar 0
LayerCount: 2
Fore
SplineSet
409 895 m 2
 420 895 l 2
 449 895 469 894 479 876 c 2
 533 774 l 2
 535 769 536 766 536 762 c 0
 536 754 530 749 517 749 c 2
 495 749 l 2
 465 749 443 754 431 773 c 2
 406 813 l 1
 375 774 l 2
 358 752 334 749 306 749 c 2
 282 749 l 2
 270 749 263 753 263 759 c 0
 263 763 265 768 270 774 c 2
 346 876 l 2
 359 894 380 895 409 895 c 2
417 708 m 0
 503 708 619 681 619 640 c 0
 619 613 569 544 544 544 c 0
 532 544 495 576 400 576 c 0
 272 576 201 483 201 298 c 0
 201 183 250 123 351 123 c 0
 464 123 538 178 552 178 c 0
 558 178 564 176 564 163 c 0
 564 156 563 116 554 68 c 0
 542 6 386 -8 337 -8 c 0
 137 -8 42 82 42 276 c 0
 42 506 133 708 417 708 c 0
EndSplineSet
Position2: "'cpsp' Capital Spacing lookup 0 subtable" dx=5 dy=0 dh=10 dv=0
EndChar

StartChar: Cdotaccent
Encoding: 266 266 32
Width: 619
GlyphClass: 2
Flags: MW
HStem: -8 131<300.5 361.5> 576 132<336 447.5> 755 124<384 412>
VStem: 42 159<240.5 390.5 240.5 391> 335 127<776.5 857.5>
AnchorPoint: "Anchor-1" 425 877 basechar 0
AnchorPoint: "Anchor-0" 310 0 basechar 0
LayerCount: 2
Fore
SplineSet
405 879 m 0
 448 879 462 868 462 847 c 2
 455 787 l 2
 452 766 432 755 392 755 c 0
 349 755 335 766 335 787 c 2
 342 847 l 2
 344 868 363 879 405 879 c 0
417 708 m 0
 503 708 619 681 619 640 c 0
 619 613 569 544 544 544 c 0
 532 544 495 576 400 576 c 0
 272 576 201 483 201 298 c 0
 201 183 250 123 351 123 c 0
 464 123 538 178 552 178 c 0
 558 178 564 176 564 163 c 0
 564 156 563 116 554 68 c 0
 542 6 386 -8 337 -8 c 0
 137 -8 42 82 42 276 c 0
 42 506 133 708 417 708 c 0
EndSplineSet
Position2: "'cpsp' Capital Spacing lookup 0 subtable" dx=5 dy=0 dh=10 dv=0
EndChar

StartChar: D
Encoding: 68 68 33
Width: 695
GlyphClass: 2
Flags: MW
HStem: 0 131<62.5 313 204 300> 569 131<251 251 251 360>
VStem: 501 159<311 453>
AnchorPoint: "Anchor-1" 348 700 basechar 0
AnchorPoint: "Anchor-0" 291 0 basechar 0
LayerCount: 2
Fore
SplineSet
149 700 m 2
 373 700 l 2
 560 700 660 598 660 411 c 0
 660 146 519 0 300 0 c 2
 76 0 l 2
 49 0 40 9 40 33 c 0
 40 45 83 451 105 660 c 0
 108 688 121 700 149 700 c 2
251 569 m 1
 204 131 l 1
 313 131 l 2
 428 131 501 225 501 397 c 0
 501 509 454 569 360 569 c 2
 251 569 l 1
EndSplineSet
Position2: "'cpsp' Capital Spacing lookup 0 subtable" dx=5 dy=0 dh=10 dv=0
EndChar

StartChar: DZ
Encoding: 497 497 34
Width: 1311
GlyphClass: 2
Flags: MW
HStem: 0 131<62.5 313 204 300 914 1207> 569 131<251 251 251 360 814 1080>
VStem: 501 159<311 453>
AnchorPoint: "Anchor-1" 1027 700 basechar 0
AnchorPoint: "Anchor-0" 968 0 basechar 0
LayerCount: 2
Fore
SplineSet
149 700 m 2
 373 700 l 2
 560 700 660 598 660 411 c 0
 660 146 519 0 300 0 c 2
 76 0 l 2
 49 0 40 9 40 33 c 0
 40 45 83 451 105 660 c 0
 108 688 121 700 149 700 c 2
814 700 m 2
 1267 700 l 2
 1286 700 1299 641 1299 613 c 0
 1299 605 1298 600 1296 598 c 2
 914 131 l 1
 1219 131 l 2
 1237 131 1245 119 1245 91 c 0
 1245 39 1236 0 1207 0 c 2
 728 0 l 2
 709 0 696 59 696 87 c 0
 696 95 697 100 699 102 c 2
 1080 569 l 1
 802 569 l 2
 784 569 776 581 776 609 c 0
 776 661 785 700 814 700 c 2
251 569 m 1
 204 131 l 1
 313 131 l 2
 428 131 501 225 501 397 c 0
 501 509 454 569 360 569 c 2
 251 569 l 1
EndSplineSet
Position2: "'cpsp' Capital Spacing lookup 0 subtable" dx=5 dy=0 dh=10 dv=0
EndChar

StartChar: DZcaron
Encoding: 452 452 35
Width: 1311
GlyphClass: 2
Flags: MW
HStem: 0 131<62.5 313 204 300 914 1207> 569 131<251 251 251 360 814 1080> 749 146<926 1023 926 1034>
VStem: 501 159<311 453>
AnchorPoint: "Anchor-1" 1048 877 basechar 0
AnchorPoint: "Anchor-0" 968 0 basechar 0
LayerCount: 2
Fore
SplineSet
1137 895 m 2
 1161 895 l 2
 1173 895 1180 891 1180 885 c 0
 1180 881 1178 876 1173 870 c 2
 1097 768 l 2
 1084 750 1063 749 1034 749 c 2
 1023 749 l 2
 994 749 974 750 964 768 c 2
 910 870 l 2
 908 875 907 878 907 882 c 0
 907 890 913 895 926 895 c 2
 948 895 l 2
 977 895 1000 889 1012 871 c 2
 1037 831 l 1
 1068 870 l 2
 1085 892 1109 894 1137 895 c 2
149 700 m 2
 373 700 l 2
 560 700 660 598 660 411 c 0
 660 146 519 0 300 0 c 2
 76 0 l 2
 49 0 40 9 40 33 c 0
 40 45 83 451 105 660 c 0
 108 688 121 700 149 700 c 2
814 700 m 2
 1267 700 l 2
 1286 700 1299 641 1299 613 c 0
 1299 605 1298 600 1296 598 c 2
 914 131 l 1
 1219 131 l 2
 1237 131 1245 119 1245 91 c 0
 1245 39 1236 0 1207 0 c 2
 728 0 l 2
 709 0 696 59 696 87 c 0
 696 95 697 100 699 102 c 2
 1080 569 l 1
 802 569 l 2
 784 569 776 581 776 609 c 0
 776 661 785 700 814 700 c 2
251 569 m 1
 204 131 l 1
 313 131 l 2
 428 131 501 225 501 397 c 0
 501 509 454 569 360 569 c 2
 251 569 l 1
EndSplineSet
Position2: "'cpsp' Capital Spacing lookup 0 subtable" dx=5 dy=0 dh=10 dv=0
EndChar

StartChar: Eth
Encoding: 208 208 36
Width: 696
GlyphClass: 2
Flags: MW
HStem: 0 131<62.5 313 204 300> 290 131<26 80 47 66 235 280> 569 131<251 360 251 251>
VStem: 501 159<311 453>
AnchorPoint: "Anchor-1" 348 700 basechar 0
AnchorPoint: "Anchor-0" 291 0 basechar 0
LayerCount: 2
Fore
SplineSet
149 700 m 2
 373 700 l 2
 560 700 660 598 660 411 c 0
 660 146 519 0 300 0 c 2
 76 0 l 2
 49 0 40 9 40 33 c 0
 40 39 52 153 66 290 c 1
 35 290 l 2
 17 290 9 302 9 330 c 0
 9 382 18 421 47 421 c 2
 80 421 l 1
 105 660 l 2
 108 688 121 700 149 700 c 2
204 131 m 1
 313 131 l 2
 428 131 501 225 501 397 c 0
 501 509 454 569 360 569 c 2
 251 569 l 1
 235 421 l 1
 292 421 l 2
 310 421 318 409 318 381 c 0
 318 329 309 290 280 290 c 2
 221 290 l 1
 204 131 l 1
EndSplineSet
Position2: "'cpsp' Capital Spacing lookup 0 subtable" dx=5 dy=0 dh=10 dv=0
EndChar

StartChar: Dcaron
Encoding: 270 270 37
Width: 695
GlyphClass: 2
Flags: MW
HStem: 0 131<62.5 313 204 300> 569 131<251 251 251 360> 749 146<247 344 247 355>
VStem: 501 159<311 453>
AnchorPoint: "Anchor-1" 369 877 basechar 0
AnchorPoint: "Anchor-0" 291 0 basechar 0
LayerCount: 2
Fore
SplineSet
458 895 m 2
 482 895 l 2
 494 895 501 891 501 885 c 0
 501 881 499 876 494 870 c 2
 418 768 l 2
 405 750 384 749 355 749 c 2
 344 749 l 2
 315 749 295 750 285 768 c 2
 231 870 l 2
 229 875 228 878 228 882 c 0
 228 890 234 895 247 895 c 2
 269 895 l 2
 298 895 321 889 333 871 c 2
 358 831 l 1
 389 870 l 2
 406 892 430 894 458 895 c 2
149 700 m 2
 373 700 l 2
 560 700 660 598 660 411 c 0
 660 146 519 0 300 0 c 2
 76 0 l 2
 49 0 40 9 40 33 c 0
 40 45 83 451 105 660 c 0
 108 688 121 700 149 700 c 2
251 569 m 1
 204 131 l 1
 313 131 l 2
 428 131 501 225 501 397 c 0
 501 509 454 569 360 569 c 2
 251 569 l 1
EndSplineSet
Position2: "'cpsp' Capital Spacing lookup 0 subtable" dx=5 dy=0 dh=10 dv=0
EndChar

StartChar: Dcroat
Encoding: 272 272 38
Width: 696
GlyphClass: 2
Flags: MW
HStem: 0 131<62.5 313 204 300> 290 131<26 80 47 66 235 280> 569 131<251 360 251 251>
VStem: 501 159<311 453>
AnchorPoint: "Anchor-1" 348 700 basechar 0
AnchorPoint: "Anchor-0" 291 0 basechar 0
LayerCount: 2
Fore
SplineSet
149 700 m 2
 373 700 l 2
 560 700 660 598 660 411 c 0
 660 146 519 0 300 0 c 2
 76 0 l 2
 49 0 40 9 40 33 c 0
 40 39 52 153 66 290 c 1
 35 290 l 2
 17 290 9 302 9 330 c 0
 9 382 18 421 47 421 c 2
 80 421 l 1
 105 660 l 2
 108 688 121 700 149 700 c 2
204 131 m 1
 313 131 l 2
 428 131 501 225 501 397 c 0
 501 509 454 569 360 569 c 2
 251 569 l 1
 235 421 l 1
 292 421 l 2
 310 421 318 409 318 381 c 0
 318 329 309 290 280 290 c 2
 221 290 l 1
 204 131 l 1
EndSplineSet
Position2: "'cpsp' Capital Spacing lookup 0 subtable" dx=5 dy=0 dh=10 dv=0
EndChar

StartChar: Ddotbelow
Encoding: 7692 7692 39
Width: 695
GlyphClass: 2
Flags: MW
HStem: -204 124<259 287> 0 131<62.5 313 204 300> 569 131<251 251 251 360>
VStem: 210 127<-182.5 -101.5> 501 159<311 453>
AnchorPoint: "Anchor-1" 300 -82 basechar 0
AnchorPoint: "Anchor-0" 270 -203 basechar 0
LayerCount: 2
Fore
SplineSet
149 700 m 2
 373 700 l 2
 560 700 660 598 660 411 c 0
 660 146 519 0 300 0 c 2
 76 0 l 2
 49 0 40 9 40 33 c 0
 40 45 83 451 105 660 c 0
 108 688 121 700 149 700 c 2
251 569 m 1
 204 131 l 1
 313 131 l 2
 428 131 501 225 501 397 c 0
 501 509 454 569 360 569 c 2
 251 569 l 1
280 -80 m 0
 323 -80 337 -91 337 -112 c 2
 330 -172 l 2
 327 -193 307 -204 267 -204 c 0
 224 -204 210 -193 210 -172 c 2
 217 -112 l 2
 219 -91 238 -80 280 -80 c 0
EndSplineSet
Position2: "'cpsp' Capital Spacing lookup 0 subtable" dx=5 dy=0 dh=10 dv=0
EndChar

StartChar: Dz
Encoding: 498 498 40
Width: 1184
GlyphClass: 2
Flags: MW
HStem: 0 117<902 1097> 406 117<770 1143 791 967> 569 131<251 251 251 360>
VStem: 501 159<311 453>
AnchorPoint: "Anchor-1" 980 523 basechar 0
AnchorPoint: "Anchor-0" 906 0 basechar 0
LayerCount: 2
Fore
SplineSet
149 700 m 2
 373 700 l 2
 560 700 660 598 660 411 c 0
 660 146 519 0 300 0 c 2
 76 0 l 2
 49 0 40 9 40 33 c 0
 40 45 83 451 105 660 c 0
 108 688 121 700 149 700 c 2
251 569 m 1
 204 131 l 1
 313 131 l 2
 428 131 501 225 501 397 c 0
 501 509 454 569 360 569 c 2
 251 569 l 1
791 523 m 2
 1143 523 l 2
 1156 523 1167 477 1167 450 c 0
 1167 441 1166 434 1163 431 c 2
 902 117 l 1
 1109 117 l 2
 1127 117 1135 106 1135 81 c 0
 1135 35 1126 0 1097 0 c 2
 726 0 l 2
 713 0 702 46 702 73 c 0
 702 82 703 89 706 92 c 2
 967 406 l 1
 779 406 l 2
 761 406 753 417 753 442 c 0
 753 488 762 523 791 523 c 2
EndSplineSet
Position2: "'cpsp' Capital Spacing lookup 0 subtable" dx=5 dy=0 dh=10 dv=0
EndChar

StartChar: Dzcaron
Encoding: 453 453 41
Width: 1184
GlyphClass: 2
Flags: MW
HStem: 0 117<902 1097> 406 117<770 1143 791 967> 569 131<251 251 251 360> 572 146<879 976 879 987>
VStem: 501 159<311 453>
AnchorPoint: "Anchor-1" 1001 700 basechar 0
AnchorPoint: "Anchor-0" 906 0 basechar 0
LayerCount: 2
Fore
SplineSet
1090 718 m 2xd8
 1114 718 l 2
 1126 718 1133 714 1133 708 c 0
 1133 704 1131 699 1126 693 c 2
 1050 591 l 2
 1037 573 1016 572 987 572 c 2
 976 572 l 2
 947 572 927 573 917 591 c 2
 863 693 l 2
 861 698 860 701 860 705 c 0
 860 713 866 718 879 718 c 2
 901 718 l 2
 930 718 953 712 965 694 c 2
 990 654 l 1
 1021 693 l 2
 1038 715 1062 717 1090 718 c 2xd8
149 700 m 2xe8
 373 700 l 2
 560 700 660 598 660 411 c 0
 660 146 519 0 300 0 c 2
 76 0 l 2
 49 0 40 9 40 33 c 0
 40 45 83 451 105 660 c 0
 108 688 121 700 149 700 c 2xe8
251 569 m 1
 204 131 l 1
 313 131 l 2
 428 131 501 225 501 397 c 0
 501 509 454 569 360 569 c 2
 251 569 l 1
791 523 m 2
 1143 523 l 2
 1156 523 1167 477 1167 450 c 0
 1167 441 1166 434 1163 431 c 2
 902 117 l 1
 1109 117 l 2
 1127 117 1135 106 1135 81 c 0
 1135 35 1126 0 1097 0 c 2
 726 0 l 2
 713 0 702 46 702 73 c 0
 702 82 703 89 706 92 c 2
 967 406 l 1
 779 406 l 2
 761 406 753 417 753 442 c 0
 753 488 762 523 791 523 c 2
EndSplineSet
Position2: "'cpsp' Capital Spacing lookup 0 subtable" dx=5 dy=0 dh=10 dv=0
EndChar

StartChar: E
Encoding: 69 69 42
Width: 546
GlyphClass: 2
Flags: MW
HStem: 0 131<62.5 456 204 444> 293 131<235 447 222 459> 569 131<251 503 251 251> 660 40
VStem: 40 501
AnchorPoint: "Anchor-1" 328 700 basechar 0
AnchorPoint: "Anchor-0" 253 0 basechar 0
LayerCount: 2
Fore
SplineSet
149 700 m 2xe8
 515 700 l 2
 533 700 541 688 541 660 c 0
 541 608 532 569 503 569 c 2
 251 569 l 1xe8
 235 424 l 1
 459 424 l 2
 477 424 485 412 485 384 c 0
 485 332 476 293 447 293 c 2
 222 293 l 1
 204 131 l 1
 456 131 l 2
 474 131 482 119 482 91 c 0
 482 39 473 0 444 0 c 2
 76 0 l 2
 49 0 40 8 40 32 c 0xd8
 40 38 105 660 105 660 c 2
 108 688 121 700 149 700 c 2xe8
EndSplineSet
Position2: "'cpsp' Capital Spacing lookup 0 subtable" dx=5 dy=0 dh=10 dv=0
EndChar

StartChar: Eacute
Encoding: 201 201 43
Width: 546
GlyphClass: 2
Flags: MW
HStem: 0 131<62.5 456 204 444> 293 131<235 447 222 459> 569 131<251 503 251 251> 660 40 752 159<289 455>
VStem: 40 501
AnchorPoint: "Anchor-1" 364 877 basechar 0
AnchorPoint: "Anchor-0" 253 0 basechar 0
LayerCount: 2
Fore
SplineSet
436 911 m 0xec
 474 911 494 908 494 898 c 0
 494 885 490 887 378 777 c 0
 366 765 347 752 300 752 c 0
 278 752 271 755 271 765 c 0
 271 776 290 796 348 884 c 0
 362 905 396 911 436 911 c 0xec
149 700 m 2
 515 700 l 2
 533 700 541 688 541 660 c 0
 541 608 532 569 503 569 c 2
 251 569 l 1xec
 235 424 l 1
 459 424 l 2
 477 424 485 412 485 384 c 0
 485 332 476 293 447 293 c 2
 222 293 l 1
 204 131 l 1
 456 131 l 2
 474 131 482 119 482 91 c 0
 482 39 473 0 444 0 c 2
 76 0 l 2
 49 0 40 8 40 32 c 0xdc
 40 38 105 660 105 660 c 2
 108 688 121 700 149 700 c 2
EndSplineSet
Position2: "'cpsp' Capital Spacing lookup 0 subtable" dx=5 dy=0 dh=10 dv=0
EndChar

StartChar: Ebreve
Encoding: 276 276 44
Width: 546
GlyphClass: 2
Flags: MW
HStem: 0 131<62.5 456 204 444> 293 131<235 447 222 459> 569 131<251 503 251 251> 660 40 752 91<315.5 370 315.5 374>
VStem: 40 501
AnchorPoint: "Anchor-1" 347 863 basechar 0
AnchorPoint: "Anchor-0" 253 0 basechar 0
LayerCount: 2
Fore
SplineSet
458 892 m 0xec
 478 892 490 883 490 868 c 0
 490 809 417 752 331 752 c 0
 248 752 195 801 195 855 c 0
 195 879 207 892 234 892 c 0
 251 892 257 884 265 874 c 0
 276 860 290 843 341 843 c 0
 399 843 413 865 429 879 c 0
 436 886 444 892 458 892 c 0xec
149 700 m 2
 515 700 l 2
 533 700 541 688 541 660 c 0
 541 608 532 569 503 569 c 2
 251 569 l 1xec
 235 424 l 1
 459 424 l 2
 477 424 485 412 485 384 c 0
 485 332 476 293 447 293 c 2
 222 293 l 1
 204 131 l 1
 456 131 l 2
 474 131 482 119 482 91 c 0
 482 39 473 0 444 0 c 2
 76 0 l 2
 49 0 40 8 40 32 c 0xdc
 40 38 105 660 105 660 c 2
 108 688 121 700 149 700 c 2
EndSplineSet
Position2: "'cpsp' Capital Spacing lookup 0 subtable" dx=5 dy=0 dh=10 dv=0
EndChar

StartChar: Ecaron
Encoding: 282 282 45
Width: 546
GlyphClass: 2
Flags: MW
HStem: 0 131<62.5 456 204 444> 293 131<235 447 222 459> 569 131<251 503 251 251> 660 40 749 146<227 324 227 335>
VStem: 40 501
AnchorPoint: "Anchor-1" 349 877 basechar 0
AnchorPoint: "Anchor-0" 253 0 basechar 0
LayerCount: 2
Fore
SplineSet
438 895 m 2xec
 462 895 l 2
 474 895 481 891 481 885 c 0
 481 881 479 876 474 870 c 2
 398 768 l 2
 385 750 364 749 335 749 c 2
 324 749 l 2
 295 749 275 750 265 768 c 2
 211 870 l 2
 209 875 208 878 208 882 c 0
 208 890 214 895 227 895 c 2
 249 895 l 2
 278 895 301 889 313 871 c 2
 338 831 l 1
 369 870 l 2
 386 892 410 894 438 895 c 2xec
149 700 m 2
 515 700 l 2
 533 700 541 688 541 660 c 0
 541 608 532 569 503 569 c 2
 251 569 l 1xec
 235 424 l 1
 459 424 l 2
 477 424 485 412 485 384 c 0
 485 332 476 293 447 293 c 2
 222 293 l 1
 204 131 l 1
 456 131 l 2
 474 131 482 119 482 91 c 0
 482 39 473 0 444 0 c 2
 76 0 l 2
 49 0 40 8 40 32 c 0xdc
 40 38 105 660 105 660 c 2
 108 688 121 700 149 700 c 2
EndSplineSet
Position2: "'cpsp' Capital Spacing lookup 0 subtable" dx=5 dy=0 dh=10 dv=0
EndChar

StartChar: Ecircumflex
Encoding: 202 202 46
Width: 546
GlyphClass: 2
Flags: MW
HStem: 0 131<62.5 456 204 444> 293 131<235 447 222 459> 569 131<251 503 251 251> 660 40 749 146<205 349 211 349 338 424 338 446>
VStem: 40 501
AnchorPoint: "Anchor-1" 523 774 basechar 0
AnchorPoint: "Anchor-0" 253 0 basechar 0
LayerCount: 2
Fore
SplineSet
338 895 m 2xec
 349 895 l 2
 378 895 398 894 408 876 c 2
 462 774 l 2
 464 769 465 766 465 762 c 0
 465 754 459 749 446 749 c 2
 424 749 l 2
 394 749 372 754 360 773 c 2
 335 813 l 1
 304 774 l 2
 287 752 263 749 235 749 c 2
 211 749 l 2
 199 749 192 753 192 759 c 0
 192 763 194 768 199 774 c 2
 275 876 l 2
 288 894 309 895 338 895 c 2xec
149 700 m 2
 515 700 l 2
 533 700 541 688 541 660 c 0
 541 608 532 569 503 569 c 2
 251 569 l 1xec
 235 424 l 1
 459 424 l 2
 477 424 485 412 485 384 c 0
 485 332 476 293 447 293 c 2
 222 293 l 1
 204 131 l 1
 456 131 l 2
 474 131 482 119 482 91 c 0
 482 39 473 0 444 0 c 2
 76 0 l 2
 49 0 40 8 40 32 c 0xdc
 40 38 105 660 105 660 c 2
 108 688 121 700 149 700 c 2
EndSplineSet
Position2: "'cpsp' Capital Spacing lookup 0 subtable" dx=5 dy=0 dh=10 dv=0
EndChar

StartChar: Ecircumflexacute
Encoding: 7870 7870 47
Width: 546
GlyphClass: 2
Flags: MW
HStem: 0 131<62.5 456 204 444> 293 131<235 447 222 459> 569 131<251 503 251 251> 660 40 749 146<202 346 208 346 335 406 335 428>
VStem: 40 552
AnchorPoint: "Anchor-1" 475 829 basechar 0
AnchorPoint: "Anchor-0" 253 0 basechar 0
LayerCount: 2
Fore
SplineSet
554 963 m 0xec
 579 963 592 958 592 940 c 0
 592 931 583 915 506 839 c 0
 497 831 483 824 448 824 c 0
 434 824 429 827 429 837 c 0
 429 846 439 863 476 936 c 0
 487 957 519 963 554 963 c 0xec
335 895 m 2
 346 895 l 2
 370 895 387 893 395 876 c 2
 444 774 l 2
 446 769 447 766 447 762 c 0
 447 754 441 749 428 749 c 2
 406 749 l 2
 376 749 347 751 342 773 c 2
 332 813 l 1
 301 774 l 2
 284 752 260 749 232 749 c 2
 208 749 l 2
 196 749 189 753 189 759 c 0
 189 763 191 768 196 774 c 2
 272 876 l 2
 285 894 306 895 335 895 c 2
149 700 m 2
 515 700 l 2
 533 700 541 688 541 660 c 0
 541 608 532 569 503 569 c 2
 251 569 l 1xec
 235 424 l 1
 459 424 l 2
 477 424 485 412 485 384 c 0
 485 332 476 293 447 293 c 2
 222 293 l 1
 204 131 l 1
 456 131 l 2
 474 131 482 119 482 91 c 0
 482 39 473 0 444 0 c 2
 76 0 l 2
 49 0 40 8 40 32 c 0xdc
 40 38 105 660 105 660 c 2
 108 688 121 700 149 700 c 2
EndSplineSet
Position2: "'cpsp' Capital Spacing lookup 0 subtable" dx=5 dy=0 dh=10 dv=0
EndChar

StartChar: Ecircumflexdotbelow
Encoding: 7878 7878 48
Width: 546
GlyphClass: 2
Flags: MW
HStem: -204 124<221 249> 0 131<62.5 456 204 444> 293 131<235 447 222 459> 569 131<251 503 251 251> 660 40 749 146<205 349 211 349 338 424 338 446>
VStem: 40 501 172 127<-182.5 -101.5>
AnchorPoint: "Anchor-1" 262 -82 basechar 0
AnchorPoint: "Anchor-0" 232 -203 basechar 0
LayerCount: 2
Fore
SplineSet
338 895 m 2x76
 349 895 l 2
 378 895 398 894 408 876 c 2
 462 774 l 2
 464 769 465 766 465 762 c 0
 465 754 459 749 446 749 c 2
 424 749 l 2
 394 749 372 754 360 773 c 2
 335 813 l 1
 304 774 l 2
 287 752 263 749 235 749 c 2
 211 749 l 2
 199 749 192 753 192 759 c 0
 192 763 194 768 199 774 c 2
 275 876 l 2
 288 894 309 895 338 895 c 2x76
149 700 m 2
 515 700 l 2
 533 700 541 688 541 660 c 0
 541 608 532 569 503 569 c 2
 251 569 l 1x76
 235 424 l 1
 459 424 l 2
 477 424 485 412 485 384 c 0
 485 332 476 293 447 293 c 2
 222 293 l 1
 204 131 l 1
 456 131 l 2
 474 131 482 119 482 91 c 0
 482 39 473 0 444 0 c 2
 76 0 l 2
 49 0 40 8 40 32 c 0x6e
 40 38 105 660 105 660 c 2
 108 688 121 700 149 700 c 2
242 -80 m 0xf5
 285 -80 299 -91 299 -112 c 2
 292 -172 l 2
 289 -193 269 -204 229 -204 c 0
 186 -204 172 -193 172 -172 c 2
 179 -112 l 2
 181 -91 200 -80 242 -80 c 0xf5
EndSplineSet
Position2: "'cpsp' Capital Spacing lookup 0 subtable" dx=5 dy=0 dh=10 dv=0
EndChar

StartChar: Ecircumflexgrave
Encoding: 7872 7872 49
Width: 546
GlyphClass: 2
Flags: MW
HStem: 0 131<62.5 456 204 444> 293 131<235 447 222 459> 569 131<251 503 251 251> 660 40 749 146<202 346 208 346 335 406 335 428> 825 139<392 497>
VStem: 40 501
AnchorPoint: "Anchor-1" 475 829 basechar 0
AnchorPoint: "Anchor-0" 253 0 basechar 0
LayerCount: 2
Fore
SplineSet
408 964 m 0xe6
 448 964 483 958 490 937 c 0
 510 872 518 850 518 841 c 0
 518 829 509 825 485 825 c 0
 448 825 435 838 426 850 c 0
 366 933 359 940 359 948 c 0
 359 961 376 964 408 964 c 0xe6
335 895 m 2xea
 346 895 l 2
 370 895 387 893 395 876 c 2
 444 774 l 2
 446 769 447 766 447 762 c 0
 447 754 441 749 428 749 c 2
 406 749 l 2
 376 749 347 751 342 773 c 2
 332 813 l 1
 301 774 l 2
 284 752 260 749 232 749 c 2
 208 749 l 2
 196 749 189 753 189 759 c 0
 189 763 191 768 196 774 c 2
 272 876 l 2
 285 894 306 895 335 895 c 2xea
149 700 m 2
 515 700 l 2
 533 700 541 688 541 660 c 0
 541 608 532 569 503 569 c 2
 251 569 l 1xe6
 235 424 l 1
 459 424 l 2
 477 424 485 412 485 384 c 0
 485 332 476 293 447 293 c 2
 222 293 l 1
 204 131 l 1
 456 131 l 2
 474 131 482 119 482 91 c 0
 482 39 473 0 444 0 c 2
 76 0 l 2
 49 0 40 8 40 32 c 0xd6
 40 38 105 660 105 660 c 2
 108 688 121 700 149 700 c 2
EndSplineSet
Position2: "'cpsp' Capital Spacing lookup 0 subtable" dx=5 dy=0 dh=10 dv=0
EndChar

StartChar: Ecircumflexhookabove
Encoding: 7874 7874 50
Width: 546
GlyphClass: 2
Flags: MW
HStem: 0 131<62.5 456 204 444> 293 131<235 447 222 459> 569 131<251 503 251 251> 660 40 749 146<202 346 208 346 335 406 335 428> 896 70<412 503>
VStem: 489 70<889 901.5>
AnchorPoint: "Anchor-1" 475 829 basechar 0
AnchorPoint: "Anchor-0" 253 0 basechar 0
LayerCount: 2
Fore
SplineSet
489 896 m 0xe6
 489 907 479 913 468 913 c 0
 438 913 425 896 416 896 c 0
 408 896 391 923 391 938 c 0
 391 951 439 966 474 966 c 0
 532 966 559 940 559 900 c 0
 559 876 540 860 519 847 c 0
 506 839 482 826 475 826 c 0
 448 826 434 836 434 847 c 0
 434 855 445 863 455 867 c 0
 478 877 489 882 489 896 c 0xe6
335 895 m 2xea
 346 895 l 2
 370 895 387 893 395 876 c 2
 444 774 l 2
 446 769 447 766 447 762 c 0
 447 754 441 749 428 749 c 2
 406 749 l 2
 376 749 347 751 342 773 c 2
 332 813 l 1
 301 774 l 2
 284 752 260 749 232 749 c 2
 208 749 l 2
 196 749 189 753 189 759 c 0
 189 763 191 768 196 774 c 2
 272 876 l 2
 285 894 306 895 335 895 c 2xea
149 700 m 2
 515 700 l 2
 533 700 541 688 541 660 c 0
 541 608 532 569 503 569 c 2
 251 569 l 1xe6
 235 424 l 1
 459 424 l 2
 477 424 485 412 485 384 c 0
 485 332 476 293 447 293 c 2
 222 293 l 1
 204 131 l 1
 456 131 l 2
 474 131 482 119 482 91 c 0
 482 39 473 0 444 0 c 2
 76 0 l 2
 49 0 40 8 40 32 c 0xd6
 40 38 105 660 105 660 c 2
 108 688 121 700 149 700 c 2
EndSplineSet
Position2: "'cpsp' Capital Spacing lookup 0 subtable" dx=5 dy=0 dh=10 dv=0
EndChar

StartChar: Ecircumflextilde
Encoding: 7876 7876 51
Width: 546
GlyphClass: 2
Flags: MW
HStem: 0 131<62.5 456 204 444> 293 131<235 447 222 459> 569 131<251 503 251 251> 660 40 749 122<215 353 342 428 342 450> 903 86<408.5 421.5> 915 100
VStem: 40 501
AnchorPoint: "Anchor-1" 350 877 basechar 0
AnchorPoint: "Anchor-0" 253 0 basechar 0
LayerCount: 2
Fore
SplineSet
466 1004 m 0xed
 478 1012 494 1013 506 996 c 0
 517 980 518 969 499 944 c 0
 476 919 440 903 403 903 c 0xed
 374 903 356 908 338 915 c 0
 322 921 308 929 291 929 c 0
 271 929 258 922 245 915 c 0
 233 907 220 913 211 928 c 0
 201 944 200 961 212 974 c 0
 238 997 268 1015 305 1015 c 0xeb
 333 1015 349 1010 368 1002 c 0
 384 995 400 989 417 989 c 0
 437 989 451 994 466 1004 c 0xed
342 871 m 2xeb
 353 871 l 2
 382 871 399 869 412 852 c 2
 466 774 l 2
 468 769 469 766 469 762 c 0
 469 754 463 749 450 749 c 2
 428 749 l 2
 398 749 384 760 364 773 c 1
 339 799 l 1
 308 774 l 1
 282 762 267 749 239 749 c 2
 215 749 l 2
 203 749 196 753 196 759 c 0
 196 763 198 768 203 774 c 2
 279 852 l 2
 296 868 313 871 342 871 c 2xeb
149 700 m 2
 515 700 l 2
 533 700 541 688 541 660 c 0
 541 608 532 569 503 569 c 2
 251 569 l 1xeb
 235 424 l 1
 459 424 l 2
 477 424 485 412 485 384 c 0
 485 332 476 293 447 293 c 2
 222 293 l 1
 204 131 l 1
 456 131 l 2
 474 131 482 119 482 91 c 0
 482 39 473 0 444 0 c 2
 76 0 l 2
 49 0 40 8 40 32 c 0xdb
 40 38 105 660 105 660 c 2
 108 688 121 700 149 700 c 2
EndSplineSet
Position2: "'cpsp' Capital Spacing lookup 0 subtable" dx=5 dy=0 dh=10 dv=0
EndChar

StartChar: Edieresis
Encoding: 203 203 52
Width: 546
GlyphClass: 2
Flags: MW
HStem: 0 131<62.5 456 204 444> 293 131<235 447 222 459> 569 131<251 503 251 251> 660 40 755 124<237 265 417 445>
VStem: 40 501 188 127<776.5 857.5> 368 127<776.5 857.5>
AnchorPoint: "Anchor-1" 351 877 basechar 0
AnchorPoint: "Anchor-0" 253 0 basechar 0
LayerCount: 2
Fore
SplineSet
258 879 m 0xeb
 301 879 315 868 315 847 c 2
 308 787 l 2
 305 766 285 755 245 755 c 0
 202 755 188 766 188 787 c 2
 195 847 l 2
 197 868 216 879 258 879 c 0xeb
438 879 m 0
 481 879 495 868 495 847 c 2
 488 787 l 2
 485 766 465 755 425 755 c 0
 382 755 368 766 368 787 c 2
 375 847 l 2
 377 868 396 879 438 879 c 0
149 700 m 2
 515 700 l 2
 533 700 541 688 541 660 c 0
 541 608 532 569 503 569 c 2
 251 569 l 1xe4
 235 424 l 1
 459 424 l 2
 477 424 485 412 485 384 c 0
 485 332 476 293 447 293 c 2
 222 293 l 1
 204 131 l 1
 456 131 l 2
 474 131 482 119 482 91 c 0
 482 39 473 0 444 0 c 2
 76 0 l 2
 49 0 40 8 40 32 c 0xd4
 40 38 105 660 105 660 c 2
 108 688 121 700 149 700 c 2
EndSplineSet
Position2: "'cpsp' Capital Spacing lookup 0 subtable" dx=5 dy=0 dh=10 dv=0
EndChar

StartChar: Edotaccent
Encoding: 278 278 53
Width: 546
GlyphClass: 2
Flags: MW
HStem: 0 131<62.5 456 204 444> 293 131<235 447 222 459> 569 131<251 503 251 251> 660 40 755 124<313 341>
VStem: 40 501 264 127<776.5 857.5>
AnchorPoint: "Anchor-1" 354 877 basechar 0
AnchorPoint: "Anchor-0" 253 0 basechar 0
LayerCount: 2
Fore
SplineSet
334 879 m 0xea
 377 879 391 868 391 847 c 2
 384 787 l 2
 381 766 361 755 321 755 c 0
 278 755 264 766 264 787 c 2
 271 847 l 2
 273 868 292 879 334 879 c 0xea
149 700 m 2
 515 700 l 2
 533 700 541 688 541 660 c 0
 541 608 532 569 503 569 c 2
 251 569 l 1xe4
 235 424 l 1
 459 424 l 2
 477 424 485 412 485 384 c 0
 485 332 476 293 447 293 c 2
 222 293 l 1
 204 131 l 1
 456 131 l 2
 474 131 482 119 482 91 c 0
 482 39 473 0 444 0 c 2
 76 0 l 2
 49 0 40 8 40 32 c 0xd4
 40 38 105 660 105 660 c 2
 108 688 121 700 149 700 c 2
EndSplineSet
Position2: "'cpsp' Capital Spacing lookup 0 subtable" dx=5 dy=0 dh=10 dv=0
EndChar

StartChar: Edotbelow
Encoding: 7864 7864 54
Width: 546
GlyphClass: 2
Flags: MW
HStem: -204 124<221 249> 0 131<62.5 456 204 444> 293 131<235 447 222 459> 569 131<251 503 251 251> 660 40
VStem: 40 501 172 127<-182.5 -101.5>
AnchorPoint: "Anchor-1" 262 -82 basechar 0
AnchorPoint: "Anchor-0" 232 -203 basechar 0
LayerCount: 2
Fore
SplineSet
149 700 m 2x74
 515 700 l 2
 533 700 541 688 541 660 c 0
 541 608 532 569 503 569 c 2
 251 569 l 1x74
 235 424 l 1
 459 424 l 2
 477 424 485 412 485 384 c 0
 485 332 476 293 447 293 c 2
 222 293 l 1
 204 131 l 1
 456 131 l 2
 474 131 482 119 482 91 c 0
 482 39 473 0 444 0 c 2
 76 0 l 2
 49 0 40 8 40 32 c 0x6c
 40 38 105 660 105 660 c 2
 108 688 121 700 149 700 c 2x74
242 -80 m 0xf2
 285 -80 299 -91 299 -112 c 2
 292 -172 l 2
 289 -193 269 -204 229 -204 c 0
 186 -204 172 -193 172 -172 c 2
 179 -112 l 2
 181 -91 200 -80 242 -80 c 0xf2
EndSplineSet
Position2: "'cpsp' Capital Spacing lookup 0 subtable" dx=5 dy=0 dh=10 dv=0
EndChar

StartChar: Egrave
Encoding: 200 200 55
Width: 546
GlyphClass: 2
Flags: MW
HStem: 0 131<62.5 456 204 444> 293 131<235 447 222 459> 569 131<251 503 251 251> 660 40 752 159<237 372>
VStem: 40 501
AnchorPoint: "Anchor-1" 346 877 basechar 0
AnchorPoint: "Anchor-0" 253 0 basechar 0
LayerCount: 2
Fore
SplineSet
258 911 m 0xec
 298 911 330 905 340 884 c 0
 377 805 393 779 393 768 c 0
 393 756 384 752 360 752 c 0
 313 752 298 765 288 777 c 0
 206 877 196 885 196 895 c 0
 196 908 216 911 258 911 c 0xec
149 700 m 2
 515 700 l 2
 533 700 541 688 541 660 c 0
 541 608 532 569 503 569 c 2
 251 569 l 1xec
 235 424 l 1
 459 424 l 2
 477 424 485 412 485 384 c 0
 485 332 476 293 447 293 c 2
 222 293 l 1
 204 131 l 1
 456 131 l 2
 474 131 482 119 482 91 c 0
 482 39 473 0 444 0 c 2
 76 0 l 2
 49 0 40 8 40 32 c 0xdc
 40 38 105 660 105 660 c 2
 108 688 121 700 149 700 c 2
EndSplineSet
Position2: "'cpsp' Capital Spacing lookup 0 subtable" dx=5 dy=0 dh=10 dv=0
EndChar

StartChar: Ehookabove
Encoding: 7866 7866 56
Width: 546
GlyphClass: 2
Flags: MW
HStem: 0 131<62.5 456 204 444> 293 131<235 447 222 459> 569 131<251 503 251 251> 660 40 867 61<335.5 348.5>
VStem: 371 87<828 852>
AnchorPoint: "Anchor-1" 346 877 basechar 0
AnchorPoint: "Anchor-0" 253 0 basechar 0
LayerCount: 2
Fore
SplineSet
371 845 m 0xec
 371 859 358 867 339 867 c 0
 317 867 304 855 295 855 c 0
 287 855 270 882 270 897 c 0
 270 910 318 928 353 928 c 0
 421 928 458 894 458 851 c 0
 458 799 372 747 356 747 c 0
 318 747 299 758 299 768 c 0
 299 790 371 811 371 845 c 0xec
149 700 m 2
 515 700 l 2
 533 700 541 688 541 660 c 0
 541 608 532 569 503 569 c 2
 251 569 l 1xec
 235 424 l 1
 459 424 l 2
 477 424 485 412 485 384 c 0
 485 332 476 293 447 293 c 2
 222 293 l 1
 204 131 l 1
 456 131 l 2
 474 131 482 119 482 91 c 0
 482 39 473 0 444 0 c 2
 76 0 l 2
 49 0 40 8 40 32 c 0xdc
 40 38 105 660 105 660 c 2
 108 688 121 700 149 700 c 2
EndSplineSet
Position2: "'cpsp' Capital Spacing lookup 0 subtable" dx=5 dy=0 dh=10 dv=0
EndChar

StartChar: Emacron
Encoding: 274 274 57
Width: 546
GlyphClass: 2
Flags: MW
HStem: 0 131<62.5 456 204 444> 293 131<235 447 222 459> 569 131<251 503 251 251> 660 40 774 95<222 458 242 447>
VStem: 40 501
AnchorPoint: "Anchor-1" 357 877 basechar 0
AnchorPoint: "Anchor-0" 253 0 basechar 0
LayerCount: 2
Fore
SplineSet
242 869 m 2xec
 458 869 l 2
 475 869 484 859 484 839 c 0
 484 818 480 774 447 774 c 2
 231 774 l 2
 213 774 205 783 205 804 c 0
 205 825 208 869 242 869 c 2xec
149 700 m 2
 515 700 l 2
 533 700 541 688 541 660 c 0
 541 608 532 569 503 569 c 2
 251 569 l 1xec
 235 424 l 1
 459 424 l 2
 477 424 485 412 485 384 c 0
 485 332 476 293 447 293 c 2
 222 293 l 1
 204 131 l 1
 456 131 l 2
 474 131 482 119 482 91 c 0
 482 39 473 0 444 0 c 2
 76 0 l 2
 49 0 40 8 40 32 c 0xdc
 40 38 105 660 105 660 c 2
 108 688 121 700 149 700 c 2
EndSplineSet
Position2: "'cpsp' Capital Spacing lookup 0 subtable" dx=5 dy=0 dh=10 dv=0
EndChar

StartChar: Eogonek
Encoding: 280 280 58
Width: 546
GlyphClass: 2
Flags: MW
HStem: -183 70<473 485> 0 131<62.5 456 204 391 444 456 456 458.5> 293 131<235 447 222 459> 569 131<251 503 251 251> 660 40
VStem: 357 69<-90 -81>
AnchorPoint: "Anchor-1" 328 700 basechar 0
AnchorPoint: "Anchor-0" 400 -203 basechar 0
LayerCount: 2
Fore
SplineSet
542 -99 m 0xf4
 551 -99 553 -107 553 -129 c 0
 553 -171 505 -183 465 -183 c 0
 371 -183 357 -127 357 -94 c 0
 357 -68 366 -23 391 0 c 1
 76 0 l 2
 49 0 40 8 40 32 c 0xec
 40 38 105 660 105 660 c 2
 108 688 121 700 149 700 c 2
 515 700 l 2
 533 700 541 688 541 660 c 0
 541 608 532 569 503 569 c 2
 251 569 l 1
 235 424 l 1
 459 424 l 2
 477 424 485 412 485 384 c 0
 485 332 476 293 447 293 c 2
 222 293 l 1
 204 131 l 1
 456 131 l 2
 474 131 482 119 482 91 c 0
 482 39 473 0 444 0 c 1
 444 -3 l 2
 444 -20 426 -34 426 -70 c 0
 426 -110 462 -113 484 -113 c 0
 514 -113 533 -99 542 -99 c 0xf4
EndSplineSet
Position2: "'cpsp' Capital Spacing lookup 0 subtable" dx=5 dy=0 dh=10 dv=0
EndChar

StartChar: Etilde
Encoding: 7868 7868 59
Width: 546
GlyphClass: 2
Flags: MW
HStem: 0 131<62.5 456 204 444> 293 131<235 447 222 459> 569 131<251 503 251 251> 660 40 758 86<395.5 409.5> 770 100
VStem: 40 501
AnchorPoint: "Anchor-1" 352 877 basechar 0
AnchorPoint: "Anchor-0" 253 0 basechar 0
LayerCount: 2
Fore
SplineSet
459 859 m 0xea
 472 867 490 868 503 851 c 0
 515 835 516 824 495 799 c 0
 470 774 430 758 389 758 c 0xea
 358 758 338 763 318 770 c 0
 300 776 285 784 266 784 c 0
 244 784 230 777 216 770 c 0
 202 762 188 768 178 783 c 0
 167 799 166 816 179 829 c 0
 208 852 241 870 282 870 c 0xe6
 312 870 330 865 351 857 c 0
 369 850 386 844 405 844 c 0
 427 844 442 849 459 859 c 0xea
149 700 m 2xe6
 515 700 l 2
 533 700 541 688 541 660 c 0
 541 608 532 569 503 569 c 2
 251 569 l 1xe6
 235 424 l 1
 459 424 l 2
 477 424 485 412 485 384 c 0
 485 332 476 293 447 293 c 2
 222 293 l 1
 204 131 l 1
 456 131 l 2
 474 131 482 119 482 91 c 0
 482 39 473 0 444 0 c 2
 76 0 l 2
 49 0 40 8 40 32 c 0xd6
 40 38 105 660 105 660 c 2
 108 688 121 700 149 700 c 2xe6
EndSplineSet
Position2: "'cpsp' Capital Spacing lookup 0 subtable" dx=5 dy=0 dh=10 dv=0
EndChar

StartChar: F
Encoding: 70 70 60
Width: 503
GlyphClass: 2
Flags: MW
HStem: 292 131<238 439 225 451> 569 131<254 475 254 254>
VStem: 42 471
LayerCount: 2
Fore
SplineSet
152 700 m 2
 487 700 l 2
 505 700 513 688 513 660 c 0
 513 608 504 569 475 569 c 2
 254 569 l 1
 238 423 l 1
 451 423 l 2
 469 423 477 411 477 383 c 0
 477 331 468 292 439 292 c 2
 225 292 l 1
 197 30 l 2
 195 9 173 -2 134 -2 c 2
 99 -2 l 2
 82 -2 42 0 42 29 c 2
 108 660 l 2
 111 688 124 700 152 700 c 2
EndSplineSet
Position2: "'cpsp' Capital Spacing lookup 0 subtable" dx=5 dy=0 dh=10 dv=0
EndChar

StartChar: G
Encoding: 71 71 61
Width: 672
GlyphClass: 2
Flags: MW
HStem: -8 131<299.5 364 299.5 371> 258 131<346 571 367 442> 576 132<335 447>
VStem: 41 159<240.5 390.5 240.5 420.5>
AnchorPoint: "Anchor-1" 397 700 basechar 0
AnchorPoint: "Anchor-0" 336 0 basechar 0
LayerCount: 2
Fore
SplineSet
416 708 m 0
 502 708 619 681 619 640 c 0
 619 613 569 544 544 544 c 0
 532 544 495 576 399 576 c 0
 271 576 200 483 200 298 c 0
 200 183 249 123 350 123 c 0
 378 123 401 125 428 130 c 1
 442 258 l 1
 355 258 l 2
 337 258 329 270 329 298 c 0
 329 350 338 389 367 389 c 2
 571 389 l 2
 598 389 608 381 608 358 c 0
 608 350 587 167 577 71 c 0
 569 2 406 -8 336 -8 c 0
 136 -8 41 82 41 276 c 0
 41 565 175 708 416 708 c 0
EndSplineSet
Position2: "'cpsp' Capital Spacing lookup 0 subtable" dx=5 dy=0 dh=10 dv=0
EndChar

StartChar: Gbreve
Encoding: 286 286 62
Width: 672
GlyphClass: 2
Flags: MW
HStem: -8 131<299.5 364 299.5 371> 258 131<346 571 367 442> 576 132<335 447> 752 91<384.5 439 384.5 443>
VStem: 41 159<240.5 390.5 240.5 420.5>
AnchorPoint: "Anchor-1" 416 863 basechar 0
AnchorPoint: "Anchor-0" 336 0 basechar 0
LayerCount: 2
Fore
SplineSet
527 892 m 0
 547 892 559 883 559 868 c 0
 559 809 486 752 400 752 c 0
 317 752 264 801 264 855 c 0
 264 879 276 892 303 892 c 0
 320 892 326 884 334 874 c 0
 345 860 359 843 410 843 c 0
 468 843 482 865 498 879 c 0
 505 886 513 892 527 892 c 0
416 708 m 0
 502 708 619 681 619 640 c 0
 619 613 569 544 544 544 c 0
 532 544 495 576 399 576 c 0
 271 576 200 483 200 298 c 0
 200 183 249 123 350 123 c 0
 378 123 401 125 428 130 c 1
 442 258 l 1
 355 258 l 2
 337 258 329 270 329 298 c 0
 329 350 338 389 367 389 c 2
 571 389 l 2
 598 389 608 381 608 358 c 0
 608 350 587 167 577 71 c 0
 569 2 406 -8 336 -8 c 0
 136 -8 41 82 41 276 c 0
 41 565 175 708 416 708 c 0
EndSplineSet
Position2: "'cpsp' Capital Spacing lookup 0 subtable" dx=5 dy=0 dh=10 dv=0
EndChar

StartChar: Gcircumflex
Encoding: 284 284 63
Width: 672
GlyphClass: 2
Flags: MW
HStem: -8 131<299.5 364 299.5 371> 258 131<346 571 367 442> 576 132<335 447> 749 146<274 418 280 418 407 493 407 515>
VStem: 41 159<240.5 390.5 240.5 420.5>
AnchorPoint: "Anchor-1" 592 774 basechar 0
AnchorPoint: "Anchor-0" 336 0 basechar 0
LayerCount: 2
Fore
SplineSet
407 895 m 2
 418 895 l 2
 447 895 467 894 477 876 c 2
 531 774 l 2
 533 769 534 766 534 762 c 0
 534 754 528 749 515 749 c 2
 493 749 l 2
 463 749 441 754 429 773 c 2
 404 813 l 1
 373 774 l 2
 356 752 332 749 304 749 c 2
 280 749 l 2
 268 749 261 753 261 759 c 0
 261 763 263 768 268 774 c 2
 344 876 l 2
 357 894 378 895 407 895 c 2
416 708 m 0
 502 708 619 681 619 640 c 0
 619 613 569 544 544 544 c 0
 532 544 495 576 399 576 c 0
 271 576 200 483 200 298 c 0
 200 183 249 123 350 123 c 0
 378 123 401 125 428 130 c 1
 442 258 l 1
 355 258 l 2
 337 258 329 270 329 298 c 0
 329 350 338 389 367 389 c 2
 571 389 l 2
 598 389 608 381 608 358 c 0
 608 350 587 167 577 71 c 0
 569 2 406 -8 336 -8 c 0
 136 -8 41 82 41 276 c 0
 41 565 175 708 416 708 c 0
EndSplineSet
Position2: "'cpsp' Capital Spacing lookup 0 subtable" dx=5 dy=0 dh=10 dv=0
EndChar

StartChar: Gcommaaccent
Encoding: 290 290 64
Width: 672
GlyphClass: 2
Flags: MW
HStem: -240 189<257 344> -8 131<299.5 364 299.5 371> 258 131<346 571 367 442> 576 132<335 447>
VStem: 41 159<240.5 390.5 240.5 420.5> 260 129<-128.5 -82.5 -128.5 -81.5>
AnchorPoint: "Anchor-1" 397 700 basechar 0
AnchorPoint: "Anchor-0" 320 -203 basechar 0
LayerCount: 2
Fore
SplineSet
416 708 m 0
 502 708 619 681 619 640 c 0
 619 613 569 544 544 544 c 0
 532 544 495 576 399 576 c 0
 271 576 200 483 200 298 c 0
 200 183 249 123 350 123 c 0
 378 123 401 125 428 130 c 1
 442 258 l 1
 355 258 l 2
 337 258 329 270 329 298 c 0
 329 350 338 389 367 389 c 2
 571 389 l 2
 598 389 608 381 608 358 c 0
 608 350 587 167 577 71 c 0
 569 2 406 -8 336 -8 c 0
 136 -8 41 82 41 276 c 0
 41 565 175 708 416 708 c 0
325 -51 m 2
 344 -51 l 2
 379 -51 389 -70 389 -95 c 0
 389 -162 301 -240 266 -240 c 0
 248 -240 222 -234 223 -218 c 0
 225 -200 260 -175 260 -95 c 0
 260 -68 283 -51 325 -51 c 2
EndSplineSet
Position2: "'cpsp' Capital Spacing lookup 0 subtable" dx=5 dy=0 dh=10 dv=0
EndChar

StartChar: Gdotaccent
Encoding: 288 288 65
Width: 672
GlyphClass: 2
Flags: MW
HStem: -8 131<299.5 364 299.5 371> 258 131<346 571 367 442> 576 132<335 447> 755 124<382 410>
VStem: 41 159<240.5 390.5 240.5 420.5> 333 127<776.5 857.5>
AnchorPoint: "Anchor-1" 423 877 basechar 0
AnchorPoint: "Anchor-0" 336 0 basechar 0
LayerCount: 2
Fore
SplineSet
403 879 m 0
 446 879 460 868 460 847 c 2
 453 787 l 2
 450 766 430 755 390 755 c 0
 347 755 333 766 333 787 c 2
 340 847 l 2
 342 868 361 879 403 879 c 0
416 708 m 0
 502 708 619 681 619 640 c 0
 619 613 569 544 544 544 c 0
 532 544 495 576 399 576 c 0
 271 576 200 483 200 298 c 0
 200 183 249 123 350 123 c 0
 378 123 401 125 428 130 c 1
 442 258 l 1
 355 258 l 2
 337 258 329 270 329 298 c 0
 329 350 338 389 367 389 c 2
 571 389 l 2
 598 389 608 381 608 358 c 0
 608 350 587 167 577 71 c 0
 569 2 406 -8 336 -8 c 0
 136 -8 41 82 41 276 c 0
 41 565 175 708 416 708 c 0
EndSplineSet
Position2: "'cpsp' Capital Spacing lookup 0 subtable" dx=5 dy=0 dh=10 dv=0
EndChar

StartChar: H
Encoding: 72 72 66
Width: 733
GlyphClass: 2
Flags: MW
HStem: 291 132<238 494 224 508> 682 20G<172 207 207 215.5 597 632 632 640.5>
VStem: 42 647<14.5 685.5>
AnchorPoint: "Anchor-1" 399 700 basechar 0
AnchorPoint: "Anchor-0" 341 0 basechar 0
LayerCount: 2
Fore
SplineSet
597 702 m 2
 632 702 l 2
 649 702 689 700 689 671 c 2
 622 30 l 2
 620 9 598 -2 559 -2 c 2
 524 -2 l 2
 507 -2 467 0 467 29 c 2
 494 291 l 1
 224 291 l 1
 197 30 l 2
 195 9 173 -2 134 -2 c 2
 99 -2 l 2
 82 -2 42 0 42 29 c 2
 109 670 l 2
 111 691 133 702 172 702 c 2
 207 702 l 2
 224 702 264 700 264 671 c 2
 238 423 l 1
 508 423 l 1
 534 670 l 2
 536 691 558 702 597 702 c 2
EndSplineSet
Position2: "'cpsp' Capital Spacing lookup 0 subtable" dx=5 dy=0 dh=10 dv=0
EndChar

StartChar: Hbar
Encoding: 294 294 67
Width: 733
GlyphClass: 2
Flags: MW
HStem: 291 132<238 494 224 508> 476 95<53 99 73 89 254 514> 476 226<53 207 62 207 172 244 172 514>
VStem: 104 160 529 160
AnchorPoint: "Anchor-1" 399 700 basechar 0
AnchorPoint: "Anchor-0" 341 0 basechar 0
LayerCount: 2
Fore
SplineSet
679 571 m 1xc8
 689 571 l 2
 706 571 715 561 715 541 c 0
 715 520 711 476 678 476 c 2
 669 476 l 1
 622 30 l 2
 620 9 598 -2 559 -2 c 2
 524 -2 l 2
 507 -2 467 0 467 29 c 2
 494 291 l 1
 224 291 l 1
 197 30 l 2
 195 9 173 -2 134 -2 c 2
 99 -2 l 2
 82 -2 42 0 42 29 c 2
 89 476 l 1
 62 476 l 2
 44 476 36 485 36 506 c 0
 36 527 39 571 73 571 c 2
 99 571 l 1xd8
 109 670 l 2
 111 691 133 702 172 702 c 2
 207 702 l 2
 224 702 264 700 264 671 c 2xb0
 254 571 l 1
 524 571 l 1xd8
 534 670 l 2
 536 691 558 702 597 702 c 2
 632 702 l 2
 649 702 689 700 689 671 c 2xa8
 679 571 l 1xc8
514 476 m 1
 244 476 l 1
 238 423 l 1
 508 423 l 1
 514 476 l 1
EndSplineSet
Position2: "'cpsp' Capital Spacing lookup 0 subtable" dx=5 dy=0 dh=10 dv=0
EndChar

StartChar: Hcircumflex
Encoding: 292 292 68
Width: 733
GlyphClass: 2
Flags: MW
HStem: 291 132<238 494 224 508> 682 20G<172 207 207 215.5 597 632 632 640.5> 749 146<276 420 282 420 409 495 409 517>
VStem: 42 647<14.5 685.5>
AnchorPoint: "Anchor-1" 594 774 basechar 0
AnchorPoint: "Anchor-0" 341 0 basechar 0
LayerCount: 2
Fore
SplineSet
409 895 m 2
 420 895 l 2
 449 895 469 894 479 876 c 2
 533 774 l 2
 535 769 536 766 536 762 c 0
 536 754 530 749 517 749 c 2
 495 749 l 2
 465 749 443 754 431 773 c 2
 406 813 l 1
 375 774 l 2
 358 752 334 749 306 749 c 2
 282 749 l 2
 270 749 263 753 263 759 c 0
 263 763 265 768 270 774 c 2
 346 876 l 2
 359 894 380 895 409 895 c 2
597 702 m 2
 632 702 l 2
 649 702 689 700 689 671 c 2
 622 30 l 2
 620 9 598 -2 559 -2 c 2
 524 -2 l 2
 507 -2 467 0 467 29 c 2
 494 291 l 1
 224 291 l 1
 197 30 l 2
 195 9 173 -2 134 -2 c 2
 99 -2 l 2
 82 -2 42 0 42 29 c 2
 109 670 l 2
 111 691 133 702 172 702 c 2
 207 702 l 2
 224 702 264 700 264 671 c 2
 238 423 l 1
 508 423 l 1
 534 670 l 2
 536 691 558 702 597 702 c 2
EndSplineSet
Position2: "'cpsp' Capital Spacing lookup 0 subtable" dx=5 dy=0 dh=10 dv=0
EndChar

StartChar: Hdotbelow
Encoding: 7716 7716 69
Width: 733
GlyphClass: 2
Flags: MW
HStem: -204 124<309 337> 291 132<238 494 224 508> 682 20G<172 207 207 215.5 597 632 632 640.5>
VStem: 42 647<14.5 685.5> 260 127<-182.5 -101.5>
AnchorPoint: "Anchor-1" 350 -82 basechar 0
AnchorPoint: "Anchor-0" 320 -203 basechar 0
LayerCount: 2
Fore
SplineSet
597 702 m 2x70
 632 702 l 2
 649 702 689 700 689 671 c 2
 622 30 l 2
 620 9 598 -2 559 -2 c 2
 524 -2 l 2
 507 -2 467 0 467 29 c 2
 494 291 l 1
 224 291 l 1
 197 30 l 2
 195 9 173 -2 134 -2 c 2
 99 -2 l 2
 82 -2 42 0 42 29 c 2
 109 670 l 2
 111 691 133 702 172 702 c 2
 207 702 l 2
 224 702 264 700 264 671 c 2
 238 423 l 1
 508 423 l 1
 534 670 l 2
 536 691 558 702 597 702 c 2x70
330 -80 m 0xe8
 373 -80 387 -91 387 -112 c 2
 380 -172 l 2
 377 -193 357 -204 317 -204 c 0
 274 -204 260 -193 260 -172 c 2
 267 -112 l 2
 269 -91 288 -80 330 -80 c 0xe8
EndSplineSet
Position2: "'cpsp' Capital Spacing lookup 0 subtable" dx=5 dy=0 dh=10 dv=0
EndChar

StartChar: I
Encoding: 73 73 70
Width: 282
GlyphClass: 2
Flags: MW
HStem: 682 20G<160 195 195 203.5>
VStem: 30 222
AnchorPoint: "Anchor-1" 181 700 basechar 0
AnchorPoint: "Anchor-0" 103 0 basechar 0
LayerCount: 2
Fore
SplineSet
160 702 m 2
 195 702 l 2
 212 702 252 700 252 671 c 2
 185 30 l 2
 183 9 161 -2 122 -2 c 2
 87 -2 l 2
 70 -2 30 0 30 29 c 2
 97 670 l 2
 99 691 121 702 160 702 c 2
EndSplineSet
Position2: "'cpsp' Capital Spacing lookup 0 subtable" dx=5 dy=0 dh=10 dv=0
EndChar

StartChar: IJ
Encoding: 306 306 71
Width: 684
GlyphClass: 2
Flags: MW
HStem: -8 131<341 378 326 435.5> 682 20G<160 195 195 203.5 553 588 588 596.5>
VStem: 30 615
AnchorPoint: "Anchor-1" 572 700 basechar 0
AnchorPoint: "Anchor-0" 103 0 basechar 0
LayerCount: 2
Fore
SplineSet
160 702 m 2
 195 702 l 2
 212 702 252 700 252 671 c 2
 185 30 l 2
 183 9 161 -2 122 -2 c 2
 87 -2 l 2
 70 -2 30 0 30 29 c 2
 97 670 l 2
 99 691 121 702 160 702 c 2
553 702 m 2
 588 702 l 2
 605 702 645 700 645 671 c 2
 595 202 l 2
 581 75 510 -8 361 -8 c 0
 321 -8 265 -2 265 35 c 0
 265 121 278 132 285 132 c 0
 293 132 304 123 348 123 c 0
 408 123 435 154 443 227 c 2
 490 670 l 2
 492 691 514 702 553 702 c 2
EndSplineSet
Position2: "'cpsp' Capital Spacing lookup 0 subtable" dx=5 dy=0 dh=10 dv=0
EndChar

StartChar: Iacute
Encoding: 205 205 72
Width: 282
GlyphClass: 2
Flags: MW
HStem: 682 20G<160 195 195 203.5> 752 159<142 308>
VStem: 30 317
AnchorPoint: "Anchor-1" 217 877 basechar 0
AnchorPoint: "Anchor-0" 103 0 basechar 0
LayerCount: 2
Fore
SplineSet
289 911 m 0
 327 911 347 908 347 898 c 0
 347 885 343 887 231 777 c 0
 219 765 200 752 153 752 c 0
 131 752 124 755 124 765 c 0
 124 776 143 796 201 884 c 0
 215 905 249 911 289 911 c 0
160 702 m 2
 195 702 l 2
 212 702 252 700 252 671 c 2
 185 30 l 2
 183 9 161 -2 122 -2 c 2
 87 -2 l 2
 70 -2 30 0 30 29 c 2
 97 670 l 2
 99 691 121 702 160 702 c 2
EndSplineSet
Position2: "'cpsp' Capital Spacing lookup 0 subtable" dx=5 dy=0 dh=10 dv=0
EndChar

StartChar: Ibreve
Encoding: 300 300 73
Width: 282
GlyphClass: 2
Flags: MW
HStem: 682 20G<160 195 195 203.5> 752 91<168.5 223 168.5 227>
VStem: 30 313
AnchorPoint: "Anchor-1" 200 863 basechar 0
AnchorPoint: "Anchor-0" 103 0 basechar 0
LayerCount: 2
Fore
SplineSet
311 892 m 0
 331 892 343 883 343 868 c 0
 343 809 270 752 184 752 c 0
 101 752 48 801 48 855 c 0
 48 879 60 892 87 892 c 0
 104 892 110 884 118 874 c 0
 129 860 143 843 194 843 c 0
 252 843 266 865 282 879 c 0
 289 886 297 892 311 892 c 0
160 702 m 2
 195 702 l 2
 212 702 252 700 252 671 c 2
 185 30 l 2
 183 9 161 -2 122 -2 c 2
 87 -2 l 2
 70 -2 30 0 30 29 c 2
 97 670 l 2
 99 691 121 702 160 702 c 2
EndSplineSet
Position2: "'cpsp' Capital Spacing lookup 0 subtable" dx=5 dy=0 dh=10 dv=0
EndChar

StartChar: Icircumflex
Encoding: 206 206 74
Width: 282
GlyphClass: 2
Flags: MW
HStem: 682 20G<160 195 195 203.5> 749 146<58 202 64 202 191 277 191 299>
VStem: 30 288
AnchorPoint: "Anchor-1" 376 774 basechar 0
AnchorPoint: "Anchor-0" 103 0 basechar 0
LayerCount: 2
Fore
SplineSet
191 895 m 2
 202 895 l 2
 231 895 251 894 261 876 c 2
 315 774 l 2
 317 769 318 766 318 762 c 0
 318 754 312 749 299 749 c 2
 277 749 l 2
 247 749 225 754 213 773 c 2
 188 813 l 1
 157 774 l 2
 140 752 116 749 88 749 c 2
 64 749 l 2
 52 749 45 753 45 759 c 0
 45 763 47 768 52 774 c 2
 128 876 l 2
 141 894 162 895 191 895 c 2
160 702 m 2
 195 702 l 2
 212 702 252 700 252 671 c 2
 185 30 l 2
 183 9 161 -2 122 -2 c 2
 87 -2 l 2
 70 -2 30 0 30 29 c 2
 97 670 l 2
 99 691 121 702 160 702 c 2
EndSplineSet
Position2: "'cpsp' Capital Spacing lookup 0 subtable" dx=5 dy=0 dh=10 dv=0
EndChar

StartChar: Idieresis
Encoding: 207 207 75
Width: 282
GlyphClass: 2
Flags: MW
HStem: 682 20G<160 195 195 203.5> 755 124<90 118 270 298>
VStem: 41 127<776.5 857.5> 221 127<776.5 857.5>
AnchorPoint: "Anchor-1" 204 877 basechar 0
AnchorPoint: "Anchor-0" 103 0 basechar 0
LayerCount: 2
Fore
SplineSet
111 879 m 0
 154 879 168 868 168 847 c 2
 161 787 l 2
 158 766 138 755 98 755 c 0
 55 755 41 766 41 787 c 2
 48 847 l 2
 50 868 69 879 111 879 c 0
291 879 m 0
 334 879 348 868 348 847 c 2
 341 787 l 2
 338 766 318 755 278 755 c 0
 235 755 221 766 221 787 c 2
 228 847 l 2
 230 868 249 879 291 879 c 0
160 702 m 2
 195 702 l 2
 212 702 252 700 252 671 c 2
 185 30 l 2
 183 9 161 -2 122 -2 c 2
 87 -2 l 2
 70 -2 30 0 30 29 c 2
 97 670 l 2
 99 691 121 702 160 702 c 2
EndSplineSet
Position2: "'cpsp' Capital Spacing lookup 0 subtable" dx=5 dy=0 dh=10 dv=0
EndChar

StartChar: Idotaccent
Encoding: 304 304 76
Width: 282
GlyphClass: 2
Flags: MW
HStem: 682 20G<160 195 195 203.5> 755 124<166 194>
VStem: 117 127<776.5 857.5>
AnchorPoint: "Anchor-1" 207 877 basechar 0
AnchorPoint: "Anchor-0" 103 0 basechar 0
LayerCount: 2
Fore
SplineSet
187 879 m 0
 230 879 244 868 244 847 c 2
 237 787 l 2
 234 766 214 755 174 755 c 0
 131 755 117 766 117 787 c 2
 124 847 l 2
 126 868 145 879 187 879 c 0
160 702 m 2
 195 702 l 2
 212 702 252 700 252 671 c 2
 185 30 l 2
 183 9 161 -2 122 -2 c 2
 87 -2 l 2
 70 -2 30 0 30 29 c 2
 97 670 l 2
 99 691 121 702 160 702 c 2
EndSplineSet
Position2: "'cpsp' Capital Spacing lookup 0 subtable" dx=5 dy=0 dh=10 dv=0
EndChar

StartChar: Idotbelow
Encoding: 7882 7882 77
Width: 282
GlyphClass: 2
Flags: MW
HStem: -204 124<71 99> 682 20G<160 195 195 203.5>
VStem: 22 127<-182.5 -101.5> 22 230
AnchorPoint: "Anchor-1" 112 -82 basechar 0
AnchorPoint: "Anchor-0" 82 -203 basechar 0
LayerCount: 2
Fore
SplineSet
160 702 m 2xd0
 195 702 l 2
 212 702 252 700 252 671 c 2
 185 30 l 2
 183 9 161 -2 122 -2 c 2
 87 -2 l 2
 70 -2 30 0 30 29 c 2
 97 670 l 2
 99 691 121 702 160 702 c 2xd0
92 -80 m 0xe0
 135 -80 149 -91 149 -112 c 2
 142 -172 l 2
 139 -193 119 -204 79 -204 c 0
 36 -204 22 -193 22 -172 c 2
 29 -112 l 2
 31 -91 50 -80 92 -80 c 0xe0
EndSplineSet
Position2: "'cpsp' Capital Spacing lookup 0 subtable" dx=5 dy=0 dh=10 dv=0
EndChar

StartChar: Igrave
Encoding: 204 204 78
Width: 282
GlyphClass: 2
Flags: MW
HStem: 682 20G<160 195 195 203.5> 752 159<90 225>
VStem: 30 222
AnchorPoint: "Anchor-1" 199 877 basechar 0
AnchorPoint: "Anchor-0" 103 0 basechar 0
LayerCount: 2
Fore
SplineSet
111 911 m 0
 151 911 183 905 193 884 c 0
 230 805 246 779 246 768 c 0
 246 756 237 752 213 752 c 0
 166 752 151 765 141 777 c 0
 59 877 49 885 49 895 c 0
 49 908 69 911 111 911 c 0
160 702 m 2
 195 702 l 2
 212 702 252 700 252 671 c 2
 185 30 l 2
 183 9 161 -2 122 -2 c 2
 87 -2 l 2
 70 -2 30 0 30 29 c 2
 97 670 l 2
 99 691 121 702 160 702 c 2
EndSplineSet
Position2: "'cpsp' Capital Spacing lookup 0 subtable" dx=5 dy=0 dh=10 dv=0
EndChar

StartChar: Ihookabove
Encoding: 7880 7880 79
Width: 282
GlyphClass: 2
Flags: MW
HStem: 682 20G<160 195 195 203.5> 867 61<188.5 201.5>
VStem: 224 87<828 852>
AnchorPoint: "Anchor-1" 199 877 basechar 0
AnchorPoint: "Anchor-0" 103 0 basechar 0
LayerCount: 2
Fore
SplineSet
224 845 m 0
 224 859 211 867 192 867 c 0
 170 867 157 855 148 855 c 0
 140 855 123 882 123 897 c 0
 123 910 171 928 206 928 c 0
 274 928 311 894 311 851 c 0
 311 799 225 747 209 747 c 0
 171 747 152 758 152 768 c 0
 152 790 224 811 224 845 c 0
160 702 m 2
 195 702 l 2
 212 702 252 700 252 671 c 2
 185 30 l 2
 183 9 161 -2 122 -2 c 2
 87 -2 l 2
 70 -2 30 0 30 29 c 2
 97 670 l 2
 99 691 121 702 160 702 c 2
EndSplineSet
Position2: "'cpsp' Capital Spacing lookup 0 subtable" dx=5 dy=0 dh=10 dv=0
EndChar

StartChar: Imacron
Encoding: 298 298 80
Width: 282
GlyphClass: 2
Flags: MW
HStem: 682 20G<160 195 195 203.5> 774 95<75 311 95 300>
VStem: 30 307
AnchorPoint: "Anchor-1" 210 877 basechar 0
AnchorPoint: "Anchor-0" 103 0 basechar 0
LayerCount: 2
Fore
SplineSet
95 869 m 2
 311 869 l 2
 328 869 337 859 337 839 c 0
 337 818 333 774 300 774 c 2
 84 774 l 2
 66 774 58 783 58 804 c 0
 58 825 61 869 95 869 c 2
160 702 m 2
 195 702 l 2
 212 702 252 700 252 671 c 2
 185 30 l 2
 183 9 161 -2 122 -2 c 2
 87 -2 l 2
 70 -2 30 0 30 29 c 2
 97 670 l 2
 99 691 121 702 160 702 c 2
EndSplineSet
Position2: "'cpsp' Capital Spacing lookup 0 subtable" dx=5 dy=0 dh=10 dv=0
EndChar

StartChar: Iogonek
Encoding: 302 302 81
Width: 282
GlyphClass: 2
Flags: MW
HStem: -183 70<171 183> 682 20G<160 195 195 203.5>
VStem: 55 69<-90 -81.5>
AnchorPoint: "Anchor-1" 181 700 basechar 0
AnchorPoint: "Anchor-0" 98 -203 basechar 0
LayerCount: 2
Fore
SplineSet
240 -99 m 0
 249 -99 251 -107 251 -129 c 0
 251 -171 203 -183 163 -183 c 0
 69 -183 55 -127 55 -94 c 0
 55 -69 64 -25 87 -2 c 1
 70 -2 30 0 30 29 c 2
 97 670 l 2
 99 691 121 702 160 702 c 2
 195 702 l 2
 212 702 252 700 252 671 c 2
 185 30 l 2
 183 13 168 2 142 -1 c 1
 142 -3 l 2
 142 -20 124 -34 124 -70 c 0
 124 -110 160 -113 182 -113 c 0
 212 -113 231 -99 240 -99 c 0
EndSplineSet
Position2: "'cpsp' Capital Spacing lookup 0 subtable" dx=5 dy=0 dh=10 dv=0
EndChar

StartChar: Itilde
Encoding: 296 296 82
Width: 282
GlyphClass: 2
Flags: MW
HStem: 682 20G<160 195 195 203.5> 758 86<241.5 254.5> 770 100
VStem: 30 315.75
AnchorPoint: "Anchor-1" 202 877 basechar 0
AnchorPoint: "Anchor-0" 103 0 basechar 0
LayerCount: 2
Fore
SplineSet
299 859 m 0xd0
 310 867 326 868 338 851 c 0
 349 835 350 824 331 799 c 0
 308 774 273 758 236 758 c 0xd0
 207 758 190 763 172 770 c 0
 156 776 142 784 125 784 c 0
 105 784 93 777 80 770 c 0
 68 762 55 768 46 783 c 0
 36 799 35 816 47 829 c 0
 73 852 103 870 139 870 c 0xb0
 167 870 183 865 202 857 c 0
 217 850 233 844 250 844 c 0
 270 844 284 849 299 859 c 0xd0
160 702 m 2xb0
 195 702 l 2
 212 702 252 700 252 671 c 2
 185 30 l 2
 183 9 161 -2 122 -2 c 2
 87 -2 l 2
 70 -2 30 0 30 29 c 2
 97 670 l 2
 99 691 121 702 160 702 c 2xb0
EndSplineSet
Position2: "'cpsp' Capital Spacing lookup 0 subtable" dx=5 dy=0 dh=10 dv=0
EndChar

StartChar: J
Encoding: 74 74 83
Width: 402
GlyphClass: 2
Flags: MW
HStem: -8 131<59 96 44 153.5> 682 20G<271 306 306 314.5>
VStem: -17 380
AnchorPoint: "Anchor-1" 290 700 basechar 0
AnchorPoint: "Anchor-0" 0 0 basechar 0
LayerCount: 2
Fore
SplineSet
271 702 m 2
 306 702 l 2
 323 702 363 700 363 671 c 2
 313 202 l 2
 299 75 228 -8 79 -8 c 0
 39 -8 -17 -2 -17 35 c 0
 -17 121 -4 132 3 132 c 0
 11 132 22 123 66 123 c 0
 126 123 153 154 161 227 c 2
 208 670 l 2
 210 691 232 702 271 702 c 2
EndSplineSet
Position2: "'cpsp' Capital Spacing lookup 0 subtable" dx=5 dy=0 dh=10 dv=0
EndChar

StartChar: Jcircumflex
Encoding: 308 308 84
Width: 402
GlyphClass: 2
Flags: MW
HStem: -8 131<59 96 44 153.5> 682 20G<271 306 306 314.5> 749 146<167 311 173 311 300 386 300 408>
VStem: -17 444
AnchorPoint: "Anchor-1" 485 774 basechar 0
AnchorPoint: "Anchor-0" 0 0 basechar 0
LayerCount: 2
Fore
SplineSet
300 895 m 2
 311 895 l 2
 340 895 360 894 370 876 c 2
 424 774 l 2
 426 769 427 766 427 762 c 0
 427 754 421 749 408 749 c 2
 386 749 l 2
 356 749 334 754 322 773 c 2
 297 813 l 1
 266 774 l 2
 249 752 225 749 197 749 c 2
 173 749 l 2
 161 749 154 753 154 759 c 0
 154 763 156 768 161 774 c 2
 237 876 l 2
 250 894 271 895 300 895 c 2
271 702 m 2
 306 702 l 2
 323 702 363 700 363 671 c 2
 313 202 l 2
 299 75 228 -8 79 -8 c 0
 39 -8 -17 -2 -17 35 c 0
 -17 121 -4 132 3 132 c 0
 11 132 22 123 66 123 c 0
 126 123 153 154 161 227 c 2
 208 670 l 2
 210 691 232 702 271 702 c 2
EndSplineSet
Position2: "'cpsp' Capital Spacing lookup 0 subtable" dx=5 dy=0 dh=10 dv=0
EndChar

StartChar: K
Encoding: 75 75 85
Width: 576
GlyphClass: 2
Flags: MW
HStem: 682 20G<165 200 200 221.5 498 545 545 564>
VStem: 35 565
AnchorPoint: "Anchor-1" 340 700 basechar 0
AnchorPoint: "Anchor-0" 270 0 basechar 0
LayerCount: 2
Fore
SplineSet
498 702 m 2
 545 702 l 2
 583 702 600 696 600 688 c 0
 600 683 597 675 590 666 c 2
 366 370 l 1
 549 34 l 2
 553 26 555 20 555 16 c 0
 555 5 542 -2 498 -2 c 2
 440 -2 l 2
 408 -2 388 2 381 17 c 2
 224 321 l 1
 220 320 l 1
 190 30 l 2
 188 9 169 -2 127 -2 c 2
 92 -2 l 2
 49 -2 35 9 35 30 c 2
 102 670 l 2
 104 691 123 702 165 702 c 2
 200 702 l 2
 243 702 257 691 257 670 c 2
 229 402 l 1
 233 401 l 1
 436 683 l 2
 447 698 469 702 498 702 c 2
EndSplineSet
Position2: "'cpsp' Capital Spacing lookup 0 subtable" dx=5 dy=0 dh=10 dv=0
EndChar

StartChar: Kcommaaccent
Encoding: 310 310 86
Width: 576
GlyphClass: 2
Flags: MW
HStem: -240 189<191 278> 682 20G<165 200 200 221.5 498 545 545 564>
VStem: 194 129<-128.5 -82.5 -128.5 -81.5>
AnchorPoint: "Anchor-1" 340 700 basechar 0
AnchorPoint: "Anchor-0" 254 -203 basechar 0
LayerCount: 2
Fore
SplineSet
498 702 m 2
 545 702 l 2
 583 702 600 696 600 688 c 0
 600 683 597 675 590 666 c 2
 366 370 l 1
 549 34 l 2
 553 26 555 20 555 16 c 0
 555 5 542 -2 498 -2 c 2
 440 -2 l 2
 408 -2 388 2 381 17 c 2
 224 321 l 1
 220 320 l 1
 190 30 l 2
 188 9 169 -2 127 -2 c 2
 92 -2 l 2
 49 -2 35 9 35 30 c 2
 102 670 l 2
 104 691 123 702 165 702 c 2
 200 702 l 2
 243 702 257 691 257 670 c 2
 229 402 l 1
 233 401 l 1
 436 683 l 2
 447 698 469 702 498 702 c 2
259 -51 m 2
 278 -51 l 2
 313 -51 323 -70 323 -95 c 0
 323 -162 235 -240 200 -240 c 0
 182 -240 156 -234 157 -218 c 0
 159 -200 194 -175 194 -95 c 0
 194 -68 217 -51 259 -51 c 2
EndSplineSet
Position2: "'cpsp' Capital Spacing lookup 0 subtable" dx=5 dy=0 dh=10 dv=0
EndChar

StartChar: L
Encoding: 76 76 87
Width: 484
GlyphClass: 2
Flags: MW
HStem: 0 131<58.5 424 201 412> 682 20G<166 201 201 209.5>
VStem: 36 414<20 105>
AnchorPoint: "Anchor-1" 184 700 basechar 0
AnchorPoint: "Anchor-0" 218 0 basechar 0
LayerCount: 2
Fore
SplineSet
166 702 m 2
 201 702 l 2
 218 702 258 700 258 671 c 2
 201 131 l 1
 424 131 l 2
 442 131 450 119 450 91 c 0
 450 39 441 0 412 0 c 2
 72 0 l 2
 45 0 36 8 36 32 c 2
 103 670 l 2
 105 691 127 702 166 702 c 2
EndSplineSet
Position2: "'cpsp' Capital Spacing lookup 0 subtable" dx=5 dy=0 dh=10 dv=0
EndChar

StartChar: LJ
Encoding: 455 455 88
Width: 718
GlyphClass: 2
Flags: MW
HStem: -182 131<372 409 357 466.5> 0 131<58.5 354 201 342> 682 20G<166 201 201 209.5 604 639 639 647.5>
VStem: 36 660<20 685.5>
LayerCount: 2
Fore
SplineSet
166 702 m 2
 201 702 l 2
 218 702 258 700 258 671 c 2
 201 131 l 1
 354 131 l 2
 372 131 380 119 380 91 c 0
 380 39 371 0 342 0 c 2
 72 0 l 2
 45 0 36 8 36 32 c 2
 103 670 l 2
 105 691 127 702 166 702 c 2
604 702 m 2
 639 702 l 2
 656 702 696 700 696 671 c 2
 626 28 l 2
 612 -99 541 -182 392 -182 c 0
 352 -182 296 -176 296 -139 c 0
 296 -53 309 -42 316 -42 c 0
 324 -42 335 -51 379 -51 c 0
 439 -51 466 -20 474 53 c 2
 541 670 l 2
 543 691 565 702 604 702 c 2
EndSplineSet
Position2: "'cpsp' Capital Spacing lookup 0 subtable" dx=5 dy=0 dh=10 dv=0
EndChar

StartChar: Lacute
Encoding: 313 313 89
Width: 484
GlyphClass: 2
Flags: MW
HStem: 0 131<58.5 424 201 412> 682 20G<166 201 201 209.5> 752 159<145 311>
VStem: 36 414<20 105>
AnchorPoint: "Anchor-1" 220 877 basechar 0
AnchorPoint: "Anchor-0" 218 0 basechar 0
LayerCount: 2
Fore
SplineSet
292 911 m 0
 330 911 350 908 350 898 c 0
 350 885 346 887 234 777 c 0
 222 765 203 752 156 752 c 0
 134 752 127 755 127 765 c 0
 127 776 146 796 204 884 c 0
 218 905 252 911 292 911 c 0
166 702 m 2
 201 702 l 2
 218 702 258 700 258 671 c 2
 201 131 l 1
 424 131 l 2
 442 131 450 119 450 91 c 0
 450 39 441 0 412 0 c 2
 72 0 l 2
 45 0 36 8 36 32 c 2
 103 670 l 2
 105 691 127 702 166 702 c 2
EndSplineSet
Position2: "'cpsp' Capital Spacing lookup 0 subtable" dx=5 dy=0 dh=10 dv=0
EndChar

StartChar: Lcaron
Encoding: 317 317 90
Width: 484
GlyphClass: 2
Flags: MW
HStem: 0 131<58.5 424 201 412> 680 20G<405 424 424 441.5> 682 20G<166 201 201 209.5>
VStem: 340 129<622.5 668.5 622.5 669.5>
AnchorPoint: "Anchor-1" 184 700 basechar 0
AnchorPoint: "Anchor-0" 218 0 basechar 0
LayerCount: 2
Fore
SplineSet
166 702 m 2xb0
 201 702 l 2
 218 702 258 700 258 671 c 2
 201 131 l 1
 424 131 l 2
 442 131 450 119 450 91 c 0
 450 39 441 0 412 0 c 2
 72 0 l 2
 45 0 36 8 36 32 c 2
 103 670 l 2
 105 691 127 702 166 702 c 2xb0
405 700 m 2xd0
 424 700 l 2
 459 700 469 681 469 656 c 0
 469 589 395 511 366 511 c 0
 348 511 322 517 323 533 c 0
 324 553 340 578 340 656 c 0
 340 683 363 700 405 700 c 2xd0
EndSplineSet
Position2: "'cpsp' Capital Spacing lookup 0 subtable" dx=5 dy=0 dh=10 dv=0
EndChar

StartChar: Lcommaaccent
Encoding: 315 315 91
Width: 484
GlyphClass: 2
Flags: MW
HStem: -240 189<139 226> 0 131<58.5 424 201 412> 682 20G<166 201 201 209.5>
VStem: 142 129<-128.5 -82.5 -128.5 -81.5>
AnchorPoint: "Anchor-1" 184 700 basechar 0
AnchorPoint: "Anchor-0" 202 -203 basechar 0
LayerCount: 2
Fore
SplineSet
166 702 m 2
 201 702 l 2
 218 702 258 700 258 671 c 2
 201 131 l 1
 424 131 l 2
 442 131 450 119 450 91 c 0
 450 39 441 0 412 0 c 2
 72 0 l 2
 45 0 36 8 36 32 c 2
 103 670 l 2
 105 691 127 702 166 702 c 2
207 -51 m 2
 226 -51 l 2
 261 -51 271 -70 271 -95 c 0
 271 -162 183 -240 148 -240 c 0
 130 -240 104 -234 105 -218 c 0
 107 -200 142 -175 142 -95 c 0
 142 -68 165 -51 207 -51 c 2
EndSplineSet
Position2: "'cpsp' Capital Spacing lookup 0 subtable" dx=5 dy=0 dh=10 dv=0
EndChar

StartChar: Ldot
Encoding: 319 319 92
Width: 484
GlyphClass: 2
Flags: MW
HStem: 0 131<58.5 424 201 412> 289 140<312.5 346> 682 20G<166 201 201 209.5>
VStem: 260 141<345 369>
AnchorPoint: "Anchor-1" 184 700 basechar 0
AnchorPoint: "Anchor-0" 218 0 basechar 0
LayerCount: 2
Fore
SplineSet
166 702 m 2
 201 702 l 2
 218 702 258 700 258 671 c 2
 201 131 l 1
 424 131 l 2
 442 131 450 119 450 91 c 0
 450 39 441 0 412 0 c 2
 72 0 l 2
 45 0 36 8 36 32 c 2
 103 670 l 2
 105 691 127 702 166 702 c 2
338 429 m 0
 374 429 401 402 401 366 c 0
 401 324 369 289 323 289 c 0
 287 289 260 315 260 350 c 0
 260 388 287 429 338 429 c 0
EndSplineSet
Ligature2: "Ligature Substitution lookup 19 subtable" L periodcentered
Position2: "'cpsp' Capital Spacing lookup 0 subtable" dx=5 dy=0 dh=10 dv=0
EndChar

StartChar: Lj
Encoding: 456 456 93
Width: 760
GlyphClass: 2
Flags: MW
HStem: -212 117<478 480.5 458 541> 0 131<58.5 424 201 412> 505 20G<628 656 656 676> 609 145<617 680 652 665> 682 20G<166 201 201 209.5>
VStem: 36 701<20 731> 580 157<632 731>
AnchorPoint: "Anchor-1" 184 700 basechar 0
AnchorPoint: "Anchor-0" 218 0 basechar 0
LayerCount: 2
Fore
SplineSet
652 754 m 2xf2
 680 754 l 2
 720 754 737 739 737 723 c 2
 728 641 l 2
 726 620 704 609 665 609 c 2
 637 609 l 2
 597 609 580 624 580 640 c 2
 589 722 l 2
 591 743 613 754 652 754 c 2xf2
166 702 m 2xec
 201 702 l 2
 218 702 258 700 258 671 c 2
 201 131 l 1
 424 131 l 2
 442 131 450 119 450 91 c 0
 450 39 441 0 412 0 c 2
 72 0 l 2
 45 0 36 8 36 32 c 2
 103 670 l 2
 105 691 127 702 166 702 c 2xec
628 525 m 2
 656 525 l 2
 696 525 713 510 713 494 c 2
 656 -50 l 2
 645 -152 589 -212 493 -212 c 0
 463 -212 415 -211 415 -173 c 0
 415 -110 424 -90 433 -90 c 0
 438 -90 448 -95 468 -95 c 0
 493 -95 505 -82 508 -52 c 2
 565 493 l 2
 567 514 589 525 628 525 c 2
EndSplineSet
Position2: "'cpsp' Capital Spacing lookup 0 subtable" dx=5 dy=0 dh=10 dv=0
EndChar

StartChar: Lslash
Encoding: 321 321 94
Width: 486
GlyphClass: 2
Flags: MW
HStem: 0 131<59.5 425 202 413> 682 20G<167 202 202 210.5>
VStem: 20 431<65 323.5>
LayerCount: 2
Fore
SplineSet
167 702 m 2
 202 702 l 2
 219 702 259 700 259 671 c 2
 238 475 l 1
 330 528 l 2
 337 532 342 534 346 534 c 0
 353 534 355 526 355 514 c 0
 355 473 340 458 322 448 c 2
 230 395 l 1
 202 131 l 1
 425 131 l 2
 443 131 451 119 451 91 c 0
 451 39 442 0 413 0 c 2
 73 0 l 2
 46 0 37 8 37 32 c 2
 65 300 l 1
 45 289 l 2
 38 285 33 283 29 283 c 0
 22 283 20 291 20 303 c 0
 20 344 35 358 53 369 c 2
 73 381 l 1
 104 670 l 2
 106 691 128 702 167 702 c 2
EndSplineSet
Position2: "'cpsp' Capital Spacing lookup 0 subtable" dx=5 dy=0 dh=10 dv=0
EndChar

StartChar: M
Encoding: 77 77 95
Width: 843
GlyphClass: 2
Flags: MW
HStem: 682 20G<171 224 224 238.5 704 756 756 777.5>
VStem: 41 772<19.5 680.5>
LayerCount: 2
Fore
SplineSet
704 702 m 2
 756 702 l 2
 799 702 813 691 813 670 c 2
 746 30 l 2
 744 9 725 -2 683 -2 c 2
 654 -2 l 2
 611 -2 597 9 597 30 c 2
 640 444 l 1
 636 445 l 1
 464 186 l 2
 454 174 441 167 422 167 c 2
 393 167 l 2
 374 167 363 174 355 186 c 2
 237 445 l 1
 233 444 l 1
 190 30 l 2
 188 9 169 -2 127 -2 c 2
 98 -2 l 2
 55 -2 41 9 41 30 c 2
 108 670 l 2
 110 691 129 702 171 702 c 2
 224 702 l 2
 253 702 276 695 285 675 c 2
 428 362 l 1
 449 394 l 1
 639 675 l 2
 652 695 675 702 704 702 c 2
EndSplineSet
Position2: "'cpsp' Capital Spacing lookup 0 subtable" dx=5 dy=0 dh=10 dv=0
EndChar

StartChar: N
Encoding: 78 78 96
Width: 719
GlyphClass: 2
Flags: MW
HStem: 682 20G<165 208 208 222.5 597 626 626 647.5>
VStem: 35 648<19.5 680.5>
AnchorPoint: "Anchor-1" 396 700 basechar 0
AnchorPoint: "Anchor-0" 341 0 basechar 0
LayerCount: 2
Fore
SplineSet
597 702 m 2
 626 702 l 2
 669 702 683 691 683 670 c 2
 616 30 l 2
 614 9 595 -2 553 -2 c 2
 515 -2 l 2
 486 -2 464 2 451 25 c 2
 239 412 l 1
 226 435 l 1
 184 30 l 2
 182 9 163 -2 121 -2 c 2
 92 -2 l 2
 49 -2 35 9 35 30 c 2
 102 670 l 2
 104 691 123 702 165 702 c 2
 208 702 l 2
 237 702 259 698 272 675 c 2
 476 300 l 1
 492 270 l 1
 534 670 l 2
 536 691 555 702 597 702 c 2
EndSplineSet
Position2: "'cpsp' Capital Spacing lookup 0 subtable" dx=5 dy=0 dh=10 dv=0
EndChar

StartChar: NJ
Encoding: 458 458 97
Width: 1121
GlyphClass: 2
Flags: MW
HStem: -8 131<778 815 763 872.5> 682 20G<165 208 208 222.5 597 626 626 647.5 990 1025 1025 1033.5>
VStem: 35 1047<19.5 685.5>
AnchorPoint: "Anchor-1" 1009 700 basechar 0
AnchorPoint: "Anchor-0" 341 0 basechar 0
LayerCount: 2
Fore
SplineSet
597 702 m 2
 626 702 l 2
 669 702 683 691 683 670 c 2
 616 30 l 2
 614 9 595 -2 553 -2 c 2
 515 -2 l 2
 486 -2 464 2 451 25 c 2
 239 412 l 1
 226 435 l 1
 184 30 l 2
 182 9 163 -2 121 -2 c 2
 92 -2 l 2
 49 -2 35 9 35 30 c 2
 102 670 l 2
 104 691 123 702 165 702 c 2
 208 702 l 2
 237 702 259 698 272 675 c 2
 476 300 l 1
 492 270 l 1
 534 670 l 2
 536 691 555 702 597 702 c 2
990 702 m 2
 1025 702 l 2
 1042 702 1082 700 1082 671 c 2
 1032 202 l 2
 1018 75 947 -8 798 -8 c 0
 758 -8 702 -2 702 35 c 0
 702 121 715 132 722 132 c 0
 730 132 741 123 785 123 c 0
 845 123 872 154 880 227 c 2
 927 670 l 2
 929 691 951 702 990 702 c 2
EndSplineSet
Position2: "'cpsp' Capital Spacing lookup 0 subtable" dx=5 dy=0 dh=10 dv=0
EndChar

StartChar: Nacute
Encoding: 323 323 98
Width: 719
GlyphClass: 2
Flags: MW
HStem: 682 20G<165 208 208 222.5 597 626 626 647.5> 752 159<357 523>
VStem: 35 648<19.5 680.5>
AnchorPoint: "Anchor-1" 432 877 basechar 0
AnchorPoint: "Anchor-0" 341 0 basechar 0
LayerCount: 2
Fore
SplineSet
504 911 m 0
 542 911 562 908 562 898 c 0
 562 885 558 887 446 777 c 0
 434 765 415 752 368 752 c 0
 346 752 339 755 339 765 c 0
 339 776 358 796 416 884 c 0
 430 905 464 911 504 911 c 0
597 702 m 2
 626 702 l 2
 669 702 683 691 683 670 c 2
 616 30 l 2
 614 9 595 -2 553 -2 c 2
 515 -2 l 2
 486 -2 464 2 451 25 c 2
 239 412 l 1
 226 435 l 1
 184 30 l 2
 182 9 163 -2 121 -2 c 2
 92 -2 l 2
 49 -2 35 9 35 30 c 2
 102 670 l 2
 104 691 123 702 165 702 c 2
 208 702 l 2
 237 702 259 698 272 675 c 2
 476 300 l 1
 492 270 l 1
 534 670 l 2
 536 691 555 702 597 702 c 2
EndSplineSet
Substitution2: "'locl' Localized Forms in Latin lookup 11 subtable" Nacute.loclPLK
Substitution2: "'aalt' Access All Alternates lookup 0 subtable" Nacute.loclPLK
Position2: "'cpsp' Capital Spacing lookup 0 subtable" dx=5 dy=0 dh=10 dv=0
EndChar

StartChar: Ncaron
Encoding: 327 327 99
Width: 719
GlyphClass: 2
Flags: MW
HStem: 682 20G<165 208 208 222.5 597 626 626 647.5> 749 146<295 392 295 403>
VStem: 35 648<19.5 680.5>
AnchorPoint: "Anchor-1" 417 877 basechar 0
AnchorPoint: "Anchor-0" 341 0 basechar 0
LayerCount: 2
Fore
SplineSet
506 895 m 2
 530 895 l 2
 542 895 549 891 549 885 c 0
 549 881 547 876 542 870 c 2
 466 768 l 2
 453 750 432 749 403 749 c 2
 392 749 l 2
 363 749 343 750 333 768 c 2
 279 870 l 2
 277 875 276 878 276 882 c 0
 276 890 282 895 295 895 c 2
 317 895 l 2
 346 895 369 889 381 871 c 2
 406 831 l 1
 437 870 l 2
 454 892 478 894 506 895 c 2
597 702 m 2
 626 702 l 2
 669 702 683 691 683 670 c 2
 616 30 l 2
 614 9 595 -2 553 -2 c 2
 515 -2 l 2
 486 -2 464 2 451 25 c 2
 239 412 l 1
 226 435 l 1
 184 30 l 2
 182 9 163 -2 121 -2 c 2
 92 -2 l 2
 49 -2 35 9 35 30 c 2
 102 670 l 2
 104 691 123 702 165 702 c 2
 208 702 l 2
 237 702 259 698 272 675 c 2
 476 300 l 1
 492 270 l 1
 534 670 l 2
 536 691 555 702 597 702 c 2
EndSplineSet
Position2: "'cpsp' Capital Spacing lookup 0 subtable" dx=5 dy=0 dh=10 dv=0
EndChar

StartChar: Ncommaaccent
Encoding: 325 325 100
Width: 719
GlyphClass: 2
Flags: MW
HStem: -240 189<262 349> 682 20G<165 208 208 222.5 597 626 626 647.5>
VStem: 265 129<-128.5 -82.5 -128.5 -81.5>
AnchorPoint: "Anchor-1" 396 700 basechar 0
AnchorPoint: "Anchor-0" 325 -203 basechar 0
LayerCount: 2
Fore
SplineSet
597 702 m 2
 626 702 l 2
 669 702 683 691 683 670 c 2
 616 30 l 2
 614 9 595 -2 553 -2 c 2
 515 -2 l 2
 486 -2 464 2 451 25 c 2
 239 412 l 1
 226 435 l 1
 184 30 l 2
 182 9 163 -2 121 -2 c 2
 92 -2 l 2
 49 -2 35 9 35 30 c 2
 102 670 l 2
 104 691 123 702 165 702 c 2
 208 702 l 2
 237 702 259 698 272 675 c 2
 476 300 l 1
 492 270 l 1
 534 670 l 2
 536 691 555 702 597 702 c 2
330 -51 m 2
 349 -51 l 2
 384 -51 394 -70 394 -95 c 0
 394 -162 306 -240 271 -240 c 0
 253 -240 227 -234 228 -218 c 0
 230 -200 265 -175 265 -95 c 0
 265 -68 288 -51 330 -51 c 2
EndSplineSet
Position2: "'cpsp' Capital Spacing lookup 0 subtable" dx=5 dy=0 dh=10 dv=0
EndChar

StartChar: Ndotaccent
Encoding: 7748 7748 101
Width: 719
GlyphClass: 2
Flags: MW
HStem: 682 20G<165 208 208 222.5 597 626 626 647.5> 755 124<381 409>
VStem: 332 127<776.5 857.5>
AnchorPoint: "Anchor-1" 422 877 basechar 0
AnchorPoint: "Anchor-0" 341 0 basechar 0
LayerCount: 2
Fore
SplineSet
402 879 m 0
 445 879 459 868 459 847 c 2
 452 787 l 2
 449 766 429 755 389 755 c 0
 346 755 332 766 332 787 c 2
 339 847 l 2
 341 868 360 879 402 879 c 0
597 702 m 2
 626 702 l 2
 669 702 683 691 683 670 c 2
 616 30 l 2
 614 9 595 -2 553 -2 c 2
 515 -2 l 2
 486 -2 464 2 451 25 c 2
 239 412 l 1
 226 435 l 1
 184 30 l 2
 182 9 163 -2 121 -2 c 2
 92 -2 l 2
 49 -2 35 9 35 30 c 2
 102 670 l 2
 104 691 123 702 165 702 c 2
 208 702 l 2
 237 702 259 698 272 675 c 2
 476 300 l 1
 492 270 l 1
 534 670 l 2
 536 691 555 702 597 702 c 2
EndSplineSet
Position2: "'cpsp' Capital Spacing lookup 0 subtable" dx=5 dy=0 dh=10 dv=0
EndChar

StartChar: Eng
Encoding: 330 330 102
Width: 719
GlyphClass: 2
Flags: MW
HStem: -212 117<429 431.5 409 492> 682 20G<165 208 208 222.5 597 626 626 647.5>
VStem: 35 648<19.5 680.5>
AnchorPoint: "Anchor-1" 593 523 basechar 0
AnchorPoint: "Anchor-0" 0 0 basechar 0
LayerCount: 2
Fore
SplineSet
615 30 m 1
 607 -50 l 2
 596 -152 540 -212 444 -212 c 0
 414 -212 366 -211 366 -173 c 0
 366 -110 375 -90 384 -90 c 0
 389 -90 399 -95 419 -95 c 0
 444 -95 456 -82 459 -52 c 2
 465 1 l 1
 247 397 l 1
 226 435 l 1
 184 30 l 2
 182 9 163 -2 121 -2 c 2
 92 -2 l 2
 49 -2 35 9 35 30 c 2
 102 670 l 2
 104 691 123 702 165 702 c 2
 208 702 l 2
 237 702 259 698 272 675 c 2
 471 308 l 1
 492 270 l 1
 534 670 l 2
 536 691 555 702 597 702 c 2
 626 702 l 2
 669 702 683 691 683 670 c 2
 615 30 l 1
EndSplineSet
Position2: "'cpsp' Capital Spacing lookup 0 subtable" dx=5 dy=0 dh=10 dv=0
EndChar

StartChar: Nj
Encoding: 459 459 103
Width: 995
GlyphClass: 2
Flags: MW
HStem: -212 117<713 715.5 693 776> 505 20G<863 891 891 911> 609 145<852 915 887 900> 682 20G<165 208 208 222.5 597 626 626 647.5>
VStem: 35 937<19.5 731> 815 157<632 731>
AnchorPoint: "Anchor-1" 396 700 basechar 0
AnchorPoint: "Anchor-0" 341 0 basechar 0
LayerCount: 2
Fore
SplineSet
887 754 m 2xe4
 915 754 l 2
 955 754 972 739 972 723 c 2
 963 641 l 2
 961 620 939 609 900 609 c 2
 872 609 l 2
 832 609 815 624 815 640 c 2
 824 722 l 2
 826 743 848 754 887 754 c 2xe4
597 702 m 2xd8
 626 702 l 2
 669 702 683 691 683 670 c 2
 616 30 l 2
 614 9 595 -2 553 -2 c 2
 515 -2 l 2
 486 -2 464 2 451 25 c 2
 239 412 l 1
 226 435 l 1
 184 30 l 2
 182 9 163 -2 121 -2 c 2
 92 -2 l 2
 49 -2 35 9 35 30 c 2
 102 670 l 2
 104 691 123 702 165 702 c 2
 208 702 l 2
 237 702 259 698 272 675 c 2
 476 300 l 1
 492 270 l 1
 534 670 l 2
 536 691 555 702 597 702 c 2xd8
863 525 m 2
 891 525 l 2
 931 525 948 510 948 494 c 2
 891 -50 l 2
 880 -152 824 -212 728 -212 c 0
 698 -212 650 -211 650 -173 c 0
 650 -110 659 -90 668 -90 c 0
 673 -90 683 -95 703 -95 c 0
 728 -95 740 -82 743 -52 c 2
 800 493 l 2
 802 514 824 525 863 525 c 2
EndSplineSet
Position2: "'cpsp' Capital Spacing lookup 0 subtable" dx=5 dy=0 dh=10 dv=0
EndChar

StartChar: Ntilde
Encoding: 209 209 104
Width: 719
GlyphClass: 2
Flags: MW
HStem: 682 20G<165 208 208 222.5 597 626 626 647.5> 758 86<463.5 477.5> 770 100
VStem: 35 648<19.5 680.5>
AnchorPoint: "Anchor-1" 420 877 basechar 0
AnchorPoint: "Anchor-0" 341 0 basechar 0
LayerCount: 2
Fore
SplineSet
527 859 m 0xd0
 540 867 558 868 571 851 c 0
 583 835 584 824 563 799 c 0
 538 774 498 758 457 758 c 0xd0
 426 758 406 763 386 770 c 0
 368 776 353 784 334 784 c 0
 312 784 298 777 284 770 c 0
 270 762 256 768 246 783 c 0
 235 799 234 816 247 829 c 0
 276 852 309 870 350 870 c 0xb0
 380 870 398 865 419 857 c 0
 437 850 454 844 473 844 c 0
 495 844 510 849 527 859 c 0xd0
597 702 m 2xb0
 626 702 l 2
 669 702 683 691 683 670 c 2
 616 30 l 2
 614 9 595 -2 553 -2 c 2
 515 -2 l 2
 486 -2 464 2 451 25 c 2
 239 412 l 1
 226 435 l 1
 184 30 l 2
 182 9 163 -2 121 -2 c 2
 92 -2 l 2
 49 -2 35 9 35 30 c 2
 102 670 l 2
 104 691 123 702 165 702 c 2
 208 702 l 2
 237 702 259 698 272 675 c 2
 476 300 l 1
 492 270 l 1
 534 670 l 2
 536 691 555 702 597 702 c 2xb0
EndSplineSet
Position2: "'cpsp' Capital Spacing lookup 0 subtable" dx=5 dy=0 dh=10 dv=0
EndChar

StartChar: O
Encoding: 79 79 105
Width: 731
GlyphClass: 2
Flags: MW
HStem: -8 131<295 399 295 445> 576 132<331 436>
VStem: 41 159<241 388 241 390> 531 158<310.5 457.5>
AnchorPoint: "Anchor-1" 396 700 basechar 0
AnchorPoint: "Anchor-0" 327 0 basechar 0
LayerCount: 2
Fore
SplineSet
403 708 m 0
 589 708 689 604 689 414 c 0
 689 143 562 -8 328 -8 c 0
 142 -8 41 95 41 284 c 0
 41 496 140 708 403 708 c 0
389 576 m 0
 273 576 200 478 200 298 c 0
 200 184 248 123 342 123 c 0
 456 123 531 221 531 400 c 0
 531 515 483 576 389 576 c 0
EndSplineSet
Substitution2: "Single Substitution lookup 20 subtable" ordmasculine
Substitution2: "'aalt' Access All Alternates lookup 0 subtable" ordmasculine
Position2: "'cpsp' Capital Spacing lookup 0 subtable" dx=5 dy=0 dh=10 dv=0
EndChar

StartChar: Oacute
Encoding: 211 211 106
Width: 731
GlyphClass: 2
Flags: MW
HStem: -8 131<295 399 295 445> 576 132<331 436> 752 159<357 523>
VStem: 41 159<241 388 241 390> 531 158<310.5 457.5>
AnchorPoint: "Anchor-1" 432 877 basechar 0
AnchorPoint: "Anchor-0" 327 0 basechar 0
LayerCount: 2
Fore
SplineSet
504 911 m 0
 542 911 562 908 562 898 c 0
 562 885 558 887 446 777 c 0
 434 765 415 752 368 752 c 0
 346 752 339 755 339 765 c 0
 339 776 358 796 416 884 c 0
 430 905 464 911 504 911 c 0
403 708 m 0
 589 708 689 604 689 414 c 0
 689 143 562 -8 328 -8 c 0
 142 -8 41 95 41 284 c 0
 41 496 140 708 403 708 c 0
389 576 m 0
 273 576 200 478 200 298 c 0
 200 184 248 123 342 123 c 0
 456 123 531 221 531 400 c 0
 531 515 483 576 389 576 c 0
EndSplineSet
Substitution2: "'locl' Localized Forms in Latin lookup 11 subtable" Oacute.loclPLK
Substitution2: "'aalt' Access All Alternates lookup 0 subtable" Oacute.loclPLK
Position2: "'cpsp' Capital Spacing lookup 0 subtable" dx=5 dy=0 dh=10 dv=0
EndChar

StartChar: Obreve
Encoding: 334 334 107
Width: 731
GlyphClass: 2
Flags: MW
HStem: -8 131<295 399 295 445> 576 132<331 436> 752 91<383.5 438 383.5 442>
VStem: 41 159<241 388 241 390> 531 158<310.5 457.5>
AnchorPoint: "Anchor-1" 415 863 basechar 0
AnchorPoint: "Anchor-0" 327 0 basechar 0
LayerCount: 2
Fore
SplineSet
526 892 m 0
 546 892 558 883 558 868 c 0
 558 809 485 752 399 752 c 0
 316 752 263 801 263 855 c 0
 263 879 275 892 302 892 c 0
 319 892 325 884 333 874 c 0
 344 860 358 843 409 843 c 0
 467 843 481 865 497 879 c 0
 504 886 512 892 526 892 c 0
403 708 m 0
 589 708 689 604 689 414 c 0
 689 143 562 -8 328 -8 c 0
 142 -8 41 95 41 284 c 0
 41 496 140 708 403 708 c 0
389 576 m 0
 273 576 200 478 200 298 c 0
 200 184 248 123 342 123 c 0
 456 123 531 221 531 400 c 0
 531 515 483 576 389 576 c 0
EndSplineSet
Position2: "'cpsp' Capital Spacing lookup 0 subtable" dx=5 dy=0 dh=10 dv=0
EndChar

StartChar: Ocircumflex
Encoding: 212 212 108
Width: 731
GlyphClass: 2
Flags: MW
HStem: -8 131<295 399 295 445> 576 132<331 436> 749 146<273 417 279 417 406 492 406 514>
VStem: 41 159<241 388 241 390> 531 158<310.5 457.5>
AnchorPoint: "Anchor-1" 591 774 basechar 0
AnchorPoint: "Anchor-0" 327 0 basechar 0
LayerCount: 2
Fore
SplineSet
406 895 m 2
 417 895 l 2
 446 895 466 894 476 876 c 2
 530 774 l 2
 532 769 533 766 533 762 c 0
 533 754 527 749 514 749 c 2
 492 749 l 2
 462 749 440 754 428 773 c 2
 403 813 l 1
 372 774 l 2
 355 752 331 749 303 749 c 2
 279 749 l 2
 267 749 260 753 260 759 c 0
 260 763 262 768 267 774 c 2
 343 876 l 2
 356 894 377 895 406 895 c 2
403 708 m 0
 589 708 689 604 689 414 c 0
 689 143 562 -8 328 -8 c 0
 142 -8 41 95 41 284 c 0
 41 496 140 708 403 708 c 0
389 576 m 0
 273 576 200 478 200 298 c 0
 200 184 248 123 342 123 c 0
 456 123 531 221 531 400 c 0
 531 515 483 576 389 576 c 0
EndSplineSet
Position2: "'cpsp' Capital Spacing lookup 0 subtable" dx=5 dy=0 dh=10 dv=0
EndChar

StartChar: Ocircumflexacute
Encoding: 7888 7888 109
Width: 731
GlyphClass: 2
Flags: MW
HStem: -8 131<295 399 295 445> 576 132<331 436> 749 146<270 414 276 414 403 474 403 496>
VStem: 41 159<241 388 241 390> 531 158<310.5 457.5>
AnchorPoint: "Anchor-1" 543 829 basechar 0
AnchorPoint: "Anchor-0" 327 0 basechar 0
LayerCount: 2
Fore
SplineSet
622 963 m 0
 647 963 660 958 660 940 c 0
 660 931 651 915 574 839 c 0
 565 831 551 824 516 824 c 0
 502 824 497 827 497 837 c 0
 497 846 507 863 544 936 c 0
 555 957 587 963 622 963 c 0
403 895 m 2
 414 895 l 2
 438 895 455 893 463 876 c 2
 512 774 l 2
 514 769 515 766 515 762 c 0
 515 754 509 749 496 749 c 2
 474 749 l 2
 444 749 415 751 410 773 c 2
 400 813 l 1
 369 774 l 2
 352 752 328 749 300 749 c 2
 276 749 l 2
 264 749 257 753 257 759 c 0
 257 763 259 768 264 774 c 2
 340 876 l 2
 353 894 374 895 403 895 c 2
403 708 m 0
 589 708 689 604 689 414 c 0
 689 143 562 -8 328 -8 c 0
 142 -8 41 95 41 284 c 0
 41 496 140 708 403 708 c 0
389 576 m 0
 273 576 200 478 200 298 c 0
 200 184 248 123 342 123 c 0
 456 123 531 221 531 400 c 0
 531 515 483 576 389 576 c 0
EndSplineSet
Position2: "'cpsp' Capital Spacing lookup 0 subtable" dx=5 dy=0 dh=10 dv=0
EndChar

StartChar: Ocircumflexdotbelow
Encoding: 7896 7896 110
Width: 731
GlyphClass: 2
Flags: MW
HStem: -204 124<295 323> -8 131<295 399 295 445> 576 132<331 436> 749 146<273 417 279 417 406 492 406 514>
VStem: 41 159<241 388 241 390> 246 127<-182.5 -101.5> 531 158<310.5 457.5>
AnchorPoint: "Anchor-1" 336 -82 basechar 0
AnchorPoint: "Anchor-0" 306 -203 basechar 0
LayerCount: 2
Fore
SplineSet
406 895 m 2
 417 895 l 2
 446 895 466 894 476 876 c 2
 530 774 l 2
 532 769 533 766 533 762 c 0
 533 754 527 749 514 749 c 2
 492 749 l 2
 462 749 440 754 428 773 c 2
 403 813 l 1
 372 774 l 2
 355 752 331 749 303 749 c 2
 279 749 l 2
 267 749 260 753 260 759 c 0
 260 763 262 768 267 774 c 2
 343 876 l 2
 356 894 377 895 406 895 c 2
403 708 m 0
 589 708 689 604 689 414 c 0
 689 143 562 -8 328 -8 c 0
 142 -8 41 95 41 284 c 0
 41 496 140 708 403 708 c 0
389 576 m 0
 273 576 200 478 200 298 c 0
 200 184 248 123 342 123 c 0
 456 123 531 221 531 400 c 0
 531 515 483 576 389 576 c 0
316 -80 m 0
 359 -80 373 -91 373 -112 c 2
 366 -172 l 2
 363 -193 343 -204 303 -204 c 0
 260 -204 246 -193 246 -172 c 2
 253 -112 l 2
 255 -91 274 -80 316 -80 c 0
EndSplineSet
Position2: "'cpsp' Capital Spacing lookup 0 subtable" dx=5 dy=0 dh=10 dv=0
EndChar

StartChar: Ocircumflexgrave
Encoding: 7890 7890 111
Width: 731
GlyphClass: 2
Flags: MW
HStem: -8 131<295 399 295 445> 576 132<331 436> 749 146<270 414 276 414 403 474 403 496> 825 139<460 565>
VStem: 41 159<241 388 241 390> 531 158<310.5 457.5>
AnchorPoint: "Anchor-1" 543 829 basechar 0
AnchorPoint: "Anchor-0" 327 0 basechar 0
LayerCount: 2
Fore
SplineSet
476 964 m 0xdc
 516 964 551 958 558 937 c 0
 578 872 586 850 586 841 c 0
 586 829 577 825 553 825 c 0
 516 825 503 838 494 850 c 0
 434 933 427 940 427 948 c 0
 427 961 444 964 476 964 c 0xdc
403 895 m 2xec
 414 895 l 2
 438 895 455 893 463 876 c 2
 512 774 l 2
 514 769 515 766 515 762 c 0
 515 754 509 749 496 749 c 2
 474 749 l 2
 444 749 415 751 410 773 c 2
 400 813 l 1
 369 774 l 2
 352 752 328 749 300 749 c 2
 276 749 l 2
 264 749 257 753 257 759 c 0
 257 763 259 768 264 774 c 2
 340 876 l 2
 353 894 374 895 403 895 c 2xec
403 708 m 0
 589 708 689 604 689 414 c 0
 689 143 562 -8 328 -8 c 0
 142 -8 41 95 41 284 c 0
 41 496 140 708 403 708 c 0
389 576 m 0
 273 576 200 478 200 298 c 0
 200 184 248 123 342 123 c 0
 456 123 531 221 531 400 c 0
 531 515 483 576 389 576 c 0
EndSplineSet
Position2: "'cpsp' Capital Spacing lookup 0 subtable" dx=5 dy=0 dh=10 dv=0
EndChar

StartChar: Ocircumflexhookabove
Encoding: 7892 7892 112
Width: 731
GlyphClass: 2
Flags: MW
HStem: -8 131<295 399 295 445> 576 132<331 436> 749 146<270 414 276 414 403 474 403 496> 896 70<480 571>
VStem: 41 159<241 388 241 390> 531 158<310.5 457.5> 557 70<889 901.5>
AnchorPoint: "Anchor-1" 543 829 basechar 0
AnchorPoint: "Anchor-0" 327 0 basechar 0
LayerCount: 2
Fore
SplineSet
557 896 m 0xda
 557 907 547 913 536 913 c 0
 506 913 493 896 484 896 c 0
 476 896 459 923 459 938 c 0
 459 951 507 966 542 966 c 0
 600 966 627 940 627 900 c 0
 627 876 608 860 587 847 c 0
 574 839 550 826 543 826 c 0
 516 826 502 836 502 847 c 0
 502 855 513 863 523 867 c 0
 546 877 557 882 557 896 c 0xda
403 895 m 2xec
 414 895 l 2
 438 895 455 893 463 876 c 2
 512 774 l 2
 514 769 515 766 515 762 c 0
 515 754 509 749 496 749 c 2
 474 749 l 2
 444 749 415 751 410 773 c 2
 400 813 l 1
 369 774 l 2
 352 752 328 749 300 749 c 2
 276 749 l 2
 264 749 257 753 257 759 c 0
 257 763 259 768 264 774 c 2
 340 876 l 2
 353 894 374 895 403 895 c 2xec
403 708 m 0
 589 708 689 604 689 414 c 0
 689 143 562 -8 328 -8 c 0
 142 -8 41 95 41 284 c 0
 41 496 140 708 403 708 c 0
389 576 m 0
 273 576 200 478 200 298 c 0
 200 184 248 123 342 123 c 0
 456 123 531 221 531 400 c 0
 531 515 483 576 389 576 c 0
EndSplineSet
Position2: "'cpsp' Capital Spacing lookup 0 subtable" dx=5 dy=0 dh=10 dv=0
EndChar

StartChar: Ocircumflextilde
Encoding: 7894 7894 113
Width: 731
GlyphClass: 2
Flags: MW
HStem: -8 131<295 399 295 445> 576 132<331 436> 749 122<283 421 410 496 410 518> 903 86<476.5 489.5> 915 100
VStem: 41 159<241 388 241 390> 531 158<310.5 457.5>
AnchorPoint: "Anchor-1" 418 877 basechar 0
AnchorPoint: "Anchor-0" 327 0 basechar 0
LayerCount: 2
Fore
SplineSet
534 1004 m 0xf6
 546 1012 562 1013 574 996 c 0
 585 980 586 969 567 944 c 0
 544 919 508 903 471 903 c 0xf6
 442 903 424 908 406 915 c 0
 390 921 376 929 359 929 c 0
 339 929 326 922 313 915 c 0
 301 907 288 913 279 928 c 0
 269 944 268 961 280 974 c 0
 306 997 336 1015 373 1015 c 0xee
 401 1015 417 1010 436 1002 c 0
 452 995 468 989 485 989 c 0
 505 989 519 994 534 1004 c 0xf6
410 871 m 2xee
 421 871 l 2
 450 871 467 869 480 852 c 2
 534 774 l 2
 536 769 537 766 537 762 c 0
 537 754 531 749 518 749 c 2
 496 749 l 2
 466 749 452 760 432 773 c 1
 407 799 l 1
 376 774 l 1
 350 762 335 749 307 749 c 2
 283 749 l 2
 271 749 264 753 264 759 c 0
 264 763 266 768 271 774 c 2
 347 852 l 2
 364 868 381 871 410 871 c 2xee
403 708 m 0
 589 708 689 604 689 414 c 0
 689 143 562 -8 328 -8 c 0
 142 -8 41 95 41 284 c 0
 41 496 140 708 403 708 c 0
389 576 m 0
 273 576 200 478 200 298 c 0
 200 184 248 123 342 123 c 0
 456 123 531 221 531 400 c 0
 531 515 483 576 389 576 c 0
EndSplineSet
Position2: "'cpsp' Capital Spacing lookup 0 subtable" dx=5 dy=0 dh=10 dv=0
EndChar

StartChar: Odieresis
Encoding: 214 214 114
Width: 731
GlyphClass: 2
Flags: MW
HStem: -8 131<295 399 295 445> 576 132<331 436> 755 124<305 333 485 513>
VStem: 41 159<241 388 241 390> 256 127<776.5 857.5> 436 127<776.5 857.5> 531 158<310.5 457.5>
AnchorPoint: "Anchor-1" 419 877 basechar 0
AnchorPoint: "Anchor-0" 327 0 basechar 0
LayerCount: 2
Fore
SplineSet
326 879 m 0xfa
 369 879 383 868 383 847 c 2
 376 787 l 2
 373 766 353 755 313 755 c 0
 270 755 256 766 256 787 c 2
 263 847 l 2
 265 868 284 879 326 879 c 0xfa
506 879 m 0xfc
 549 879 563 868 563 847 c 2
 556 787 l 2
 553 766 533 755 493 755 c 0
 450 755 436 766 436 787 c 2
 443 847 l 2
 445 868 464 879 506 879 c 0xfc
403 708 m 0xfa
 589 708 689 604 689 414 c 0
 689 143 562 -8 328 -8 c 0
 142 -8 41 95 41 284 c 0
 41 496 140 708 403 708 c 0xfa
389 576 m 0
 273 576 200 478 200 298 c 0
 200 184 248 123 342 123 c 0
 456 123 531 221 531 400 c 0
 531 515 483 576 389 576 c 0
EndSplineSet
Position2: "'cpsp' Capital Spacing lookup 0 subtable" dx=5 dy=0 dh=10 dv=0
EndChar

StartChar: Odotbelow
Encoding: 7884 7884 115
Width: 731
GlyphClass: 2
Flags: MW
HStem: -204 124<295 323> -8 131<295 399 295 445> 576 132<331 436>
VStem: 41 159<241 388 241 390> 246 127<-182.5 -101.5> 531 158<310.5 457.5>
AnchorPoint: "Anchor-1" 336 -82 basechar 0
AnchorPoint: "Anchor-0" 306 -203 basechar 0
LayerCount: 2
Fore
SplineSet
403 708 m 0
 589 708 689 604 689 414 c 0
 689 143 562 -8 328 -8 c 0
 142 -8 41 95 41 284 c 0
 41 496 140 708 403 708 c 0
389 576 m 0
 273 576 200 478 200 298 c 0
 200 184 248 123 342 123 c 0
 456 123 531 221 531 400 c 0
 531 515 483 576 389 576 c 0
316 -80 m 0
 359 -80 373 -91 373 -112 c 2
 366 -172 l 2
 363 -193 343 -204 303 -204 c 0
 260 -204 246 -193 246 -172 c 2
 253 -112 l 2
 255 -91 274 -80 316 -80 c 0
EndSplineSet
Position2: "'cpsp' Capital Spacing lookup 0 subtable" dx=5 dy=0 dh=10 dv=0
EndChar

StartChar: Ograve
Encoding: 210 210 116
Width: 731
GlyphClass: 2
Flags: MW
HStem: -8 131<295 399 295 445> 576 132<331 436> 752 159<305 440>
VStem: 41 159<241 388 241 390> 531 158<310.5 457.5>
AnchorPoint: "Anchor-1" 414 877 basechar 0
AnchorPoint: "Anchor-0" 327 0 basechar 0
LayerCount: 2
Fore
SplineSet
326 911 m 0
 366 911 398 905 408 884 c 0
 445 805 461 779 461 768 c 0
 461 756 452 752 428 752 c 0
 381 752 366 765 356 777 c 0
 274 877 264 885 264 895 c 0
 264 908 284 911 326 911 c 0
403 708 m 0
 589 708 689 604 689 414 c 0
 689 143 562 -8 328 -8 c 0
 142 -8 41 95 41 284 c 0
 41 496 140 708 403 708 c 0
389 576 m 0
 273 576 200 478 200 298 c 0
 200 184 248 123 342 123 c 0
 456 123 531 221 531 400 c 0
 531 515 483 576 389 576 c 0
EndSplineSet
Position2: "'cpsp' Capital Spacing lookup 0 subtable" dx=5 dy=0 dh=10 dv=0
EndChar

StartChar: Ohookabove
Encoding: 7886 7886 117
Width: 731
GlyphClass: 2
Flags: MW
HStem: -8 131<295 399 295 445> 576 132<331 436> 867 61<403.5 416.5>
VStem: 41 159<241 388 241 390> 439 87<828 852> 531 158<310.5 457.5>
AnchorPoint: "Anchor-1" 414 877 basechar 0
AnchorPoint: "Anchor-0" 327 0 basechar 0
LayerCount: 2
Fore
SplineSet
439 845 m 0
 439 859 426 867 407 867 c 0
 385 867 372 855 363 855 c 0
 355 855 338 882 338 897 c 0
 338 910 386 928 421 928 c 0
 489 928 526 894 526 851 c 0
 526 799 440 747 424 747 c 0
 386 747 367 758 367 768 c 0
 367 790 439 811 439 845 c 0
403 708 m 0xf4
 589 708 689 604 689 414 c 0
 689 143 562 -8 328 -8 c 0
 142 -8 41 95 41 284 c 0
 41 496 140 708 403 708 c 0xf4
389 576 m 0
 273 576 200 478 200 298 c 0
 200 184 248 123 342 123 c 0
 456 123 531 221 531 400 c 0
 531 515 483 576 389 576 c 0
EndSplineSet
Position2: "'cpsp' Capital Spacing lookup 0 subtable" dx=5 dy=0 dh=10 dv=0
EndChar

StartChar: Ohorn
Encoding: 416 416 118
Width: 731
GlyphClass: 2
Flags: MW
HStem: -8 131<295 399 295 445> 576 106 576 132<331 430 271.5 436>
VStem: 41 159<241 388 241 390> 531 158<310.5 457.5> 626 81<712.5 731>
AnchorPoint: "Anchor-1" 422 702 basechar 0
AnchorPoint: "Anchor-0" 327 0 basechar 0
LayerCount: 2
Fore
SplineSet
606 642 m 1xb8
 661 592 689 515 689 414 c 0
 689 143 562 -8 328 -8 c 0
 142 -8 41 95 41 284 c 0
 41 496 140 708 403 708 c 0xb8
 457 708 504 699 543 682 c 1
 575 682 l 2
 609 682 626 695 626 722 c 0
 626 740 605 757 605 770 c 0xd4
 605 777 610 784 618 789 c 2
 652 811 l 2
 658 815 663 816 669 816 c 0
 695 816 707 763 707 737 c 0xb4
 707 688 672 652 606 642 c 1xb8
342 123 m 0
 456 123 531 221 531 400 c 0
 531 515 483 576 389 576 c 0
 273 576 200 478 200 298 c 0
 200 184 248 123 342 123 c 0
EndSplineSet
Position2: "'cpsp' Capital Spacing lookup 0 subtable" dx=5 dy=0 dh=10 dv=0
EndChar

StartChar: Ohornacute
Encoding: 7898 7898 119
Width: 731
GlyphClass: 2
Flags: MW
HStem: -8 131<295 399 295 445> 576 106 576 132<331 430 271.5 436> 754 159<383 549>
VStem: 41 159<241 388 241 390> 531 158<310.5 457.5> 626 81<712.5 731>
AnchorPoint: "Anchor-1" 422 702 basechar 0
AnchorPoint: "Anchor-0" 327 0 basechar 0
LayerCount: 2
Fore
SplineSet
394 754 m 0xbc
 372 754 365 757 365 767 c 0
 365 778 384 798 442 886 c 0
 456 907 490 913 530 913 c 0
 568 913 588 910 588 900 c 0
 588 887 584 889 472 779 c 0
 460 767 441 754 394 754 c 0xbc
606 642 m 1
 661 592 689 515 689 414 c 0
 689 143 562 -8 328 -8 c 0
 142 -8 41 95 41 284 c 0
 41 496 140 708 403 708 c 0xbc
 457 708 504 699 543 682 c 1
 575 682 l 2
 609 682 626 695 626 722 c 0
 626 740 605 757 605 770 c 0xda
 605 777 610 784 618 789 c 2
 652 811 l 2
 658 815 663 816 669 816 c 0
 695 816 707 763 707 737 c 0xba
 707 688 672 652 606 642 c 1
342 123 m 0
 456 123 531 221 531 400 c 0
 531 515 483 576 389 576 c 0
 273 576 200 478 200 298 c 0
 200 184 248 123 342 123 c 0
EndSplineSet
Position2: "'cpsp' Capital Spacing lookup 0 subtable" dx=5 dy=0 dh=10 dv=0
EndChar

StartChar: Ohorndotbelow
Encoding: 7906 7906 120
Width: 731
GlyphClass: 2
Flags: MW
HStem: -204 124<295 323> -8 131<295 399 295 445> 576 106 576 132<331 430 271.5 436>
VStem: 41 159<241 388 241 390> 246 127<-182.5 -101.5> 531 158<310.5 457.5> 626 81<712.5 731>
AnchorPoint: "Anchor-1" 422 702 basechar 0
AnchorPoint: "Anchor-0" 306 -203 basechar 0
LayerCount: 2
Fore
SplineSet
606 642 m 1x5a
 661 592 689 515 689 414 c 0
 689 143 562 -8 328 -8 c 0
 142 -8 41 95 41 284 c 0
 41 496 140 708 403 708 c 0x5a
 457 708 504 699 543 682 c 1
 575 682 l 2
 609 682 626 695 626 722 c 0
 626 740 605 757 605 770 c 0x69
 605 777 610 784 618 789 c 2
 652 811 l 2
 658 815 663 816 669 816 c 0
 695 816 707 763 707 737 c 0x59
 707 688 672 652 606 642 c 1x5a
342 123 m 0
 456 123 531 221 531 400 c 0
 531 515 483 576 389 576 c 0
 273 576 200 478 200 298 c 0
 200 184 248 123 342 123 c 0
316 -80 m 0xde
 359 -80 373 -91 373 -112 c 2
 366 -172 l 2
 363 -193 343 -204 303 -204 c 0
 260 -204 246 -193 246 -172 c 2
 253 -112 l 2
 255 -91 274 -80 316 -80 c 0xde
EndSplineSet
Position2: "'cpsp' Capital Spacing lookup 0 subtable" dx=5 dy=0 dh=10 dv=0
EndChar

StartChar: Ohorngrave
Encoding: 7900 7900 121
Width: 731
GlyphClass: 2
Flags: MW
HStem: -8 131<295 399 295 445> 576 106 576 132<331 430 271.5 436> 754 159<331 466>
VStem: 41 159<241 388 241 390> 531 158<310.5 457.5> 626 81<712.5 731>
AnchorPoint: "Anchor-1" 422 702 basechar 0
AnchorPoint: "Anchor-0" 327 0 basechar 0
LayerCount: 2
Fore
SplineSet
454 754 m 0xbc
 407 754 392 767 382 779 c 0
 300 879 290 887 290 897 c 0
 290 910 310 913 352 913 c 0
 392 913 424 907 434 886 c 0
 471 807 487 781 487 770 c 0
 487 758 478 754 454 754 c 0xbc
606 642 m 1
 661 592 689 515 689 414 c 0
 689 143 562 -8 328 -8 c 0
 142 -8 41 95 41 284 c 0
 41 496 140 708 403 708 c 0xbc
 457 708 504 699 543 682 c 1
 575 682 l 2
 609 682 626 695 626 722 c 0
 626 740 605 757 605 770 c 0xda
 605 777 610 784 618 789 c 2
 652 811 l 2
 658 815 663 816 669 816 c 0
 695 816 707 763 707 737 c 0xba
 707 688 672 652 606 642 c 1
342 123 m 0
 456 123 531 221 531 400 c 0
 531 515 483 576 389 576 c 0
 273 576 200 478 200 298 c 0
 200 184 248 123 342 123 c 0
EndSplineSet
Position2: "'cpsp' Capital Spacing lookup 0 subtable" dx=5 dy=0 dh=10 dv=0
EndChar

StartChar: Ohornhookabove
Encoding: 7902 7902 122
Width: 731
GlyphClass: 2
Flags: MW
HStem: -8 131<295 399 295 445> 576 106 576 132<331 430 271.5 436> 869 61<429.5 442.5>
VStem: 41 159<241 388 241 390> 465 87<830 854> 531 158<310.5 457.5> 626 81<712.5 731>
AnchorPoint: "Anchor-1" 422 702 basechar 0
AnchorPoint: "Anchor-0" 327 0 basechar 0
LayerCount: 2
Fore
SplineSet
389 857 m 0xbc
 381 857 364 884 364 899 c 0
 364 912 412 930 447 930 c 0
 515 930 552 896 552 853 c 0
 552 801 466 749 450 749 c 0
 412 749 393 760 393 770 c 0
 393 792 465 813 465 847 c 0
 465 861 452 869 433 869 c 0
 411 869 398 857 389 857 c 0xbc
606 642 m 1xba
 661 592 689 515 689 414 c 0
 689 143 562 -8 328 -8 c 0
 142 -8 41 95 41 284 c 0
 41 496 140 708 403 708 c 0xba
 457 708 504 699 543 682 c 1
 575 682 l 2
 609 682 626 695 626 722 c 0
 626 740 605 757 605 770 c 0
 605 777 610 784 618 789 c 2
 652 811 l 2
 658 815 663 816 669 816 c 0
 695 816 707 763 707 737 c 0xd9
 707 688 672 652 606 642 c 1xba
342 123 m 0
 456 123 531 221 531 400 c 0
 531 515 483 576 389 576 c 0
 273 576 200 478 200 298 c 0
 200 184 248 123 342 123 c 0
EndSplineSet
Position2: "'cpsp' Capital Spacing lookup 0 subtable" dx=5 dy=0 dh=10 dv=0
EndChar

StartChar: Ohorntilde
Encoding: 7904 7904 123
Width: 731
GlyphClass: 2
Flags: MW
HStem: -8 131<295 399 295 445> 576 106 576 132<331 430 271.5 436> 760 86<482.5 495.5> 772 100
VStem: 41 159<241 388 241 390> 531 158<310.5 457.5> 626 81<712.5 731>
AnchorPoint: "Anchor-1" 422 702 basechar 0
AnchorPoint: "Anchor-0" 327 0 basechar 0
LayerCount: 2
Fore
SplineSet
321 772 m 0xae
 309 764 296 770 287 785 c 0
 277 801 276 818 288 831 c 0
 314 854 344 872 380 872 c 0xae
 408 872 424 867 443 859 c 0
 458 852 474 846 491 846 c 0
 511 846 525 851 540 861 c 0
 551 869 567 870 579 853 c 0
 590 837 591 826 572 801 c 0
 549 776 514 760 477 760 c 0xb6
 448 760 431 765 413 772 c 0
 397 778 383 786 366 786 c 0
 346 786 334 779 321 772 c 0xae
606 642 m 1
 661 592 689 515 689 414 c 0
 689 143 562 -8 328 -8 c 0
 142 -8 41 95 41 284 c 0
 41 496 140 708 403 708 c 0xae
 457 708 504 699 543 682 c 1
 575 682 l 2
 609 682 626 695 626 722 c 0
 626 740 605 757 605 770 c 0xcd
 605 777 610 784 618 789 c 2
 652 811 l 2
 658 815 663 816 669 816 c 0
 695 816 707 763 707 737 c 0xad
 707 688 672 652 606 642 c 1
342 123 m 0
 456 123 531 221 531 400 c 0
 531 515 483 576 389 576 c 0
 273 576 200 478 200 298 c 0
 200 184 248 123 342 123 c 0
EndSplineSet
Position2: "'cpsp' Capital Spacing lookup 0 subtable" dx=5 dy=0 dh=10 dv=0
EndChar

StartChar: Ohungarumlaut
Encoding: 336 336 124
Width: 731
GlyphClass: 2
Flags: MW
HStem: -8 131<295 399 295 445> 576 132<331 436> 752 159<291 457 418 507.5>
VStem: 41 159<241 388 241 390> 531 158<310.5 457.5>
AnchorPoint: "Anchor-1" 438 877 basechar 0
AnchorPoint: "Anchor-0" 327 0 basechar 0
LayerCount: 2
Fore
SplineSet
438 911 m 0
 476 911 496 908 496 898 c 0
 496 885 492 887 380 777 c 0
 368 765 349 752 302 752 c 0
 280 752 273 755 273 765 c 0
 273 776 292 796 350 884 c 0
 364 905 398 911 438 911 c 0
620 911 m 0
 658 911 678 908 678 898 c 0
 678 885 674 887 562 777 c 0
 550 765 531 752 484 752 c 0
 462 752 455 755 455 765 c 0
 455 776 474 796 532 884 c 0
 546 905 580 911 620 911 c 0
403 708 m 0
 589 708 689 604 689 414 c 0
 689 143 562 -8 328 -8 c 0
 142 -8 41 95 41 284 c 0
 41 496 140 708 403 708 c 0
389 576 m 0
 273 576 200 478 200 298 c 0
 200 184 248 123 342 123 c 0
 456 123 531 221 531 400 c 0
 531 515 483 576 389 576 c 0
EndSplineSet
Position2: "'cpsp' Capital Spacing lookup 0 subtable" dx=5 dy=0 dh=10 dv=0
EndChar

StartChar: Omacron
Encoding: 332 332 125
Width: 731
GlyphClass: 2
Flags: MW
HStem: -8 131<295 399 295 445> 576 132<331 436> 774 95<290 526 310 515>
VStem: 41 159<241 388 241 390> 531 158<310.5 457.5>
AnchorPoint: "Anchor-1" 425 877 basechar 0
AnchorPoint: "Anchor-0" 327 0 basechar 0
LayerCount: 2
Fore
SplineSet
310 869 m 2
 526 869 l 2
 543 869 552 859 552 839 c 0
 552 818 548 774 515 774 c 2
 299 774 l 2
 281 774 273 783 273 804 c 0
 273 825 276 869 310 869 c 2
403 708 m 0
 589 708 689 604 689 414 c 0
 689 143 562 -8 328 -8 c 0
 142 -8 41 95 41 284 c 0
 41 496 140 708 403 708 c 0
389 576 m 0
 273 576 200 478 200 298 c 0
 200 184 248 123 342 123 c 0
 456 123 531 221 531 400 c 0
 531 515 483 576 389 576 c 0
EndSplineSet
Position2: "'cpsp' Capital Spacing lookup 0 subtable" dx=5 dy=0 dh=10 dv=0
EndChar

StartChar: Oogonek
Encoding: 490 490 126
Width: 731
GlyphClass: 2
Flags: MW
HStem: -183 70<452 464> -8 131<295 334> 576 132<331 436>
VStem: 41 159<241 388 241 390> 336 69<-90 -82> 531 158<310.5 457.5>
AnchorPoint: "Anchor-1" 396 700 basechar 0
AnchorPoint: "Anchor-0" 379 -203 basechar 0
LayerCount: 2
Fore
SplineSet
689 414 m 0
 689 182 596 38 423 1 c 1
 423 -3 l 2
 423 -20 405 -34 405 -70 c 0
 405 -110 441 -113 463 -113 c 0
 493 -113 512 -99 521 -99 c 0
 530 -99 532 -107 532 -129 c 0
 532 -171 484 -183 444 -183 c 0
 350 -183 336 -127 336 -94 c 0
 336 -70 344 -31 363 -7 c 1
 352 -8 340 -8 328 -8 c 0
 142 -8 41 95 41 284 c 0
 41 496 140 708 403 708 c 0
 589 708 689 604 689 414 c 0
342 123 m 0
 456 123 531 221 531 400 c 0
 531 515 483 576 389 576 c 0
 273 576 200 478 200 298 c 0
 200 184 248 123 342 123 c 0
EndSplineSet
Position2: "'cpsp' Capital Spacing lookup 0 subtable" dx=5 dy=0 dh=10 dv=0
EndChar

StartChar: Oslash
Encoding: 216 216 127
Width: 731
GlyphClass: 2
Flags: MW
HStem: -8 131<318.5 399 318.5 445> 576 132<331 405.5>
VStem: 41 159<289.5 388 289.5 390> 531 158<310.5 416.5>
AnchorPoint: "Anchor-1" 366 700 basechar 0
AnchorPoint: "Anchor-0" 0 0 basechar 0
LayerCount: 2
Fore
SplineSet
403 708 m 0
 471 708 528 694 572 666 c 1
 612 712 l 2
 619 720 626 724 634 724 c 0
 640 724 647 721 654 714 c 2
 670 700 l 2
 678 693 682 685 682 678 c 0
 682 672 679 665 672 658 c 2
 632 613 l 1
 670 564 689 497 689 414 c 0
 689 143 562 -8 328 -8 c 0
 246 -8 180 12 133 50 c 1
 89 0 l 2
 82 -8 74 -12 67 -12 c 0
 61 -12 54 -9 47 -2 c 2
 31 12 l 2
 23 19 19 26 19 34 c 0
 19 40 22 47 29 54 c 2
 80 112 l 1
 54 157 41 215 41 284 c 0
 41 496 140 708 403 708 c 0
389 576 m 0
 273 576 200 478 200 298 c 0
 200 281 201 265 203 250 c 1
 471 553 l 1
 450 568 422 576 389 576 c 0
519 485 m 1
 236 167 l 1
 260 138 295 123 342 123 c 0
 456 123 531 221 531 400 c 0
 531 433 527 461 519 485 c 1
EndSplineSet
Position2: "'cpsp' Capital Spacing lookup 0 subtable" dx=5 dy=0 dh=10 dv=0
EndChar

StartChar: Oslashacute
Encoding: 510 510 128
Width: 731
GlyphClass: 2
Flags: MW
HStem: -8 131<318.5 399 318.5 445> 576 132<331 405.5> 752 159<327 493>
VStem: 41 159<289.5 388 289.5 390> 531 158<310.5 416.5>
AnchorPoint: "Anchor-1" 402 877 basechar 0
AnchorPoint: "Anchor-0" 0 0 basechar 0
LayerCount: 2
Fore
SplineSet
474 911 m 0
 512 911 532 908 532 898 c 0
 532 885 528 887 416 777 c 0
 404 765 385 752 338 752 c 0
 316 752 309 755 309 765 c 0
 309 776 328 796 386 884 c 0
 400 905 434 911 474 911 c 0
403 708 m 0
 471 708 528 694 572 666 c 1
 612 712 l 2
 619 720 626 724 634 724 c 0
 640 724 647 721 654 714 c 2
 670 700 l 2
 678 693 682 685 682 678 c 0
 682 672 679 665 672 658 c 2
 632 613 l 1
 670 564 689 497 689 414 c 0
 689 143 562 -8 328 -8 c 0
 246 -8 180 12 133 50 c 1
 89 0 l 2
 82 -8 74 -12 67 -12 c 0
 61 -12 54 -9 47 -2 c 2
 31 12 l 2
 23 19 19 26 19 34 c 0
 19 40 22 47 29 54 c 2
 80 112 l 1
 54 157 41 215 41 284 c 0
 41 496 140 708 403 708 c 0
389 576 m 0
 273 576 200 478 200 298 c 0
 200 281 201 265 203 250 c 1
 471 553 l 1
 450 568 422 576 389 576 c 0
519 485 m 1
 236 167 l 1
 260 138 295 123 342 123 c 0
 456 123 531 221 531 400 c 0
 531 433 527 461 519 485 c 1
EndSplineSet
Position2: "'cpsp' Capital Spacing lookup 0 subtable" dx=5 dy=0 dh=10 dv=0
EndChar

StartChar: Otilde
Encoding: 213 213 129
Width: 731
GlyphClass: 2
Flags: MW
HStem: -8 131<295 399 295 445> 576 132<331 436> 758 86<463.5 477.5> 770 100
VStem: 41 159<241 388 241 390> 531 158<310.5 457.5>
AnchorPoint: "Anchor-1" 420 877 basechar 0
AnchorPoint: "Anchor-0" 327 0 basechar 0
LayerCount: 2
Fore
SplineSet
527 859 m 0xec
 540 867 558 868 571 851 c 0
 583 835 584 824 563 799 c 0
 538 774 498 758 457 758 c 0xec
 426 758 406 763 386 770 c 0
 368 776 353 784 334 784 c 0
 312 784 298 777 284 770 c 0
 270 762 256 768 246 783 c 0
 235 799 234 816 247 829 c 0
 276 852 309 870 350 870 c 0xdc
 380 870 398 865 419 857 c 0
 437 850 454 844 473 844 c 0
 495 844 510 849 527 859 c 0xec
403 708 m 0xdc
 589 708 689 604 689 414 c 0
 689 143 562 -8 328 -8 c 0
 142 -8 41 95 41 284 c 0
 41 496 140 708 403 708 c 0xdc
389 576 m 0
 273 576 200 478 200 298 c 0
 200 184 248 123 342 123 c 0
 456 123 531 221 531 400 c 0
 531 515 483 576 389 576 c 0
EndSplineSet
Position2: "'cpsp' Capital Spacing lookup 0 subtable" dx=5 dy=0 dh=10 dv=0
EndChar

StartChar: OE
Encoding: 338 338 130
Width: 1021
GlyphClass: 2
Flags: MW
HStem: -8 131<295 351.5> 0 131<518.5 912 660 900> 293 131<691 903 678 915> 569 131<707 959 707 707> 576 132<331 426.5 285.5 436>
VStem: 41 159<241 388 241 419>
AnchorPoint: "Anchor-1" 511 700 basechar 0
AnchorPoint: "Anchor-0" 0 0 basechar 0
LayerCount: 2
Fore
SplineSet
605 700 m 2x74
 971 700 l 2
 989 700 997 688 997 660 c 0
 997 608 988 569 959 569 c 2
 707 569 l 1
 691 424 l 1
 915 424 l 2
 933 424 941 412 941 384 c 0
 941 332 932 293 903 293 c 2
 678 293 l 1
 660 131 l 1
 912 131 l 2
 930 131 938 119 938 91 c 0
 938 39 929 0 900 0 c 2
 532 0 l 2x74
 505 0 496 8 496 32 c 2
 496 36 l 1
 443 6 385 -8 318 -8 c 0
 138 -8 41 94 41 282 c 0
 41 556 178 708 393 708 c 0xac
 460 708 516 693 561 662 c 1
 566 688 577 700 605 700 c 2x74
342 123 m 0xac
 456 123 531 221 531 400 c 0
 531 515 483 576 389 576 c 0
 273 576 200 478 200 298 c 0
 200 184 248 123 342 123 c 0xac
EndSplineSet
Position2: "'cpsp' Capital Spacing lookup 0 subtable" dx=5 dy=0 dh=10 dv=0
EndChar

StartChar: P
Encoding: 80 80 131
Width: 570
GlyphClass: 2
Flags: MW
HStem: 262 132<226 322 322 325 212 322> 569 131<245 245 245 341>
VStem: 419 159<453.5 525.5>
LayerCount: 2
Fore
SplineSet
144 700 m 2
 361 700 l 2
 444 700 578 677 578 517 c 0
 578 291 393 262 325 262 c 2
 212 262 l 1
 188 30 l 2
 186 9 167 -2 125 -2 c 2
 91 -2 l 2
 48 -2 34 9 34 30 c 2
 100 660 l 2
 103 688 116 700 144 700 c 2
245 569 m 1
 226 394 l 1
 322 394 l 2
 362 394 419 411 419 496 c 0
 419 555 376 569 341 569 c 2
 245 569 l 1
EndSplineSet
Position2: "'cpsp' Capital Spacing lookup 0 subtable" dx=5 dy=0 dh=10 dv=0
EndChar

StartChar: Thorn
Encoding: 222 222 132
Width: 567
GlyphClass: 2
Flags: MW
HStem: 155 132<215 311 311 314 201 311> 462 131<233 350 247 329> 682 20G<164 198 198 219.5>
VStem: 408 159<346.5 418.5>
LayerCount: 2
Fore
SplineSet
164 702 m 2
 198 702 l 2
 241 702 255 691 255 670 c 2
 247 593 l 1
 350 593 l 2
 433 593 567 570 567 408 c 0
 567 184 370 155 314 155 c 2
 201 155 l 1
 188 30 l 2
 186 9 167 -2 125 -2 c 2
 91 -2 l 2
 48 -2 34 9 34 30 c 2
 101 670 l 2
 103 691 122 702 164 702 c 2
233 462 m 1
 215 287 l 1
 311 287 l 2
 350 287 408 304 408 389 c 0
 408 448 364 462 329 462 c 2
 233 462 l 1
EndSplineSet
Position2: "'cpsp' Capital Spacing lookup 0 subtable" dx=5 dy=0 dh=10 dv=0
EndChar

StartChar: Q
Encoding: 81 81 133
Width: 731
GlyphClass: 2
Flags: MW
HStem: 576 130<332 436.5>
VStem: 41 159<286 387 239 392.5> 531 158<318.5 459.5>
LayerCount: 2
Fore
SplineSet
404 706 m 0
 590 706 689 604 689 414 c 0
 689 223 614 89 496 31 c 1
 495 27 l 1
 637 -27 l 2
 650 -32 654 -40 654 -54 c 0
 654 -155 636 -162 625 -162 c 0
 615 -162 396 -68 192 16 c 0
 93 57 42 149 41 286 c 0
 41 499 143 706 404 706 c 0
390 576 m 0
 274 576 200 477 200 297 c 0
 200 181 248 119 342 119 c 0
 457 119 531 219 531 403 c 0
 531 516 483 576 390 576 c 0
EndSplineSet
Position2: "'cpsp' Capital Spacing lookup 0 subtable" dx=5 dy=0 dh=10 dv=0
EndChar

StartChar: R
Encoding: 82 82 134
Width: 610
GlyphClass: 2
Flags: MW
HStem: 274 133<229 254 215 324> 569 131<246 246 246 334>
VStem: 410 161<492 522>
AnchorPoint: "Anchor-1" 332 700 basechar 0
AnchorPoint: "Anchor-0" 276 0 basechar 0
LayerCount: 2
Fore
SplineSet
145 700 m 2
 340 700 l 2
 500 700 571 641 571 537 c 0
 571 447 517 382 436 353 c 1
 436 349 l 1
 459 339 485 300 498 257 c 2
 563 37 l 2
 565 29 566 23 566 18 c 0
 564 6 545 -2 504 -2 c 2
 463 -2 l 2
 433 -2 412 3 407 19 c 2
 348 214 l 2
 333 254 319 274 254 274 c 2
 215 274 l 1
 189 30 l 2
 187 9 168 -2 126 -2 c 2
 92 -2 l 2
 49 -2 35 9 35 30 c 2
 101 660 l 2
 104 688 117 700 145 700 c 2
246 569 m 1
 229 407 l 1
 324 407 l 2
 367 407 410 449 410 501 c 0
 410 543 383 569 334 569 c 2
 246 569 l 1
EndSplineSet
Position2: "'cpsp' Capital Spacing lookup 0 subtable" dx=5 dy=0 dh=10 dv=0
EndChar

StartChar: Racute
Encoding: 340 340 135
Width: 610
GlyphClass: 2
Flags: MW
HStem: 274 133<229 254 215 324> 569 131<246 246 246 334> 752 159<293 459>
VStem: 410 161<492 522>
AnchorPoint: "Anchor-1" 368 877 basechar 0
AnchorPoint: "Anchor-0" 276 0 basechar 0
LayerCount: 2
Fore
SplineSet
440 911 m 0
 478 911 498 908 498 898 c 0
 498 885 494 887 382 777 c 0
 370 765 351 752 304 752 c 0
 282 752 275 755 275 765 c 0
 275 776 294 796 352 884 c 0
 366 905 400 911 440 911 c 0
145 700 m 2
 340 700 l 2
 500 700 571 641 571 537 c 0
 571 447 517 382 436 353 c 1
 436 349 l 1
 459 339 485 300 498 257 c 2
 563 37 l 2
 565 29 566 23 566 18 c 0
 564 6 545 -2 504 -2 c 2
 463 -2 l 2
 433 -2 412 3 407 19 c 2
 348 214 l 2
 333 254 319 274 254 274 c 2
 215 274 l 1
 189 30 l 2
 187 9 168 -2 126 -2 c 2
 92 -2 l 2
 49 -2 35 9 35 30 c 2
 101 660 l 2
 104 688 117 700 145 700 c 2
246 569 m 1
 229 407 l 1
 324 407 l 2
 367 407 410 449 410 501 c 0
 410 543 383 569 334 569 c 2
 246 569 l 1
EndSplineSet
Position2: "'cpsp' Capital Spacing lookup 0 subtable" dx=5 dy=0 dh=10 dv=0
EndChar

StartChar: Rcaron
Encoding: 344 344 136
Width: 610
GlyphClass: 2
Flags: MW
HStem: 274 133<229 254 215 324> 569 131<246 246 246 334> 749 146<231 328 231 339>
VStem: 410 161<492 522>
AnchorPoint: "Anchor-1" 353 877 basechar 0
AnchorPoint: "Anchor-0" 276 0 basechar 0
LayerCount: 2
Fore
SplineSet
442 895 m 2
 466 895 l 2
 478 895 485 891 485 885 c 0
 485 881 483 876 478 870 c 2
 402 768 l 2
 389 750 368 749 339 749 c 2
 328 749 l 2
 299 749 279 750 269 768 c 2
 215 870 l 2
 213 875 212 878 212 882 c 0
 212 890 218 895 231 895 c 2
 253 895 l 2
 282 895 305 889 317 871 c 2
 342 831 l 1
 373 870 l 2
 390 892 414 894 442 895 c 2
145 700 m 2
 340 700 l 2
 500 700 571 641 571 537 c 0
 571 447 517 382 436 353 c 1
 436 349 l 1
 459 339 485 300 498 257 c 2
 563 37 l 2
 565 29 566 23 566 18 c 0
 564 6 545 -2 504 -2 c 2
 463 -2 l 2
 433 -2 412 3 407 19 c 2
 348 214 l 2
 333 254 319 274 254 274 c 2
 215 274 l 1
 189 30 l 2
 187 9 168 -2 126 -2 c 2
 92 -2 l 2
 49 -2 35 9 35 30 c 2
 101 660 l 2
 104 688 117 700 145 700 c 2
246 569 m 1
 229 407 l 1
 324 407 l 2
 367 407 410 449 410 501 c 0
 410 543 383 569 334 569 c 2
 246 569 l 1
EndSplineSet
Position2: "'cpsp' Capital Spacing lookup 0 subtable" dx=5 dy=0 dh=10 dv=0
EndChar

StartChar: Rcommaaccent
Encoding: 342 342 137
Width: 610
GlyphClass: 2
Flags: MW
HStem: -240 189<197 284> 274 133<229 254 215 324> 569 131<246 246 246 334>
VStem: 200 129<-128.5 -82.5 -128.5 -81.5> 410 161<492 522>
AnchorPoint: "Anchor-1" 332 700 basechar 0
AnchorPoint: "Anchor-0" 260 -203 basechar 0
LayerCount: 2
Fore
SplineSet
145 700 m 2
 340 700 l 2
 500 700 571 641 571 537 c 0
 571 447 517 382 436 353 c 1
 436 349 l 1
 459 339 485 300 498 257 c 2
 563 37 l 2
 565 29 566 23 566 18 c 0
 564 6 545 -2 504 -2 c 2
 463 -2 l 2
 433 -2 412 3 407 19 c 2
 348 214 l 2
 333 254 319 274 254 274 c 2
 215 274 l 1
 189 30 l 2
 187 9 168 -2 126 -2 c 2
 92 -2 l 2
 49 -2 35 9 35 30 c 2
 101 660 l 2
 104 688 117 700 145 700 c 2
246 569 m 1
 229 407 l 1
 324 407 l 2
 367 407 410 449 410 501 c 0
 410 543 383 569 334 569 c 2
 246 569 l 1
265 -51 m 2
 284 -51 l 2
 319 -51 329 -70 329 -95 c 0
 329 -162 241 -240 206 -240 c 0
 188 -240 162 -234 163 -218 c 0
 165 -200 200 -175 200 -95 c 0
 200 -68 223 -51 265 -51 c 2
EndSplineSet
Position2: "'cpsp' Capital Spacing lookup 0 subtable" dx=5 dy=0 dh=10 dv=0
EndChar

StartChar: Rdotbelow
Encoding: 7770 7770 138
Width: 610
GlyphClass: 2
Flags: MW
HStem: -204 124<244 272> 274 133<229 254 215 324> 569 131<246 246 246 334>
VStem: 195 127<-182.5 -101.5> 410 161<492 522>
AnchorPoint: "Anchor-1" 285 -82 basechar 0
AnchorPoint: "Anchor-0" 255 -203 basechar 0
LayerCount: 2
Fore
SplineSet
145 700 m 2
 340 700 l 2
 500 700 571 641 571 537 c 0
 571 447 517 382 436 353 c 1
 436 349 l 1
 459 339 485 300 498 257 c 2
 563 37 l 2
 565 29 566 23 566 18 c 0
 564 6 545 -2 504 -2 c 2
 463 -2 l 2
 433 -2 412 3 407 19 c 2
 348 214 l 2
 333 254 319 274 254 274 c 2
 215 274 l 1
 189 30 l 2
 187 9 168 -2 126 -2 c 2
 92 -2 l 2
 49 -2 35 9 35 30 c 2
 101 660 l 2
 104 688 117 700 145 700 c 2
246 569 m 1
 229 407 l 1
 324 407 l 2
 367 407 410 449 410 501 c 0
 410 543 383 569 334 569 c 2
 246 569 l 1
265 -80 m 0
 308 -80 322 -91 322 -112 c 2
 315 -172 l 2
 312 -193 292 -204 252 -204 c 0
 209 -204 195 -193 195 -172 c 2
 202 -112 l 2
 204 -91 223 -80 265 -80 c 0
EndSplineSet
Position2: "'cpsp' Capital Spacing lookup 0 subtable" dx=5 dy=0 dh=10 dv=0
EndChar

StartChar: S
Encoding: 83 83 139
Width: 500
GlyphClass: 2
Flags: MW
HStem: -8 131<186 227.5 160.5 273.5> 576 132<265.5 342.5>
VStem: 49 161<484 524 484 566> 307 161<168.5 227>
AnchorPoint: "Anchor-1" 289 700 basechar 0
AnchorPoint: "Anchor-0" 233 0 basechar 0
LayerCount: 2
Fore
SplineSet
309 708 m 0
 413 708 482 672 482 640 c 0
 482 614 442 551 418 551 c 0
 405 551 376 576 309 576 c 0
 222 576 210 535 210 513 c 0
 210 455 273 438 337 408 c 0
 402 379 468 337 468 238 c 0
 468 41 329 -8 218 -8 c 0
 154 -8 26 12 26 70 c 0
 26 171 41 181 52 181 c 0
 70 181 115 123 206 123 c 0
 249 123 307 137 307 200 c 0
 307 254 235 271 167 304 c 0
 106 334 49 376 49 478 c 0
 49 654 186 708 309 708 c 0
EndSplineSet
Position2: "'cpsp' Capital Spacing lookup 0 subtable" dx=5 dy=0 dh=10 dv=0
EndChar

StartChar: Sacute
Encoding: 346 346 140
Width: 500
GlyphClass: 2
Flags: MW
HStem: -8 131<186 227.5 160.5 273.5> 576 132<265.5 342.5> 752 159<250 416>
VStem: 49 161<484 524 484 566> 307 161<168.5 227>
AnchorPoint: "Anchor-1" 325 877 basechar 0
AnchorPoint: "Anchor-0" 233 0 basechar 0
LayerCount: 2
Fore
SplineSet
397 911 m 0
 435 911 455 908 455 898 c 0
 455 885 451 887 339 777 c 0
 327 765 308 752 261 752 c 0
 239 752 232 755 232 765 c 0
 232 776 251 796 309 884 c 0
 323 905 357 911 397 911 c 0
309 708 m 0
 413 708 482 672 482 640 c 0
 482 614 442 551 418 551 c 0
 405 551 376 576 309 576 c 0
 222 576 210 535 210 513 c 0
 210 455 273 438 337 408 c 0
 402 379 468 337 468 238 c 0
 468 41 329 -8 218 -8 c 0
 154 -8 26 12 26 70 c 0
 26 171 41 181 52 181 c 0
 70 181 115 123 206 123 c 0
 249 123 307 137 307 200 c 0
 307 254 235 271 167 304 c 0
 106 334 49 376 49 478 c 0
 49 654 186 708 309 708 c 0
EndSplineSet
Substitution2: "'locl' Localized Forms in Latin lookup 11 subtable" Sacute.loclPLK
Substitution2: "'aalt' Access All Alternates lookup 0 subtable" Sacute.loclPLK
Position2: "'cpsp' Capital Spacing lookup 0 subtable" dx=5 dy=0 dh=10 dv=0
EndChar

StartChar: Scaron
Encoding: 352 352 141
Width: 500
GlyphClass: 2
Flags: MW
HStem: -8 131<186 227.5 160.5 273.5> 576 132<265.5 342.5> 749 146<188 285 188 296>
VStem: 49 161<484 524 484 566> 307 161<168.5 227>
AnchorPoint: "Anchor-1" 310 877 basechar 0
AnchorPoint: "Anchor-0" 233 0 basechar 0
LayerCount: 2
Fore
SplineSet
399 895 m 2
 423 895 l 2
 435 895 442 891 442 885 c 0
 442 881 440 876 435 870 c 2
 359 768 l 2
 346 750 325 749 296 749 c 2
 285 749 l 2
 256 749 236 750 226 768 c 2
 172 870 l 2
 170 875 169 878 169 882 c 0
 169 890 175 895 188 895 c 2
 210 895 l 2
 239 895 262 889 274 871 c 2
 299 831 l 1
 330 870 l 2
 347 892 371 894 399 895 c 2
309 708 m 0
 413 708 482 672 482 640 c 0
 482 614 442 551 418 551 c 0
 405 551 376 576 309 576 c 0
 222 576 210 535 210 513 c 0
 210 455 273 438 337 408 c 0
 402 379 468 337 468 238 c 0
 468 41 329 -8 218 -8 c 0
 154 -8 26 12 26 70 c 0
 26 171 41 181 52 181 c 0
 70 181 115 123 206 123 c 0
 249 123 307 137 307 200 c 0
 307 254 235 271 167 304 c 0
 106 334 49 376 49 478 c 0
 49 654 186 708 309 708 c 0
EndSplineSet
Position2: "'cpsp' Capital Spacing lookup 0 subtable" dx=5 dy=0 dh=10 dv=0
EndChar

StartChar: Scedilla
Encoding: 350 350 142
Width: 500
GlyphClass: 2
Flags: MW
HStem: -212 73<179.5 203 171 234> -7 130 576 132<265.5 342.5>
VStem: 49 161<484 524 484 566> 219 104 307 161<168.5 227>
AnchorPoint: "Anchor-1" 289 700 basechar 0
AnchorPoint: "Anchor-0" 192 -203 basechar 0
LayerCount: 2
Fore
SplineSet
337 408 m 0xf4
 402 379 468 337 468 238 c 0xf4
 468 68 365 8 265 -5 c 1
 253 -35 l 1
 285 -41 323 -63 323 -110 c 0
 323 -177 274 -212 194 -212 c 0
 165 -212 91 -207 91 -160 c 0
 91 -120 99 -112 105 -112 c 0
 117 -112 148 -139 194 -139 c 0
 212 -139 218 -133 219 -122 c 0
 218 -98 171 -98 171 -74 c 0
 171 -70 172 -65 197 -7 c 1xf8
 130 -4 26 18 26 70 c 0
 26 171 41 181 52 181 c 0
 70 181 115 123 206 123 c 0
 249 123 307 137 307 200 c 0
 307 254 235 271 167 304 c 0
 106 334 49 376 49 478 c 0
 49 654 186 708 309 708 c 0
 413 708 482 672 482 640 c 0
 482 614 442 551 418 551 c 0
 405 551 376 576 309 576 c 0
 222 576 210 535 210 513 c 0
 210 455 273 438 337 408 c 0xf4
EndSplineSet
Substitution2: "'locl' Localized Forms in Latin lookup 10 subtable" Scommaaccent
Substitution2: "'locl' Localized Forms in Latin lookup 9 subtable" Scommaaccent
Substitution2: "'aalt' Access All Alternates lookup 0 subtable" Scommaaccent
Position2: "'cpsp' Capital Spacing lookup 0 subtable" dx=5 dy=0 dh=10 dv=0
EndChar

StartChar: Scircumflex
Encoding: 348 348 143
Width: 500
GlyphClass: 2
Flags: MW
HStem: -8 131<186 227.5 160.5 273.5> 576 132<265.5 342.5> 749 146<166 310 172 310 299 385 299 407>
VStem: 49 161<484 524 484 566> 307 161<168.5 227>
AnchorPoint: "Anchor-1" 484 774 basechar 0
AnchorPoint: "Anchor-0" 233 0 basechar 0
LayerCount: 2
Fore
SplineSet
299 895 m 2
 310 895 l 2
 339 895 359 894 369 876 c 2
 423 774 l 2
 425 769 426 766 426 762 c 0
 426 754 420 749 407 749 c 2
 385 749 l 2
 355 749 333 754 321 773 c 2
 296 813 l 1
 265 774 l 2
 248 752 224 749 196 749 c 2
 172 749 l 2
 160 749 153 753 153 759 c 0
 153 763 155 768 160 774 c 2
 236 876 l 2
 249 894 270 895 299 895 c 2
309 708 m 0
 413 708 482 672 482 640 c 0
 482 614 442 551 418 551 c 0
 405 551 376 576 309 576 c 0
 222 576 210 535 210 513 c 0
 210 455 273 438 337 408 c 0
 402 379 468 337 468 238 c 0
 468 41 329 -8 218 -8 c 0
 154 -8 26 12 26 70 c 0
 26 171 41 181 52 181 c 0
 70 181 115 123 206 123 c 0
 249 123 307 137 307 200 c 0
 307 254 235 271 167 304 c 0
 106 334 49 376 49 478 c 0
 49 654 186 708 309 708 c 0
EndSplineSet
Position2: "'cpsp' Capital Spacing lookup 0 subtable" dx=5 dy=0 dh=10 dv=0
EndChar

StartChar: Scommaaccent
Encoding: 536 536 144
Width: 500
GlyphClass: 2
Flags: MW
HStem: -240 189<154 241> -8 131<186 227.5 160.5 273.5> 576 132<265.5 342.5>
VStem: 49 161<484 524 484 566> 157 129<-128.5 -82.5 -128.5 -81.5> 307 161<168.5 227>
AnchorPoint: "Anchor-1" 289 700 basechar 0
AnchorPoint: "Anchor-0" 217 -203 basechar 0
LayerCount: 2
Fore
SplineSet
309 708 m 0x74
 413 708 482 672 482 640 c 0
 482 614 442 551 418 551 c 0
 405 551 376 576 309 576 c 0
 222 576 210 535 210 513 c 0
 210 455 273 438 337 408 c 0
 402 379 468 337 468 238 c 0
 468 41 329 -8 218 -8 c 0
 154 -8 26 12 26 70 c 0
 26 171 41 181 52 181 c 0
 70 181 115 123 206 123 c 0
 249 123 307 137 307 200 c 0
 307 254 235 271 167 304 c 0
 106 334 49 376 49 478 c 0
 49 654 186 708 309 708 c 0x74
222 -51 m 2xec
 241 -51 l 2
 276 -51 286 -70 286 -95 c 0
 286 -162 198 -240 163 -240 c 0
 145 -240 119 -234 120 -218 c 0
 122 -200 157 -175 157 -95 c 0
 157 -68 180 -51 222 -51 c 2xec
EndSplineSet
Position2: "'cpsp' Capital Spacing lookup 0 subtable" dx=5 dy=0 dh=10 dv=0
EndChar

StartChar: Sdotbelow
Encoding: 7778 7778 145
Width: 500
GlyphClass: 2
Flags: MW
HStem: -204 124<201 229> -8 131<186 227.5 160.5 273.5> 576 132<265.5 342.5>
VStem: 49 161<484 524 484 566> 152 127<-182.5 -101.5> 307 161<168.5 227>
AnchorPoint: "Anchor-1" 242 -82 basechar 0
AnchorPoint: "Anchor-0" 212 -203 basechar 0
LayerCount: 2
Fore
SplineSet
309 708 m 0xf4
 413 708 482 672 482 640 c 0
 482 614 442 551 418 551 c 0
 405 551 376 576 309 576 c 0
 222 576 210 535 210 513 c 0
 210 455 273 438 337 408 c 0
 402 379 468 337 468 238 c 0
 468 41 329 -8 218 -8 c 0
 154 -8 26 12 26 70 c 0
 26 171 41 181 52 181 c 0
 70 181 115 123 206 123 c 0
 249 123 307 137 307 200 c 0
 307 254 235 271 167 304 c 0
 106 334 49 376 49 478 c 0
 49 654 186 708 309 708 c 0xf4
222 -80 m 0xec
 265 -80 279 -91 279 -112 c 2
 272 -172 l 2
 269 -193 249 -204 209 -204 c 0
 166 -204 152 -193 152 -172 c 2
 159 -112 l 2
 161 -91 180 -80 222 -80 c 0xec
EndSplineSet
Position2: "'cpsp' Capital Spacing lookup 0 subtable" dx=5 dy=0 dh=10 dv=0
EndChar

StartChar: uni1E9E
Encoding: 7838 7838 146
Width: 700
GlyphClass: 2
Flags: MW
HStem: -8 117<390.5 436.5 368 485> 576 132<338 400>
VStem: 521 150<187.5 248>
LayerCount: 2
Fore
SplineSet
398 708 m 0
 501 708 567 698 629 683 c 0
 648 678 661 624 661 596 c 0
 661 588 660 583 658 581 c 2
 527 397 l 1
 636 359 671 303 671 231 c 0
 671 82 558 -8 412 -8 c 0
 369 -8 268 -2 268 55 c 0
 268 127 281 149 292 149 c 0
 302 149 335 109 401 109 c 0
 472 109 521 151 521 224 c 0
 521 272 494 302 428 308 c 1
 389 308 l 2
 370 308 357 367 357 395 c 0
 357 403 358 408 360 410 c 2
 474 570 l 1
 449 573 419 576 381 576 c 0
 295 576 246 524 239 427 c 2
 197 30 l 2
 195 9 173 -2 134 -2 c 2
 99 -2 l 2
 82 -2 42 0 42 29 c 2
 83 422 l 2
 97 581 179 708 398 708 c 0
EndSplineSet
Position2: "'cpsp' Capital Spacing lookup 0 subtable" dx=5 dy=0 dh=10 dv=0
EndChar

StartChar: Schwa
Encoding: 399 399 147
Width: 672
GlyphClass: 2
Flags: MW
HStem: -6 117<277.5 356 277.5 386.5> 343 99<303 353 259 370 259 468> 591 117<304 364.5>
VStem: 56 144<180.5 244.5 180.5 286.5> 475 150
LayerCount: 2
Fore
SplineSet
339 708 m 0
 537 708 625 603 625 433 c 0
 625 118 473 -6 300 -6 c 0
 97 -6 56 123 56 199 c 0
 56 374 197 442 321 442 c 0
 385 442 432 439 475 435 c 1
 471 562 409 591 320 591 c 0
 215 591 131 527 115 527 c 0
 111 527 107 527 107 541 c 0
 108 545 110 602 115 618 c 0
 136 689 269 708 339 708 c 0
468 343 m 1
 370 343 l 2
 236 343 200 271 200 218 c 0
 200 143 245 111 310 111 c 0
 402 111 449 209 468 343 c 1
EndSplineSet
Position2: "'cpsp' Capital Spacing lookup 0 subtable" dx=5 dy=0 dh=10 dv=0
EndChar

StartChar: T
Encoding: 84 84 148
Width: 549
GlyphClass: 2
Flags: MW
HStem: 569 131<51 546 72 219 374 534 374 374>
VStem: 34 538<634 635>
AnchorPoint: "Anchor-1" 309 700 basechar 0
AnchorPoint: "Anchor-0" 234 0 basechar 0
LayerCount: 2
Fore
SplineSet
72 700 m 2
 546 700 l 2
 564 700 572 688 572 660 c 0
 572 608 563 569 534 569 c 2
 374 569 l 1
 317 30 l 2
 315 9 293 -2 254 -2 c 2
 219 -2 l 2
 202 -2 162 0 162 29 c 2
 219 569 l 1
 60 569 l 2
 42 569 34 581 34 609 c 0
 34 661 43 700 72 700 c 2
EndSplineSet
Position2: "'cpsp' Capital Spacing lookup 0 subtable" dx=5 dy=0 dh=10 dv=0
EndChar

StartChar: Tbar
Encoding: 358 358 149
Width: 549
GlyphClass: 2
Flags: MW
HStem: 303 95<82 201 102 191 356 447> 569 131<51 546 72 219 374 534 374 374>
VStem: 34 538<634 635>
AnchorPoint: "Anchor-1" 309 700 basechar 0
AnchorPoint: "Anchor-0" 234 0 basechar 0
LayerCount: 2
Fore
SplineSet
72 700 m 2
 546 700 l 2
 564 700 572 688 572 660 c 0
 572 608 563 569 534 569 c 2
 374 569 l 1
 356 398 l 1
 458 398 l 2
 475 398 484 388 484 368 c 0
 484 347 480 303 447 303 c 2
 346 303 l 1
 317 30 l 2
 315 9 293 -2 254 -2 c 2
 219 -2 l 2
 202 -2 162 0 162 29 c 2
 191 303 l 1
 91 303 l 2
 73 303 65 312 65 333 c 0
 65 354 68 398 102 398 c 2
 201 398 l 1
 219 569 l 1
 60 569 l 2
 42 569 34 581 34 609 c 0
 34 661 43 700 72 700 c 2
EndSplineSet
Position2: "'cpsp' Capital Spacing lookup 0 subtable" dx=5 dy=0 dh=10 dv=0
EndChar

StartChar: Tcaron
Encoding: 356 356 150
Width: 549
GlyphClass: 2
Flags: MW
HStem: 569 131<51 546 72 219 374 534 374 374> 749 146<208 305 208 316>
VStem: 34 538<634 635>
AnchorPoint: "Anchor-1" 330 877 basechar 0
AnchorPoint: "Anchor-0" 234 0 basechar 0
LayerCount: 2
Fore
SplineSet
419 895 m 2
 443 895 l 2
 455 895 462 891 462 885 c 0
 462 881 460 876 455 870 c 2
 379 768 l 2
 366 750 345 749 316 749 c 2
 305 749 l 2
 276 749 256 750 246 768 c 2
 192 870 l 2
 190 875 189 878 189 882 c 0
 189 890 195 895 208 895 c 2
 230 895 l 2
 259 895 282 889 294 871 c 2
 319 831 l 1
 350 870 l 2
 367 892 391 894 419 895 c 2
72 700 m 2
 546 700 l 2
 564 700 572 688 572 660 c 0
 572 608 563 569 534 569 c 2
 374 569 l 1
 317 30 l 2
 315 9 293 -2 254 -2 c 2
 219 -2 l 2
 202 -2 162 0 162 29 c 2
 219 569 l 1
 60 569 l 2
 42 569 34 581 34 609 c 0
 34 661 43 700 72 700 c 2
EndSplineSet
Position2: "'cpsp' Capital Spacing lookup 0 subtable" dx=5 dy=0 dh=10 dv=0
EndChar

StartChar: Tcedilla
Encoding: 354 354 151
Width: 549
GlyphClass: 2
Flags: MW
HStem: -212 73<180.5 204 172 235> 569 131<51 546 72 219 374 534 374 374>
VStem: 34 538<634 635> 220 104
AnchorPoint: "Anchor-1" 309 700 basechar 0
AnchorPoint: "Anchor-0" 193 -203 basechar 0
LayerCount: 2
Fore
SplineSet
72 700 m 2xe0
 546 700 l 2
 564 700 572 688 572 660 c 0
 572 608 563 569 534 569 c 2
 374 569 l 1
 317 30 l 2
 315 12 298 1 267 -2 c 1
 254 -35 l 1
 286 -41 324 -63 324 -110 c 0
 324 -177 275 -212 195 -212 c 0
 166 -212 92 -207 92 -160 c 0
 92 -120 100 -112 106 -112 c 0
 118 -112 149 -139 195 -139 c 0
 213 -139 219 -133 220 -122 c 0
 219 -98 172 -98 172 -74 c 0
 172 -70 173 -65 201 -1 c 1
 183 1 162 8 162 29 c 2
 219 569 l 1xd0
 60 569 l 2
 42 569 34 581 34 609 c 0
 34 661 43 700 72 700 c 2xe0
EndSplineSet
Substitution2: "'locl' Localized Forms in Latin lookup 10 subtable" uni021A
Substitution2: "'locl' Localized Forms in Latin lookup 9 subtable" uni021A
Substitution2: "'aalt' Access All Alternates lookup 0 subtable" uni021A
Position2: "'cpsp' Capital Spacing lookup 0 subtable" dx=5 dy=0 dh=10 dv=0
EndChar

StartChar: uni021A
Encoding: 538 538 152
Width: 549
GlyphClass: 2
Flags: MW
HStem: -240 189<155 242> 569 131<51 546 72 219 374 534 374 374>
VStem: 158 129<-128.5 -82.5 -128.5 -81.5>
AnchorPoint: "Anchor-1" 309 700 basechar 0
AnchorPoint: "Anchor-0" 218 -203 basechar 0
LayerCount: 2
Fore
SplineSet
72 700 m 2
 546 700 l 2
 564 700 572 688 572 660 c 0
 572 608 563 569 534 569 c 2
 374 569 l 1
 317 30 l 2
 315 9 293 -2 254 -2 c 2
 219 -2 l 2
 202 -2 162 0 162 29 c 2
 219 569 l 1
 60 569 l 2
 42 569 34 581 34 609 c 0
 34 661 43 700 72 700 c 2
223 -51 m 2
 242 -51 l 2
 277 -51 287 -70 287 -95 c 0
 287 -162 199 -240 164 -240 c 0
 146 -240 120 -234 121 -218 c 0
 123 -200 158 -175 158 -95 c 0
 158 -68 181 -51 223 -51 c 2
EndSplineSet
Position2: "'cpsp' Capital Spacing lookup 0 subtable" dx=5 dy=0 dh=10 dv=0
EndChar

StartChar: Tdotbelow
Encoding: 7788 7788 153
Width: 549
GlyphClass: 2
Flags: MW
HStem: -204 124<202 230> 569 131<51 546 72 219 374 534 374 374>
VStem: 34 538<634 635> 153 127<-182.5 -101.5>
AnchorPoint: "Anchor-1" 243 -82 basechar 0
AnchorPoint: "Anchor-0" 213 -203 basechar 0
LayerCount: 2
Fore
SplineSet
72 700 m 2x60
 546 700 l 2
 564 700 572 688 572 660 c 0
 572 608 563 569 534 569 c 2
 374 569 l 1
 317 30 l 2
 315 9 293 -2 254 -2 c 2
 219 -2 l 2
 202 -2 162 0 162 29 c 2
 219 569 l 1
 60 569 l 2
 42 569 34 581 34 609 c 0
 34 661 43 700 72 700 c 2x60
223 -80 m 0xd0
 266 -80 280 -91 280 -112 c 2
 273 -172 l 2
 270 -193 250 -204 210 -204 c 0
 167 -204 153 -193 153 -172 c 2
 160 -112 l 2
 162 -91 181 -80 223 -80 c 0xd0
EndSplineSet
Position2: "'cpsp' Capital Spacing lookup 0 subtable" dx=5 dy=0 dh=10 dv=0
EndChar

StartChar: U
Encoding: 85 85 154
Width: 712
GlyphClass: 2
Flags: MW
HStem: -8 131<293.5 371 293.5 408> 682 20G<162 196 196 217.5 589 622 622 643.5>
VStem: 51 156<198 211>
AnchorPoint: "Anchor-1" 396 700 basechar 0
AnchorPoint: "Anchor-0" 317 0 basechar 0
LayerCount: 2
Fore
SplineSet
589 702 m 2
 622 702 l 2
 665 702 678 690 678 670 c 2
 633 234 l 2
 617 80 499 -8 317 -8 c 0
 148 -8 51 67 51 201 c 0
 51 221 52 222 98 670 c 0
 100 691 121 702 162 702 c 2
 196 702 l 2
 239 702 252 690 252 670 c 0
 207 239 207 234 207 229 c 0
 207 167 256 123 331 123 c 0
 411 123 474 174 481 244 c 2
 525 670 l 2
 527 691 548 702 589 702 c 2
EndSplineSet
Position2: "'cpsp' Capital Spacing lookup 0 subtable" dx=5 dy=0 dh=10 dv=0
EndChar

StartChar: Uacute
Encoding: 218 218 155
Width: 712
GlyphClass: 2
Flags: MW
HStem: -8 131<293.5 371 293.5 408> 682 20G<162 196 196 217.5 589 622 622 643.5> 752 159<357 523>
VStem: 51 156<198 211>
AnchorPoint: "Anchor-1" 432 877 basechar 0
AnchorPoint: "Anchor-0" 317 0 basechar 0
LayerCount: 2
Fore
SplineSet
504 911 m 0
 542 911 562 908 562 898 c 0
 562 885 558 887 446 777 c 0
 434 765 415 752 368 752 c 0
 346 752 339 755 339 765 c 0
 339 776 358 796 416 884 c 0
 430 905 464 911 504 911 c 0
589 702 m 2
 622 702 l 2
 665 702 678 690 678 670 c 2
 633 234 l 2
 617 80 499 -8 317 -8 c 0
 148 -8 51 67 51 201 c 0
 51 221 52 222 98 670 c 0
 100 691 121 702 162 702 c 2
 196 702 l 2
 239 702 252 690 252 670 c 0
 207 239 207 234 207 229 c 0
 207 167 256 123 331 123 c 0
 411 123 474 174 481 244 c 2
 525 670 l 2
 527 691 548 702 589 702 c 2
EndSplineSet
Position2: "'cpsp' Capital Spacing lookup 0 subtable" dx=5 dy=0 dh=10 dv=0
EndChar

StartChar: Ubreve
Encoding: 364 364 156
Width: 712
GlyphClass: 2
Flags: MW
HStem: -8 131<293.5 371 293.5 408> 682 20G<162 196 196 217.5 589 622 622 643.5> 752 91<383.5 438 383.5 442>
VStem: 51 156<198 211>
AnchorPoint: "Anchor-1" 415 863 basechar 0
AnchorPoint: "Anchor-0" 317 0 basechar 0
LayerCount: 2
Fore
SplineSet
526 892 m 0
 546 892 558 883 558 868 c 0
 558 809 485 752 399 752 c 0
 316 752 263 801 263 855 c 0
 263 879 275 892 302 892 c 0
 319 892 325 884 333 874 c 0
 344 860 358 843 409 843 c 0
 467 843 481 865 497 879 c 0
 504 886 512 892 526 892 c 0
589 702 m 2
 622 702 l 2
 665 702 678 690 678 670 c 2
 633 234 l 2
 617 80 499 -8 317 -8 c 0
 148 -8 51 67 51 201 c 0
 51 221 52 222 98 670 c 0
 100 691 121 702 162 702 c 2
 196 702 l 2
 239 702 252 690 252 670 c 0
 207 239 207 234 207 229 c 0
 207 167 256 123 331 123 c 0
 411 123 474 174 481 244 c 2
 525 670 l 2
 527 691 548 702 589 702 c 2
EndSplineSet
Position2: "'cpsp' Capital Spacing lookup 0 subtable" dx=5 dy=0 dh=10 dv=0
EndChar

StartChar: Ucircumflex
Encoding: 219 219 157
Width: 712
GlyphClass: 2
Flags: MW
HStem: -8 131<293.5 371 293.5 408> 682 20G<162 196 196 217.5 589 622 622 643.5> 749 146<273 417 279 417 406 492 406 514>
VStem: 51 156<198 211>
AnchorPoint: "Anchor-1" 591 774 basechar 0
AnchorPoint: "Anchor-0" 317 0 basechar 0
LayerCount: 2
Fore
SplineSet
406 895 m 2
 417 895 l 2
 446 895 466 894 476 876 c 2
 530 774 l 2
 532 769 533 766 533 762 c 0
 533 754 527 749 514 749 c 2
 492 749 l 2
 462 749 440 754 428 773 c 2
 403 813 l 1
 372 774 l 2
 355 752 331 749 303 749 c 2
 279 749 l 2
 267 749 260 753 260 759 c 0
 260 763 262 768 267 774 c 2
 343 876 l 2
 356 894 377 895 406 895 c 2
589 702 m 2
 622 702 l 2
 665 702 678 690 678 670 c 2
 633 234 l 2
 617 80 499 -8 317 -8 c 0
 148 -8 51 67 51 201 c 0
 51 221 52 222 98 670 c 0
 100 691 121 702 162 702 c 2
 196 702 l 2
 239 702 252 690 252 670 c 0
 207 239 207 234 207 229 c 0
 207 167 256 123 331 123 c 0
 411 123 474 174 481 244 c 2
 525 670 l 2
 527 691 548 702 589 702 c 2
EndSplineSet
Position2: "'cpsp' Capital Spacing lookup 0 subtable" dx=5 dy=0 dh=10 dv=0
EndChar

StartChar: Udieresis
Encoding: 220 220 158
Width: 712
GlyphClass: 2
Flags: MW
HStem: -8 131<293.5 371 293.5 408> 682 20G<162 196 196 217.5 589 622 622 643.5> 755 124<305 333 485 513>
VStem: 51 156<198 211> 256 127<776.5 857.5> 436 127<776.5 857.5>
AnchorPoint: "Anchor-1" 419 877 basechar 0
AnchorPoint: "Anchor-0" 317 0 basechar 0
LayerCount: 2
Fore
SplineSet
326 879 m 0
 369 879 383 868 383 847 c 2
 376 787 l 2
 373 766 353 755 313 755 c 0
 270 755 256 766 256 787 c 2
 263 847 l 2
 265 868 284 879 326 879 c 0
506 879 m 0
 549 879 563 868 563 847 c 2
 556 787 l 2
 553 766 533 755 493 755 c 0
 450 755 436 766 436 787 c 2
 443 847 l 2
 445 868 464 879 506 879 c 0
589 702 m 2
 622 702 l 2
 665 702 678 690 678 670 c 2
 633 234 l 2
 617 80 499 -8 317 -8 c 0
 148 -8 51 67 51 201 c 0
 51 221 52 222 98 670 c 0
 100 691 121 702 162 702 c 2
 196 702 l 2
 239 702 252 690 252 670 c 0
 207 239 207 234 207 229 c 0
 207 167 256 123 331 123 c 0
 411 123 474 174 481 244 c 2
 525 670 l 2
 527 691 548 702 589 702 c 2
EndSplineSet
Position2: "'cpsp' Capital Spacing lookup 0 subtable" dx=5 dy=0 dh=10 dv=0
EndChar

StartChar: Udotbelow
Encoding: 7908 7908 159
Width: 712
GlyphClass: 2
Flags: MW
HStem: -204 124<285 313> -8 131<293.5 371 293.5 408> 682 20G<162 196 196 217.5 589 622 622 643.5>
VStem: 51 156<198 211> 236 127<-182.5 -101.5>
AnchorPoint: "Anchor-1" 326 -82 basechar 0
AnchorPoint: "Anchor-0" 296 -203 basechar 0
LayerCount: 2
Fore
SplineSet
589 702 m 2
 622 702 l 2
 665 702 678 690 678 670 c 2
 633 234 l 2
 617 80 499 -8 317 -8 c 0
 148 -8 51 67 51 201 c 0
 51 221 52 222 98 670 c 0
 100 691 121 702 162 702 c 2
 196 702 l 2
 239 702 252 690 252 670 c 0
 207 239 207 234 207 229 c 0
 207 167 256 123 331 123 c 0
 411 123 474 174 481 244 c 2
 525 670 l 2
 527 691 548 702 589 702 c 2
306 -80 m 0xf8
 349 -80 363 -91 363 -112 c 2
 356 -172 l 2
 353 -193 333 -204 293 -204 c 0
 250 -204 236 -193 236 -172 c 2
 243 -112 l 2
 245 -91 264 -80 306 -80 c 0xf8
EndSplineSet
Position2: "'cpsp' Capital Spacing lookup 0 subtable" dx=5 dy=0 dh=10 dv=0
EndChar

StartChar: Ugrave
Encoding: 217 217 160
Width: 712
GlyphClass: 2
Flags: MW
HStem: -8 131<293.5 371 293.5 408> 682 20G<162 196 196 217.5 589 622 622 643.5> 752 159<305 440>
VStem: 51 156<198 211>
AnchorPoint: "Anchor-1" 414 877 basechar 0
AnchorPoint: "Anchor-0" 317 0 basechar 0
LayerCount: 2
Fore
SplineSet
326 911 m 0
 366 911 398 905 408 884 c 0
 445 805 461 779 461 768 c 0
 461 756 452 752 428 752 c 0
 381 752 366 765 356 777 c 0
 274 877 264 885 264 895 c 0
 264 908 284 911 326 911 c 0
589 702 m 2
 622 702 l 2
 665 702 678 690 678 670 c 2
 633 234 l 2
 617 80 499 -8 317 -8 c 0
 148 -8 51 67 51 201 c 0
 51 221 52 222 98 670 c 0
 100 691 121 702 162 702 c 2
 196 702 l 2
 239 702 252 690 252 670 c 0
 207 239 207 234 207 229 c 0
 207 167 256 123 331 123 c 0
 411 123 474 174 481 244 c 2
 525 670 l 2
 527 691 548 702 589 702 c 2
EndSplineSet
Position2: "'cpsp' Capital Spacing lookup 0 subtable" dx=5 dy=0 dh=10 dv=0
EndChar

StartChar: Uhookabove
Encoding: 7910 7910 161
Width: 712
GlyphClass: 2
Flags: MW
HStem: -8 131<293.5 371 293.5 408> 682 20G<162 196 196 217.5 589 622 622 643.5> 867 61<403.5 416.5>
VStem: 51 156<198 211> 439 87<828 852>
AnchorPoint: "Anchor-1" 414 877 basechar 0
AnchorPoint: "Anchor-0" 317 0 basechar 0
LayerCount: 2
Fore
SplineSet
439 845 m 0
 439 859 426 867 407 867 c 0
 385 867 372 855 363 855 c 0
 355 855 338 882 338 897 c 0
 338 910 386 928 421 928 c 0
 489 928 526 894 526 851 c 0
 526 799 440 747 424 747 c 0
 386 747 367 758 367 768 c 0
 367 790 439 811 439 845 c 0
589 702 m 2
 622 702 l 2
 665 702 678 690 678 670 c 2
 633 234 l 2
 617 80 499 -8 317 -8 c 0
 148 -8 51 67 51 201 c 0
 51 221 52 222 98 670 c 0
 100 691 121 702 162 702 c 2
 196 702 l 2
 239 702 252 690 252 670 c 0
 207 239 207 234 207 229 c 0
 207 167 256 123 331 123 c 0
 411 123 474 174 481 244 c 2
 525 670 l 2
 527 691 548 702 589 702 c 2
EndSplineSet
Position2: "'cpsp' Capital Spacing lookup 0 subtable" dx=5 dy=0 dh=10 dv=0
EndChar

StartChar: Uhorn
Encoding: 431 431 162
Width: 712
GlyphClass: 2
Flags: MW
HStem: -8 131<293.5 371 293.5 408> 682 20G<162 196 196 217.5 589 647 647 664>
VStem: 51 156<198 211> 698 81<732.5 751>
AnchorPoint: "Anchor-1" 494 722 basechar 0
AnchorPoint: "Anchor-0" 317 0 basechar 0
LayerCount: 2
Fore
SplineSet
779 757 m 0
 779 708 743 672 677 662 c 1
 633 234 l 2
 617 80 499 -8 317 -8 c 0
 148 -8 51 67 51 201 c 0
 51 221 52 222 98 670 c 0
 100 691 121 702 162 702 c 2
 196 702 l 2
 239 702 252 690 252 670 c 0
 207 239 207 234 207 229 c 0
 207 167 256 123 331 123 c 0
 411 123 474 174 481 244 c 2
 525 670 l 2
 527 691 548 702 589 702 c 2
 647 702 l 2
 681 702 698 715 698 742 c 0
 698 760 677 777 677 790 c 0
 677 797 682 804 690 809 c 2
 724 831 l 2
 730 835 735 836 741 836 c 0
 767 836 779 783 779 757 c 0
EndSplineSet
Position2: "'cpsp' Capital Spacing lookup 0 subtable" dx=5 dy=0 dh=10 dv=0
EndChar

StartChar: Uhornacute
Encoding: 7912 7912 163
Width: 712
GlyphClass: 2
Flags: MW
HStem: -8 131<293.5 371 293.5 408> 682 20G<162 196 196 217.5 589 647 647 664> 752 159<357 523>
VStem: 51 156<198 211> 698 81<732.5 751>
AnchorPoint: "Anchor-1" 494 722 basechar 0
AnchorPoint: "Anchor-0" 317 0 basechar 0
LayerCount: 2
Fore
SplineSet
368 752 m 0
 346 752 339 755 339 765 c 0
 339 776 358 796 416 884 c 0
 430 905 464 911 504 911 c 0
 542 911 562 908 562 898 c 0
 562 885 558 887 446 777 c 0
 434 765 415 752 368 752 c 0
779 757 m 0
 779 708 743 672 677 662 c 1
 633 234 l 2
 617 80 499 -8 317 -8 c 0
 148 -8 51 67 51 201 c 0
 51 221 52 222 98 670 c 0
 100 691 121 702 162 702 c 2
 196 702 l 2
 239 702 252 690 252 670 c 0
 207 239 207 234 207 229 c 0
 207 167 256 123 331 123 c 0
 411 123 474 174 481 244 c 2
 525 670 l 2
 527 691 548 702 589 702 c 2
 647 702 l 2
 681 702 698 715 698 742 c 0
 698 760 677 777 677 790 c 0
 677 797 682 804 690 809 c 2
 724 831 l 2
 730 835 735 836 741 836 c 0
 767 836 779 783 779 757 c 0
EndSplineSet
Position2: "'cpsp' Capital Spacing lookup 0 subtable" dx=5 dy=0 dh=10 dv=0
EndChar

StartChar: Uhorndotbelow
Encoding: 7920 7920 164
Width: 712
GlyphClass: 2
Flags: MW
HStem: -204 124<285 313> -8 131<293.5 371 293.5 408> 682 20G<162 196 196 217.5 589 647 647 664>
VStem: 51 156<198 211> 236 127<-182.5 -101.5> 698 81<732.5 751>
AnchorPoint: "Anchor-1" 494 722 basechar 0
AnchorPoint: "Anchor-0" 296 -203 basechar 0
LayerCount: 2
Fore
SplineSet
779 757 m 0
 779 708 743 672 677 662 c 1
 633 234 l 2
 617 80 499 -8 317 -8 c 0
 148 -8 51 67 51 201 c 0
 51 221 52 222 98 670 c 0
 100 691 121 702 162 702 c 2
 196 702 l 2
 239 702 252 690 252 670 c 0
 207 239 207 234 207 229 c 0
 207 167 256 123 331 123 c 0
 411 123 474 174 481 244 c 2
 525 670 l 2
 527 691 548 702 589 702 c 2
 647 702 l 2
 681 702 698 715 698 742 c 0
 698 760 677 777 677 790 c 0
 677 797 682 804 690 809 c 2
 724 831 l 2
 730 835 735 836 741 836 c 0
 767 836 779 783 779 757 c 0
306 -80 m 0xfc
 349 -80 363 -91 363 -112 c 2
 356 -172 l 2
 353 -193 333 -204 293 -204 c 0
 250 -204 236 -193 236 -172 c 2
 243 -112 l 2
 245 -91 264 -80 306 -80 c 0xfc
EndSplineSet
Position2: "'cpsp' Capital Spacing lookup 0 subtable" dx=5 dy=0 dh=10 dv=0
EndChar

StartChar: Uhorngrave
Encoding: 7914 7914 165
Width: 712
GlyphClass: 2
Flags: MW
HStem: -8 131<293.5 371 293.5 408> 682 20G<162 196 196 217.5 589 647 647 664> 752 159<305 440>
VStem: 51 156<198 211> 698 81<732.5 751>
AnchorPoint: "Anchor-1" 494 722 basechar 0
AnchorPoint: "Anchor-0" 317 0 basechar 0
LayerCount: 2
Fore
SplineSet
428 752 m 0
 381 752 366 765 356 777 c 0
 274 877 264 885 264 895 c 0
 264 908 284 911 326 911 c 0
 366 911 398 905 408 884 c 0
 445 805 461 779 461 768 c 0
 461 756 452 752 428 752 c 0
779 757 m 0
 779 708 743 672 677 662 c 1
 633 234 l 2
 617 80 499 -8 317 -8 c 0
 148 -8 51 67 51 201 c 0
 51 221 52 222 98 670 c 0
 100 691 121 702 162 702 c 2
 196 702 l 2
 239 702 252 690 252 670 c 0
 207 239 207 234 207 229 c 0
 207 167 256 123 331 123 c 0
 411 123 474 174 481 244 c 2
 525 670 l 2
 527 691 548 702 589 702 c 2
 647 702 l 2
 681 702 698 715 698 742 c 0
 698 760 677 777 677 790 c 0
 677 797 682 804 690 809 c 2
 724 831 l 2
 730 835 735 836 741 836 c 0
 767 836 779 783 779 757 c 0
EndSplineSet
Position2: "'cpsp' Capital Spacing lookup 0 subtable" dx=5 dy=0 dh=10 dv=0
EndChar

StartChar: Uhornhookabove
Encoding: 7916 7916 166
Width: 712
GlyphClass: 2
Flags: MW
HStem: -8 131<293.5 371 293.5 408> 682 20G<162 196 196 217.5 589 647 647 664> 867 61<403.5 416.5>
VStem: 51 156<198 211> 439 87<828 852> 698 81<732.5 751>
AnchorPoint: "Anchor-1" 494 722 basechar 0
AnchorPoint: "Anchor-0" 317 0 basechar 0
LayerCount: 2
Fore
SplineSet
363 855 m 0
 355 855 338 882 338 897 c 0
 338 910 386 928 421 928 c 0
 489 928 526 894 526 851 c 0
 526 799 440 747 424 747 c 0
 386 747 367 758 367 768 c 0
 367 790 439 811 439 845 c 0
 439 859 426 867 407 867 c 0
 385 867 372 855 363 855 c 0
779 757 m 0
 779 708 743 672 677 662 c 1
 633 234 l 2
 617 80 499 -8 317 -8 c 0
 148 -8 51 67 51 201 c 0
 51 221 52 222 98 670 c 0
 100 691 121 702 162 702 c 2
 196 702 l 2
 239 702 252 690 252 670 c 0
 207 239 207 234 207 229 c 0
 207 167 256 123 331 123 c 0
 411 123 474 174 481 244 c 2
 525 670 l 2
 527 691 548 702 589 702 c 2
 647 702 l 2
 681 702 698 715 698 742 c 0
 698 760 677 777 677 790 c 0
 677 797 682 804 690 809 c 2
 724 831 l 2
 730 835 735 836 741 836 c 0
 767 836 779 783 779 757 c 0
EndSplineSet
Position2: "'cpsp' Capital Spacing lookup 0 subtable" dx=5 dy=0 dh=10 dv=0
EndChar

StartChar: Uhorntilde
Encoding: 7918 7918 167
Width: 712
GlyphClass: 2
Flags: MW
HStem: -8 131<293.5 371 293.5 408> 682 20G<162 196 196 217.5 589 647 647 664> 758 86<463.5 477.5> 770 100
VStem: 51 156<198 211> 698 81<732.5 751>
AnchorPoint: "Anchor-1" 494 722 basechar 0
AnchorPoint: "Anchor-0" 317 0 basechar 0
LayerCount: 2
Fore
SplineSet
284 770 m 0xdc
 270 762 256 768 246 783 c 0
 235 799 234 816 247 829 c 0
 276 852 309 870 350 870 c 0xdc
 380 870 398 865 419 857 c 0
 437 850 454 844 473 844 c 0
 495 844 510 849 527 859 c 0
 540 867 558 868 571 851 c 0
 583 835 584 824 563 799 c 0
 538 774 498 758 457 758 c 0xec
 426 758 406 763 386 770 c 0
 368 776 353 784 334 784 c 0
 312 784 298 777 284 770 c 0xdc
779 757 m 0
 779 708 743 672 677 662 c 1
 633 234 l 2
 617 80 499 -8 317 -8 c 0
 148 -8 51 67 51 201 c 0
 51 221 52 222 98 670 c 0
 100 691 121 702 162 702 c 2
 196 702 l 2
 239 702 252 690 252 670 c 0
 207 239 207 234 207 229 c 0
 207 167 256 123 331 123 c 0
 411 123 474 174 481 244 c 2
 525 670 l 2
 527 691 548 702 589 702 c 2
 647 702 l 2
 681 702 698 715 698 742 c 0
 698 760 677 777 677 790 c 0
 677 797 682 804 690 809 c 2
 724 831 l 2
 730 835 735 836 741 836 c 0
 767 836 779 783 779 757 c 0
EndSplineSet
Position2: "'cpsp' Capital Spacing lookup 0 subtable" dx=5 dy=0 dh=10 dv=0
EndChar

StartChar: Uhungarumlaut
Encoding: 368 368 168
Width: 712
GlyphClass: 2
Flags: MW
HStem: -8 131<293.5 371 293.5 408> 682 20G<162 196 196 217.5 589 622 622 643.5> 752 159<291 457 418 507.5>
VStem: 51 156<198 211>
AnchorPoint: "Anchor-1" 438 877 basechar 0
AnchorPoint: "Anchor-0" 317 0 basechar 0
LayerCount: 2
Fore
SplineSet
438 911 m 0
 476 911 496 908 496 898 c 0
 496 885 492 887 380 777 c 0
 368 765 349 752 302 752 c 0
 280 752 273 755 273 765 c 0
 273 776 292 796 350 884 c 0
 364 905 398 911 438 911 c 0
620 911 m 0
 658 911 678 908 678 898 c 0
 678 885 674 887 562 777 c 0
 550 765 531 752 484 752 c 0
 462 752 455 755 455 765 c 0
 455 776 474 796 532 884 c 0
 546 905 580 911 620 911 c 0
589 702 m 2
 622 702 l 2
 665 702 678 690 678 670 c 2
 633 234 l 2
 617 80 499 -8 317 -8 c 0
 148 -8 51 67 51 201 c 0
 51 221 52 222 98 670 c 0
 100 691 121 702 162 702 c 2
 196 702 l 2
 239 702 252 690 252 670 c 0
 207 239 207 234 207 229 c 0
 207 167 256 123 331 123 c 0
 411 123 474 174 481 244 c 2
 525 670 l 2
 527 691 548 702 589 702 c 2
EndSplineSet
Position2: "'cpsp' Capital Spacing lookup 0 subtable" dx=5 dy=0 dh=10 dv=0
EndChar

StartChar: Umacron
Encoding: 362 362 169
Width: 712
GlyphClass: 2
Flags: MW
HStem: -8 131<293.5 371 293.5 408> 682 20G<162 196 196 217.5 589 622 622 643.5> 774 95<290 526 310 515>
VStem: 51 156<198 211>
AnchorPoint: "Anchor-1" 425 877 basechar 0
AnchorPoint: "Anchor-0" 317 0 basechar 0
LayerCount: 2
Fore
SplineSet
310 869 m 2
 526 869 l 2
 543 869 552 859 552 839 c 0
 552 818 548 774 515 774 c 2
 299 774 l 2
 281 774 273 783 273 804 c 0
 273 825 276 869 310 869 c 2
589 702 m 2
 622 702 l 2
 665 702 678 690 678 670 c 2
 633 234 l 2
 617 80 499 -8 317 -8 c 0
 148 -8 51 67 51 201 c 0
 51 221 52 222 98 670 c 0
 100 691 121 702 162 702 c 2
 196 702 l 2
 239 702 252 690 252 670 c 0
 207 239 207 234 207 229 c 0
 207 167 256 123 331 123 c 0
 411 123 474 174 481 244 c 2
 525 670 l 2
 527 691 548 702 589 702 c 2
EndSplineSet
Position2: "'cpsp' Capital Spacing lookup 0 subtable" dx=5 dy=0 dh=10 dv=0
EndChar

StartChar: Uogonek
Encoding: 370 370 170
Width: 712
GlyphClass: 2
Flags: MW
HStem: -183 70<434 446> -8 131<293.5 317> 682 20G<162 196 196 217.5 589 622 622 643.5>
VStem: 51 156<198 211> 318 69<-90 -82>
AnchorPoint: "Anchor-1" 396 700 basechar 0
AnchorPoint: "Anchor-0" 361 -203 basechar 0
LayerCount: 2
Fore
SplineSet
589 702 m 2
 622 702 l 2
 665 702 678 690 678 670 c 2
 633 234 l 2
 620 106 537 24 405 0 c 1
 405 -3 l 2
 405 -20 387 -34 387 -70 c 0
 387 -110 423 -113 445 -113 c 0
 475 -113 494 -99 503 -99 c 0
 512 -99 514 -107 514 -129 c 0
 514 -171 466 -183 426 -183 c 0
 332 -183 318 -127 318 -94 c 0
 318 -70 326 -31 345 -7 c 1
 317 -8 l 1
 148 -8 51 67 51 201 c 0
 51 221 52 222 98 670 c 0
 100 691 121 702 162 702 c 2
 196 702 l 2
 239 702 252 690 252 670 c 0
 207 239 207 234 207 229 c 0
 207 167 256 123 331 123 c 0
 411 123 474 174 481 244 c 2
 525 670 l 2
 527 691 548 702 589 702 c 2
EndSplineSet
Position2: "'cpsp' Capital Spacing lookup 0 subtable" dx=5 dy=0 dh=10 dv=0
EndChar

StartChar: Uring
Encoding: 366 366 171
Width: 712
GlyphClass: 2
Flags: MW
HStem: -8 131<293.5 371 293.5 408> 682 20G<162 196 196 217.5 589 622 622 643.5> 727 62<396.5 416.5 396.5 434> 862 64<402.5 422.5>
VStem: 51 156<198 211> 309 64<812 832 812 846.5> 446 63<817.5 837.5>
AnchorPoint: "Anchor-1" 420 877 basechar 0
AnchorPoint: "Anchor-0" 317 0 basechar 0
LayerCount: 2
Fore
SplineSet
420 926 m 0
 472 926 509 888 509 837 c 0
 509 776 469 727 399 727 c 0xfe
 346 727 309 765 309 816 c 0
 309 877 352 926 420 926 c 0
413 862 m 0
 392 862 373 843 373 821 c 0
 373 803 387 789 406 789 c 0xfe
 427 789 446 807 446 828 c 0
 446 847 432 862 413 862 c 0
589 702 m 2
 622 702 l 2
 665 702 678 690 678 670 c 2
 633 234 l 2
 617 80 499 -8 317 -8 c 0
 148 -8 51 67 51 201 c 0
 51 221 52 222 98 670 c 0
 100 691 121 702 162 702 c 2
 196 702 l 2
 239 702 252 690 252 670 c 0
 207 239 207 234 207 229 c 0
 207 167 256 123 331 123 c 0
 411 123 474 174 481 244 c 2
 525 670 l 2
 527 691 548 702 589 702 c 2
EndSplineSet
Position2: "'cpsp' Capital Spacing lookup 0 subtable" dx=5 dy=0 dh=10 dv=0
EndChar

StartChar: Utilde
Encoding: 360 360 172
Width: 712
GlyphClass: 2
Flags: MW
HStem: -8 131<293.5 371 293.5 408> 682 20G<162 196 196 217.5 589 622 622 643.5> 758 86<463.5 477.5> 770 100
VStem: 51 156<198 211>
AnchorPoint: "Anchor-1" 420 877 basechar 0
AnchorPoint: "Anchor-0" 317 0 basechar 0
LayerCount: 2
Fore
SplineSet
527 859 m 0xe8
 540 867 558 868 571 851 c 0
 583 835 584 824 563 799 c 0
 538 774 498 758 457 758 c 0xe8
 426 758 406 763 386 770 c 0
 368 776 353 784 334 784 c 0
 312 784 298 777 284 770 c 0
 270 762 256 768 246 783 c 0
 235 799 234 816 247 829 c 0
 276 852 309 870 350 870 c 0xd8
 380 870 398 865 419 857 c 0
 437 850 454 844 473 844 c 0
 495 844 510 849 527 859 c 0xe8
589 702 m 2xd8
 622 702 l 2
 665 702 678 690 678 670 c 2
 633 234 l 2
 617 80 499 -8 317 -8 c 0
 148 -8 51 67 51 201 c 0
 51 221 52 222 98 670 c 0
 100 691 121 702 162 702 c 2
 196 702 l 2
 239 702 252 690 252 670 c 0
 207 239 207 234 207 229 c 0
 207 167 256 123 331 123 c 0
 411 123 474 174 481 244 c 2
 525 670 l 2
 527 691 548 702 589 702 c 2xd8
EndSplineSet
Position2: "'cpsp' Capital Spacing lookup 0 subtable" dx=5 dy=0 dh=10 dv=0
EndChar

StartChar: V
Encoding: 86 86 173
Width: 617
GlyphClass: 2
Flags: MW
HStem: 682 20G<102 135 135 149.5 553 584 584 595.5>
VStem: 39 602<675.5 686>
LayerCount: 2
Fore
SplineSet
553 702 m 2
 584 702 l 2
 607 702 641 701 641 678 c 0
 641 673 640 668 637 662 c 2
 354 19 l 2
 347 3 325 -2 296 -2 c 2
 244 -2 l 2
 214 -2 194 3 190 19 c 0
 40 668 39 670 39 673 c 0
 39 699 74 702 102 702 c 2
 135 702 l 2
 164 702 186 695 191 673 c 2
 281 241 l 1
 288 205 l 1
 292 205 l 1
 308 242 l 1
 491 673 l 2
 500 694 525 702 553 702 c 2
EndSplineSet
Position2: "'cpsp' Capital Spacing lookup 0 subtable" dx=5 dy=0 dh=10 dv=0
EndChar

StartChar: W
Encoding: 87 87 174
Width: 882
GlyphClass: 2
Flags: MW
HStem: 682 20G<94 120 120 139.5 464 502 502 518 849 860 860 881>
VStem: 29 891<672.5 679>
AnchorPoint: "Anchor-1" 483 700 basechar 0
AnchorPoint: "Anchor-0" 0 0 basechar 0
LayerCount: 2
Fore
SplineSet
849 702 m 2
 860 702 l 2
 902 702 920 692 920 677 c 0
 920 668 916 662 686 19 c 0
 681 5 656 -2 629 -2 c 2
 556 -2 l 2
 527 -2 505 5 503 19 c 2
 460 346 l 1
 448 433 l 1
 416 343 l 1
 303 19 l 2
 297 5 274 -2 246 -2 c 2
 174 -2 l 2
 142 -2 122 5 121 19 c 2
 29 669 l 2
 29 689 43 702 94 702 c 2
 120 702 l 2
 159 702 181 692 184 671 c 2
 225 349 l 2
 230 301 236 253 241 205 c 1
 290 349 l 1
 407 681 l 2
 413 697 432 702 464 702 c 2
 502 702 l 2
 534 702 553 697 555 681 c 2
 599 349 l 1
 618 198 l 1
 667 349 l 1
 779 671 l 2
 786 692 810 702 849 702 c 2
EndSplineSet
Position2: "'cpsp' Capital Spacing lookup 0 subtable" dx=5 dy=0 dh=10 dv=0
EndChar

StartChar: Wacute
Encoding: 7810 7810 175
Width: 882
GlyphClass: 2
Flags: MW
HStem: 682 20G<94 120 120 139.5 464 502 502 518 849 860 860 881> 752 159<444 610>
VStem: 29 891<672.5 679>
AnchorPoint: "Anchor-1" 519 877 basechar 0
AnchorPoint: "Anchor-0" 0 0 basechar 0
LayerCount: 2
Fore
SplineSet
591 911 m 0
 629 911 649 908 649 898 c 0
 649 885 645 887 533 777 c 0
 521 765 502 752 455 752 c 0
 433 752 426 755 426 765 c 0
 426 776 445 796 503 884 c 0
 517 905 551 911 591 911 c 0
849 702 m 2
 860 702 l 2
 902 702 920 692 920 677 c 0
 920 668 916 662 686 19 c 0
 681 5 656 -2 629 -2 c 2
 556 -2 l 2
 527 -2 505 5 503 19 c 2
 460 346 l 1
 448 433 l 1
 416 343 l 1
 303 19 l 2
 297 5 274 -2 246 -2 c 2
 174 -2 l 2
 142 -2 122 5 121 19 c 2
 29 669 l 2
 29 689 43 702 94 702 c 2
 120 702 l 2
 159 702 181 692 184 671 c 2
 225 349 l 2
 230 301 236 253 241 205 c 1
 290 349 l 1
 407 681 l 2
 413 697 432 702 464 702 c 2
 502 702 l 2
 534 702 553 697 555 681 c 2
 599 349 l 1
 618 198 l 1
 667 349 l 1
 779 671 l 2
 786 692 810 702 849 702 c 2
EndSplineSet
Position2: "'cpsp' Capital Spacing lookup 0 subtable" dx=5 dy=0 dh=10 dv=0
EndChar

StartChar: Wcircumflex
Encoding: 372 372 176
Width: 882
GlyphClass: 2
Flags: MW
HStem: 682 20G<94 120 120 139.5 464 502 502 518 849 860 860 881> 749 146<360 504 366 504 493 579 493 601>
VStem: 29 891<672.5 679>
AnchorPoint: "Anchor-1" 678 774 basechar 0
AnchorPoint: "Anchor-0" 0 0 basechar 0
LayerCount: 2
Fore
SplineSet
493 895 m 2
 504 895 l 2
 533 895 553 894 563 876 c 2
 617 774 l 2
 619 769 620 766 620 762 c 0
 620 754 614 749 601 749 c 2
 579 749 l 2
 549 749 527 754 515 773 c 2
 490 813 l 1
 459 774 l 2
 442 752 418 749 390 749 c 2
 366 749 l 2
 354 749 347 753 347 759 c 0
 347 763 349 768 354 774 c 2
 430 876 l 2
 443 894 464 895 493 895 c 2
849 702 m 2
 860 702 l 2
 902 702 920 692 920 677 c 0
 920 668 916 662 686 19 c 0
 681 5 656 -2 629 -2 c 2
 556 -2 l 2
 527 -2 505 5 503 19 c 2
 460 346 l 1
 448 433 l 1
 416 343 l 1
 303 19 l 2
 297 5 274 -2 246 -2 c 2
 174 -2 l 2
 142 -2 122 5 121 19 c 2
 29 669 l 2
 29 689 43 702 94 702 c 2
 120 702 l 2
 159 702 181 692 184 671 c 2
 225 349 l 2
 230 301 236 253 241 205 c 1
 290 349 l 1
 407 681 l 2
 413 697 432 702 464 702 c 2
 502 702 l 2
 534 702 553 697 555 681 c 2
 599 349 l 1
 618 198 l 1
 667 349 l 1
 779 671 l 2
 786 692 810 702 849 702 c 2
EndSplineSet
Position2: "'cpsp' Capital Spacing lookup 0 subtable" dx=5 dy=0 dh=10 dv=0
EndChar

StartChar: Wdieresis
Encoding: 7812 7812 177
Width: 882
GlyphClass: 2
Flags: MW
HStem: 682 20G<94 120 120 139.5 464 502 502 518 849 860 860 881> 755 124<392 420 572 600>
VStem: 343 127<776.5 857.5> 523 127<776.5 857.5>
AnchorPoint: "Anchor-1" 506 877 basechar 0
AnchorPoint: "Anchor-0" 0 0 basechar 0
LayerCount: 2
Fore
SplineSet
413 879 m 0
 456 879 470 868 470 847 c 2
 463 787 l 2
 460 766 440 755 400 755 c 0
 357 755 343 766 343 787 c 2
 350 847 l 2
 352 868 371 879 413 879 c 0
593 879 m 0
 636 879 650 868 650 847 c 2
 643 787 l 2
 640 766 620 755 580 755 c 0
 537 755 523 766 523 787 c 2
 530 847 l 2
 532 868 551 879 593 879 c 0
849 702 m 2
 860 702 l 2
 902 702 920 692 920 677 c 0
 920 668 916 662 686 19 c 0
 681 5 656 -2 629 -2 c 2
 556 -2 l 2
 527 -2 505 5 503 19 c 2
 460 346 l 1
 448 433 l 1
 416 343 l 1
 303 19 l 2
 297 5 274 -2 246 -2 c 2
 174 -2 l 2
 142 -2 122 5 121 19 c 2
 29 669 l 2
 29 689 43 702 94 702 c 2
 120 702 l 2
 159 702 181 692 184 671 c 2
 225 349 l 2
 230 301 236 253 241 205 c 1
 290 349 l 1
 407 681 l 2
 413 697 432 702 464 702 c 2
 502 702 l 2
 534 702 553 697 555 681 c 2
 599 349 l 1
 618 198 l 1
 667 349 l 1
 779 671 l 2
 786 692 810 702 849 702 c 2
EndSplineSet
Position2: "'cpsp' Capital Spacing lookup 0 subtable" dx=5 dy=0 dh=10 dv=0
EndChar

StartChar: Wgrave
Encoding: 7808 7808 178
Width: 882
GlyphClass: 2
Flags: MW
HStem: 682 20G<94 120 120 139.5 464 502 502 518 849 860 860 881> 752 159<392 527>
VStem: 29 891<672.5 679>
AnchorPoint: "Anchor-1" 501 877 basechar 0
AnchorPoint: "Anchor-0" 0 0 basechar 0
LayerCount: 2
Fore
SplineSet
413 911 m 0
 453 911 485 905 495 884 c 0
 532 805 548 779 548 768 c 0
 548 756 539 752 515 752 c 0
 468 752 453 765 443 777 c 0
 361 877 351 885 351 895 c 0
 351 908 371 911 413 911 c 0
849 702 m 2
 860 702 l 2
 902 702 920 692 920 677 c 0
 920 668 916 662 686 19 c 0
 681 5 656 -2 629 -2 c 2
 556 -2 l 2
 527 -2 505 5 503 19 c 2
 460 346 l 1
 448 433 l 1
 416 343 l 1
 303 19 l 2
 297 5 274 -2 246 -2 c 2
 174 -2 l 2
 142 -2 122 5 121 19 c 2
 29 669 l 2
 29 689 43 702 94 702 c 2
 120 702 l 2
 159 702 181 692 184 671 c 2
 225 349 l 2
 230 301 236 253 241 205 c 1
 290 349 l 1
 407 681 l 2
 413 697 432 702 464 702 c 2
 502 702 l 2
 534 702 553 697 555 681 c 2
 599 349 l 1
 618 198 l 1
 667 349 l 1
 779 671 l 2
 786 692 810 702 849 702 c 2
EndSplineSet
Position2: "'cpsp' Capital Spacing lookup 0 subtable" dx=5 dy=0 dh=10 dv=0
EndChar

StartChar: X
Encoding: 88 88 179
Width: 611
GlyphClass: 2
Flags: MW
HStem: 682 20G<125 166 166 180.5 521 560 560 572>
VStem: -31 650
LayerCount: 2
Fore
SplineSet
521 702 m 2
 560 702 l 2
 584 702 619 702 619 682 c 0
 619 676 616 668 609 658 c 2
 389 363 l 1
 555 42 l 2
 558 35 560 28 560 23 c 0
 560 0 526 -2 497 -2 c 2
 458 -2 l 2
 423 -2 407 2 400 17 c 2
 289 232 l 1
 129 17 l 2
 115 -1 95 -2 66 -2 c 2
 28 -2 l 2
 3 -2 -31 -2 -31 18 c 0
 -31 24 -28 32 -20 42 c 2
 219 365 l 1
 67 658 l 2
 63 666 61 673 61 678 c 0
 61 701 93 702 125 702 c 2
 166 702 l 2
 195 702 216 698 224 683 c 2
 319 497 l 1
 458 683 l 2
 471 700 492 702 521 702 c 2
EndSplineSet
Position2: "'cpsp' Capital Spacing lookup 0 subtable" dx=5 dy=0 dh=10 dv=0
EndChar

StartChar: Y
Encoding: 89 89 180
Width: 559
GlyphClass: 2
Flags: MW
HStem: 682 20G<96 139 139 153.5 504 540 540 551.5>
VStem: 32 569<679 689.5>
AnchorPoint: "Anchor-1" 313 700 basechar 0
AnchorPoint: "Anchor-0" 246 0 basechar 0
LayerCount: 2
Fore
SplineSet
504 702 m 2
 540 702 l 2
 563 702 601 700 601 682 c 0
 601 676 597 667 590 657 c 2
 357 333 l 1
 325 30 l 2
 323 9 304 -2 262 -2 c 2
 228 -2 l 2
 185 -2 171 9 171 30 c 2
 203 336 l 1
 38 657 l 2
 34 665 32 672 32 678 c 0
 32 701 64 702 96 702 c 2
 139 702 l 2
 168 702 190 698 197 683 c 2
 297 469 l 1
 442 683 l 2
 452 698 475 702 504 702 c 2
EndSplineSet
Substitution2: "'ss01' Style Set 1 lookup 17 subtable" Y.loclGUA
Substitution2: "'salt' Stylistic Alternatives lookup 16 subtable" Y.loclGUA
Substitution2: "'aalt' Access All Alternates lookup 0 subtable" Y.loclGUA
Position2: "'cpsp' Capital Spacing lookup 0 subtable" dx=5 dy=0 dh=10 dv=0
EndChar

StartChar: Yacute
Encoding: 221 221 181
Width: 559
GlyphClass: 2
Flags: MW
HStem: 682 20G<96 139 139 153.5 504 540 540 551.5> 752 159<274 440>
VStem: 32 569<679 689.5>
AnchorPoint: "Anchor-1" 349 877 basechar 0
AnchorPoint: "Anchor-0" 246 0 basechar 0
LayerCount: 2
Fore
SplineSet
421 911 m 0
 459 911 479 908 479 898 c 0
 479 885 475 887 363 777 c 0
 351 765 332 752 285 752 c 0
 263 752 256 755 256 765 c 0
 256 776 275 796 333 884 c 0
 347 905 381 911 421 911 c 0
504 702 m 2
 540 702 l 2
 563 702 601 700 601 682 c 0
 601 676 597 667 590 657 c 2
 357 333 l 1
 325 30 l 2
 323 9 304 -2 262 -2 c 2
 228 -2 l 2
 185 -2 171 9 171 30 c 2
 203 336 l 1
 38 657 l 2
 34 665 32 672 32 678 c 0
 32 701 64 702 96 702 c 2
 139 702 l 2
 168 702 190 698 197 683 c 2
 297 469 l 1
 442 683 l 2
 452 698 475 702 504 702 c 2
EndSplineSet
Substitution2: "'ss01' Style Set 1 lookup 17 subtable" Yacute.loclGUA
Substitution2: "'salt' Stylistic Alternatives lookup 16 subtable" Yacute.loclGUA
Substitution2: "'aalt' Access All Alternates lookup 0 subtable" Yacute.loclGUA
Position2: "'cpsp' Capital Spacing lookup 0 subtable" dx=5 dy=0 dh=10 dv=0
EndChar

StartChar: Ycircumflex
Encoding: 374 374 182
Width: 559
GlyphClass: 2
Flags: MW
HStem: 682 20G<96 139 139 153.5 504 540 540 551.5> 749 146<190 334 196 334 323 409 323 431>
VStem: 32 569<679 689.5>
AnchorPoint: "Anchor-1" 508 774 basechar 0
AnchorPoint: "Anchor-0" 246 0 basechar 0
LayerCount: 2
Fore
SplineSet
323 895 m 2
 334 895 l 2
 363 895 383 894 393 876 c 2
 447 774 l 2
 449 769 450 766 450 762 c 0
 450 754 444 749 431 749 c 2
 409 749 l 2
 379 749 357 754 345 773 c 2
 320 813 l 1
 289 774 l 2
 272 752 248 749 220 749 c 2
 196 749 l 2
 184 749 177 753 177 759 c 0
 177 763 179 768 184 774 c 2
 260 876 l 2
 273 894 294 895 323 895 c 2
504 702 m 2
 540 702 l 2
 563 702 601 700 601 682 c 0
 601 676 597 667 590 657 c 2
 357 333 l 1
 325 30 l 2
 323 9 304 -2 262 -2 c 2
 228 -2 l 2
 185 -2 171 9 171 30 c 2
 203 336 l 1
 38 657 l 2
 34 665 32 672 32 678 c 0
 32 701 64 702 96 702 c 2
 139 702 l 2
 168 702 190 698 197 683 c 2
 297 469 l 1
 442 683 l 2
 452 698 475 702 504 702 c 2
EndSplineSet
Substitution2: "'ss01' Style Set 1 lookup 17 subtable" Ycircumflex.loclGUA
Substitution2: "'salt' Stylistic Alternatives lookup 16 subtable" Ycircumflex.loclGUA
Substitution2: "'aalt' Access All Alternates lookup 0 subtable" Ycircumflex.loclGUA
Position2: "'cpsp' Capital Spacing lookup 0 subtable" dx=5 dy=0 dh=10 dv=0
EndChar

StartChar: Ydieresis
Encoding: 376 376 183
Width: 559
GlyphClass: 2
Flags: MW
HStem: 682 20G<96 139 139 153.5 504 540 540 551.5> 755 124<222 250 402 430>
VStem: 173 127<776.5 857.5> 353 127<776.5 857.5>
AnchorPoint: "Anchor-1" 336 877 basechar 0
AnchorPoint: "Anchor-0" 246 0 basechar 0
LayerCount: 2
Fore
SplineSet
243 879 m 0
 286 879 300 868 300 847 c 2
 293 787 l 2
 290 766 270 755 230 755 c 0
 187 755 173 766 173 787 c 2
 180 847 l 2
 182 868 201 879 243 879 c 0
423 879 m 0
 466 879 480 868 480 847 c 2
 473 787 l 2
 470 766 450 755 410 755 c 0
 367 755 353 766 353 787 c 2
 360 847 l 2
 362 868 381 879 423 879 c 0
504 702 m 2
 540 702 l 2
 563 702 601 700 601 682 c 0
 601 676 597 667 590 657 c 2
 357 333 l 1
 325 30 l 2
 323 9 304 -2 262 -2 c 2
 228 -2 l 2
 185 -2 171 9 171 30 c 2
 203 336 l 1
 38 657 l 2
 34 665 32 672 32 678 c 0
 32 701 64 702 96 702 c 2
 139 702 l 2
 168 702 190 698 197 683 c 2
 297 469 l 1
 442 683 l 2
 452 698 475 702 504 702 c 2
EndSplineSet
Substitution2: "'ss01' Style Set 1 lookup 17 subtable" Ydieresis.loclGUA
Substitution2: "'salt' Stylistic Alternatives lookup 16 subtable" Ydieresis.loclGUA
Substitution2: "'aalt' Access All Alternates lookup 0 subtable" Ydieresis.loclGUA
Position2: "'cpsp' Capital Spacing lookup 0 subtable" dx=5 dy=0 dh=10 dv=0
EndChar

StartChar: Ydotbelow
Encoding: 7924 7924 184
Width: 559
GlyphClass: 2
Flags: MW
HStem: -204 124<214 242> 682 20G<96 139 139 153.5 504 540 540 551.5>
VStem: 32 569<679 689.5> 165 127<-182.5 -101.5>
AnchorPoint: "Anchor-1" 255 -82 basechar 0
AnchorPoint: "Anchor-0" 225 -203 basechar 0
LayerCount: 2
Fore
SplineSet
504 702 m 2xe0
 540 702 l 2
 563 702 601 700 601 682 c 0
 601 676 597 667 590 657 c 2
 357 333 l 1
 325 30 l 2
 323 9 304 -2 262 -2 c 2
 228 -2 l 2
 185 -2 171 9 171 30 c 2
 203 336 l 1
 38 657 l 2
 34 665 32 672 32 678 c 0
 32 701 64 702 96 702 c 2
 139 702 l 2
 168 702 190 698 197 683 c 2
 297 469 l 1
 442 683 l 2
 452 698 475 702 504 702 c 2xe0
235 -80 m 0xd0
 278 -80 292 -91 292 -112 c 2
 285 -172 l 2
 282 -193 262 -204 222 -204 c 0
 179 -204 165 -193 165 -172 c 2
 172 -112 l 2
 174 -91 193 -80 235 -80 c 0xd0
EndSplineSet
Substitution2: "'ss01' Style Set 1 lookup 17 subtable" Ydotbelow.loclGUA
Substitution2: "'salt' Stylistic Alternatives lookup 16 subtable" Ydotbelow.loclGUA
Substitution2: "'aalt' Access All Alternates lookup 0 subtable" Ydotbelow.loclGUA
Position2: "'cpsp' Capital Spacing lookup 0 subtable" dx=5 dy=0 dh=10 dv=0
EndChar

StartChar: Ygrave
Encoding: 7922 7922 185
Width: 559
GlyphClass: 2
Flags: MW
HStem: 682 20G<96 139 139 153.5 504 540 540 551.5> 752 159<222 357>
VStem: 32 569<679 689.5>
AnchorPoint: "Anchor-1" 331 877 basechar 0
AnchorPoint: "Anchor-0" 246 0 basechar 0
LayerCount: 2
Fore
SplineSet
243 911 m 0
 283 911 315 905 325 884 c 0
 362 805 378 779 378 768 c 0
 378 756 369 752 345 752 c 0
 298 752 283 765 273 777 c 0
 191 877 181 885 181 895 c 0
 181 908 201 911 243 911 c 0
504 702 m 2
 540 702 l 2
 563 702 601 700 601 682 c 0
 601 676 597 667 590 657 c 2
 357 333 l 1
 325 30 l 2
 323 9 304 -2 262 -2 c 2
 228 -2 l 2
 185 -2 171 9 171 30 c 2
 203 336 l 1
 38 657 l 2
 34 665 32 672 32 678 c 0
 32 701 64 702 96 702 c 2
 139 702 l 2
 168 702 190 698 197 683 c 2
 297 469 l 1
 442 683 l 2
 452 698 475 702 504 702 c 2
EndSplineSet
Substitution2: "'ss01' Style Set 1 lookup 17 subtable" Ygrave.loclGUA
Substitution2: "'salt' Stylistic Alternatives lookup 16 subtable" Ygrave.loclGUA
Substitution2: "'aalt' Access All Alternates lookup 0 subtable" Ygrave.loclGUA
Position2: "'cpsp' Capital Spacing lookup 0 subtable" dx=5 dy=0 dh=10 dv=0
EndChar

StartChar: Yhookabove
Encoding: 7926 7926 186
Width: 559
GlyphClass: 2
Flags: MW
HStem: 682 20G<96 139 139 153.5 504 540 540 551.5> 867 61<320.5 333.5>
VStem: 356 87<828 852>
AnchorPoint: "Anchor-1" 331 877 basechar 0
AnchorPoint: "Anchor-0" 246 0 basechar 0
LayerCount: 2
Fore
SplineSet
356 845 m 0
 356 859 343 867 324 867 c 0
 302 867 289 855 280 855 c 0
 272 855 255 882 255 897 c 0
 255 910 303 928 338 928 c 0
 406 928 443 894 443 851 c 0
 443 799 357 747 341 747 c 0
 303 747 284 758 284 768 c 0
 284 790 356 811 356 845 c 0
504 702 m 2
 540 702 l 2
 563 702 601 700 601 682 c 0
 601 676 597 667 590 657 c 2
 357 333 l 1
 325 30 l 2
 323 9 304 -2 262 -2 c 2
 228 -2 l 2
 185 -2 171 9 171 30 c 2
 203 336 l 1
 38 657 l 2
 34 665 32 672 32 678 c 0
 32 701 64 702 96 702 c 2
 139 702 l 2
 168 702 190 698 197 683 c 2
 297 469 l 1
 442 683 l 2
 452 698 475 702 504 702 c 2
EndSplineSet
Substitution2: "'ss01' Style Set 1 lookup 17 subtable" Yhookabove.loclGUA
Substitution2: "'salt' Stylistic Alternatives lookup 16 subtable" Yhookabove.loclGUA
Substitution2: "'aalt' Access All Alternates lookup 0 subtable" Yhookabove.loclGUA
Position2: "'cpsp' Capital Spacing lookup 0 subtable" dx=5 dy=0 dh=10 dv=0
EndChar

StartChar: Ytilde
Encoding: 7928 7928 187
Width: 559
GlyphClass: 2
Flags: MW
HStem: 682 20G<96 139 139 153.5 504 540 540 551.5> 758 86<380.5 394.5> 770 100
VStem: 32 569<679 689.5>
AnchorPoint: "Anchor-1" 337 877 basechar 0
AnchorPoint: "Anchor-0" 246 0 basechar 0
LayerCount: 2
Fore
SplineSet
444 859 m 0xd0
 457 867 475 868 488 851 c 0
 500 835 501 824 480 799 c 0
 455 774 415 758 374 758 c 0xd0
 343 758 323 763 303 770 c 0
 285 776 270 784 251 784 c 0
 229 784 215 777 201 770 c 0
 187 762 173 768 163 783 c 0
 152 799 151 816 164 829 c 0
 193 852 226 870 267 870 c 0xb0
 297 870 315 865 336 857 c 0
 354 850 371 844 390 844 c 0
 412 844 427 849 444 859 c 0xd0
504 702 m 2xb0
 540 702 l 2
 563 702 601 700 601 682 c 0
 601 676 597 667 590 657 c 2
 357 333 l 1
 325 30 l 2
 323 9 304 -2 262 -2 c 2
 228 -2 l 2
 185 -2 171 9 171 30 c 2
 203 336 l 1
 38 657 l 2
 34 665 32 672 32 678 c 0
 32 701 64 702 96 702 c 2
 139 702 l 2
 168 702 190 698 197 683 c 2
 297 469 l 1
 442 683 l 2
 452 698 475 702 504 702 c 2xb0
EndSplineSet
Substitution2: "'ss01' Style Set 1 lookup 17 subtable" Ytilde.loclGUA
Substitution2: "'salt' Stylistic Alternatives lookup 16 subtable" Ytilde.loclGUA
Substitution2: "'aalt' Access All Alternates lookup 0 subtable" Ytilde.loclGUA
Position2: "'cpsp' Capital Spacing lookup 0 subtable" dx=5 dy=0 dh=10 dv=0
EndChar

StartChar: Z
Encoding: 90 90 188
Width: 616
GlyphClass: 2
Flags: MW
HStem: 0 131<219 512> 569 131<98 572 119 385>
VStem: 1 603<73 627>
AnchorPoint: "Anchor-1" 332 700 basechar 0
AnchorPoint: "Anchor-0" 273 0 basechar 0
LayerCount: 2
Fore
SplineSet
119 700 m 2
 572 700 l 2
 591 700 604 641 604 613 c 0
 604 605 603 600 601 598 c 2
 219 131 l 1
 524 131 l 2
 542 131 550 119 550 91 c 0
 550 39 541 0 512 0 c 2
 33 0 l 2
 14 0 1 59 1 87 c 0
 1 95 2 100 4 102 c 2
 385 569 l 1
 107 569 l 2
 89 569 81 581 81 609 c 0
 81 661 90 700 119 700 c 2
EndSplineSet
Position2: "'cpsp' Capital Spacing lookup 0 subtable" dx=5 dy=0 dh=10 dv=0
EndChar

StartChar: Zacute
Encoding: 377 377 189
Width: 616
GlyphClass: 2
Flags: MW
HStem: 0 131<219 512> 569 131<98 572 119 385> 752 159<293 459>
VStem: 1 603<73 627>
AnchorPoint: "Anchor-1" 368 877 basechar 0
AnchorPoint: "Anchor-0" 273 0 basechar 0
LayerCount: 2
Fore
SplineSet
440 911 m 0
 478 911 498 908 498 898 c 0
 498 885 494 887 382 777 c 0
 370 765 351 752 304 752 c 0
 282 752 275 755 275 765 c 0
 275 776 294 796 352 884 c 0
 366 905 400 911 440 911 c 0
119 700 m 2
 572 700 l 2
 591 700 604 641 604 613 c 0
 604 605 603 600 601 598 c 2
 219 131 l 1
 524 131 l 2
 542 131 550 119 550 91 c 0
 550 39 541 0 512 0 c 2
 33 0 l 2
 14 0 1 59 1 87 c 0
 1 95 2 100 4 102 c 2
 385 569 l 1
 107 569 l 2
 89 569 81 581 81 609 c 0
 81 661 90 700 119 700 c 2
EndSplineSet
Substitution2: "'locl' Localized Forms in Latin lookup 11 subtable" Zacute.loclPLK
Substitution2: "'aalt' Access All Alternates lookup 0 subtable" Zacute.loclPLK
Position2: "'cpsp' Capital Spacing lookup 0 subtable" dx=5 dy=0 dh=10 dv=0
EndChar

StartChar: Zcaron
Encoding: 381 381 190
Width: 616
GlyphClass: 2
Flags: MW
HStem: 0 131<219 512> 569 131<98 572 119 385> 749 146<231 328 231 339>
VStem: 1 603<73 627>
AnchorPoint: "Anchor-1" 353 877 basechar 0
AnchorPoint: "Anchor-0" 273 0 basechar 0
LayerCount: 2
Fore
SplineSet
442 895 m 2
 466 895 l 2
 478 895 485 891 485 885 c 0
 485 881 483 876 478 870 c 2
 402 768 l 2
 389 750 368 749 339 749 c 2
 328 749 l 2
 299 749 279 750 269 768 c 2
 215 870 l 2
 213 875 212 878 212 882 c 0
 212 890 218 895 231 895 c 2
 253 895 l 2
 282 895 305 889 317 871 c 2
 342 831 l 1
 373 870 l 2
 390 892 414 894 442 895 c 2
119 700 m 2
 572 700 l 2
 591 700 604 641 604 613 c 0
 604 605 603 600 601 598 c 2
 219 131 l 1
 524 131 l 2
 542 131 550 119 550 91 c 0
 550 39 541 0 512 0 c 2
 33 0 l 2
 14 0 1 59 1 87 c 0
 1 95 2 100 4 102 c 2
 385 569 l 1
 107 569 l 2
 89 569 81 581 81 609 c 0
 81 661 90 700 119 700 c 2
EndSplineSet
Position2: "'cpsp' Capital Spacing lookup 0 subtable" dx=5 dy=0 dh=10 dv=0
EndChar

StartChar: Zdotaccent
Encoding: 379 379 191
Width: 616
GlyphClass: 2
Flags: MW
HStem: 0 131<219 512> 569 131<98 572 119 385> 755 124<317 345>
VStem: 268 127<776.5 857.5>
AnchorPoint: "Anchor-1" 358 877 basechar 0
AnchorPoint: "Anchor-0" 273 0 basechar 0
LayerCount: 2
Fore
SplineSet
338 879 m 0
 381 879 395 868 395 847 c 2
 388 787 l 2
 385 766 365 755 325 755 c 0
 282 755 268 766 268 787 c 2
 275 847 l 2
 277 868 296 879 338 879 c 0
119 700 m 2
 572 700 l 2
 591 700 604 641 604 613 c 0
 604 605 603 600 601 598 c 2
 219 131 l 1
 524 131 l 2
 542 131 550 119 550 91 c 0
 550 39 541 0 512 0 c 2
 33 0 l 2
 14 0 1 59 1 87 c 0
 1 95 2 100 4 102 c 2
 385 569 l 1
 107 569 l 2
 89 569 81 581 81 609 c 0
 81 661 90 700 119 700 c 2
EndSplineSet
Position2: "'cpsp' Capital Spacing lookup 0 subtable" dx=5 dy=0 dh=10 dv=0
EndChar

StartChar: Zdotbelow
Encoding: 7826 7826 192
Width: 616
GlyphClass: 2
Flags: MW
HStem: -204 124<241 269> 0 131<219 512> 569 131<98 572 119 385>
VStem: 1 603<73 627> 192 127<-182.5 -101.5>
AnchorPoint: "Anchor-1" 282 -82 basechar 0
AnchorPoint: "Anchor-0" 252 -203 basechar 0
LayerCount: 2
Fore
SplineSet
119 700 m 2x70
 572 700 l 2
 591 700 604 641 604 613 c 0
 604 605 603 600 601 598 c 2
 219 131 l 1
 524 131 l 2
 542 131 550 119 550 91 c 0
 550 39 541 0 512 0 c 2
 33 0 l 2
 14 0 1 59 1 87 c 0
 1 95 2 100 4 102 c 2
 385 569 l 1
 107 569 l 2
 89 569 81 581 81 609 c 0
 81 661 90 700 119 700 c 2x70
262 -80 m 0xe8
 305 -80 319 -91 319 -112 c 2
 312 -172 l 2
 309 -193 289 -204 249 -204 c 0
 206 -204 192 -193 192 -172 c 2
 199 -112 l 2
 201 -91 220 -80 262 -80 c 0xe8
EndSplineSet
Position2: "'cpsp' Capital Spacing lookup 0 subtable" dx=5 dy=0 dh=10 dv=0
EndChar

StartChar: Iacute_J.loclNLD
Encoding: 65537 -1 193
Width: 684
GlyphClass: 2
Flags: MW
HStem: -8 131<341 378 326 435.5> 682 20G<160 195 195 203.5 553 588 588 596.5> 752 159<142 308>
VStem: 30 708
AnchorPoint: "Anchor-1" 608 877 basechar 0
AnchorPoint: "Anchor-0" 103 0 basechar 0
LayerCount: 2
Fore
SplineSet
289 911 m 0
 327 911 347 908 347 898 c 0
 347 885 343 887 231 777 c 0
 219 765 200 752 153 752 c 0
 131 752 124 755 124 765 c 0
 124 776 143 796 201 884 c 0
 215 905 249 911 289 911 c 0
680 911 m 0
 718 911 738 908 738 898 c 0
 738 885 734 887 622 777 c 0
 610 765 591 752 544 752 c 0
 522 752 515 755 515 765 c 0
 515 776 534 796 592 884 c 0
 606 905 640 911 680 911 c 0
160 702 m 2
 195 702 l 2
 212 702 252 700 252 671 c 2
 185 30 l 2
 183 9 161 -2 122 -2 c 2
 87 -2 l 2
 70 -2 30 0 30 29 c 2
 97 670 l 2
 99 691 121 702 160 702 c 2
553 702 m 2
 588 702 l 2
 605 702 645 700 645 671 c 2
 595 202 l 2
 581 75 510 -8 361 -8 c 0
 321 -8 265 -2 265 35 c 0
 265 121 278 132 285 132 c 0
 293 132 304 123 348 123 c 0
 408 123 435 154 443 227 c 2
 490 670 l 2
 492 691 514 702 553 702 c 2
EndSplineSet
Position2: "'cpsp' Capital Spacing lookup 0 subtable" dx=5 dy=0 dh=10 dv=0
EndChar

